M48
;DRILL file {KiCad (5.0.0)} date 01/27/21 11:34:50
;FORMAT={-:-/ absolute / metric / decimal}
FMAT,2
METRIC,TZ
T1C0.400
T2C1.000
T3C1.100
T4C3.500
%
G90
G05
M71
T1
X81.26Y-83.6
X89.772Y-72.56
X90.233Y-70.02
X90.502Y-67.29
X92.9Y-84.
X97.1Y-91.692
X98.8Y-70.1
X100.1Y-75.1
X100.9Y-82.7
X105.3Y-80.655
X107.94Y-75.26
X110.44Y-66.46
X110.48Y-81.3
X112.8Y-74.08
X112.9Y-80.4
X113.2Y-69.
X113.2Y-72.9
X114.Y-76.6
X114.51Y-72.81
X114.81Y-77.89
X114.98Y-63.92
X115.Y-65.2
X115.02Y-61.38
X115.03Y-67.73
X115.05Y-62.65
X115.6Y-91.9
X119.6Y-84.3
X121.Y-83.7
X122.1Y-86.2
X123.Y-84.3
X129.5Y-71.
X130.7Y-76.95
X130.7Y-84.8
X131.8Y-88.3
X133.09Y-95.8
X134.6Y-97.9
X136.1Y-63.9
X136.15Y-62.65
X136.5Y-95.8
X136.53Y-76.62
X136.58Y-61.38
X136.6Y-59.8
X136.9Y-69.
X138.287Y-97.862
X138.31Y-77.89
X148.7Y-95.85
T2
X146.8Y-67.02
X146.8Y-69.56
X146.8Y-72.1
X143.8Y-69.52
X143.8Y-72.06
X143.8Y-74.6
X146.8Y-77.6
X146.8Y-80.14
X146.8Y-82.68
X146.8Y-85.22
X146.8Y-87.76
X84.2Y-79.1
X84.2Y-81.64
X84.2Y-84.18
X84.2Y-86.72
X84.2Y-89.26
X84.2Y-91.8
X92.86Y-59.9
X95.4Y-59.9
X107.94Y-99.1
X110.48Y-99.1
X113.02Y-99.1
X115.56Y-99.1
X118.1Y-99.1
X120.64Y-99.1
X123.18Y-99.1
X125.72Y-99.1
X128.26Y-99.1
X130.8Y-99.1
X113.02Y-102.7
X115.56Y-102.7
X118.1Y-102.7
X120.64Y-102.7
X123.18Y-102.7
X125.72Y-102.7
X128.26Y-102.7
X130.8Y-102.7
X75.3Y-67.48
X75.3Y-70.02
X75.3Y-72.56
X75.3Y-75.1
X87.8Y-79.1
X87.8Y-81.64
X87.8Y-84.18
X87.8Y-86.72
X87.8Y-89.26
X87.8Y-91.8
X87.8Y-94.34
X92.8Y-98.1
X92.8Y-100.64
X92.8Y-103.18
X97.26Y-102.7
X99.8Y-102.7
X102.34Y-102.7
X84.1Y-64.54
X84.1Y-67.08
X84.1Y-69.62
X84.1Y-72.16
X84.1Y-74.7
T3
X64.3Y-67.1
X64.3Y-71.6
X70.8Y-67.1
X70.8Y-71.6
X64.3Y-79.1
X64.3Y-83.6
X70.8Y-79.1
X70.8Y-83.6
X64.3Y-91.1
X64.3Y-95.6
X70.8Y-91.1
X70.8Y-95.6
T4
X139.738Y-63.076
X146.05Y-59.1
X86.8Y-59.1
X86.8Y-103.35
X99.098Y-97.85
X71.8Y-103.35
X71.8Y-59.1
X146.05Y-103.35
T0
M30
