G04 #@! TF.GenerationSoftware,KiCad,Pcbnew,(5.0.0)*
G04 #@! TF.CreationDate,2021-01-27T11:34:44+02:00*
G04 #@! TF.ProjectId,ESP32,45535033322E6B696361645F70636200,rev?*
G04 #@! TF.SameCoordinates,Original*
G04 #@! TF.FileFunction,Copper,L2,Bot,Signal*
G04 #@! TF.FilePolarity,Positive*
%FSLAX46Y46*%
G04 Gerber Fmt 4.6, Leading zero omitted, Abs format (unit mm)*
G04 Created by KiCad (PCBNEW (5.0.0)) date 01/27/21 11:34:44*
%MOMM*%
%LPD*%
G01*
G04 APERTURE LIST*
G04 #@! TA.AperFunction,ComponentPad*
%ADD10O,1.700000X1.700000*%
G04 #@! TD*
G04 #@! TA.AperFunction,ComponentPad*
%ADD11R,1.700000X1.700000*%
G04 #@! TD*
G04 #@! TA.AperFunction,SMDPad,CuDef*
%ADD12R,2.000000X2.000000*%
G04 #@! TD*
G04 #@! TA.AperFunction,ComponentPad*
%ADD13C,4.200000*%
G04 #@! TD*
G04 #@! TA.AperFunction,SMDPad,CuDef*
%ADD14R,2.000000X0.500000*%
G04 #@! TD*
G04 #@! TA.AperFunction,ComponentPad*
%ADD15C,2.000000*%
G04 #@! TD*
G04 #@! TA.AperFunction,ViaPad*
%ADD16C,0.800000*%
G04 #@! TD*
G04 #@! TA.AperFunction,Conductor*
%ADD17C,0.500000*%
G04 #@! TD*
G04 #@! TA.AperFunction,Conductor*
%ADD18C,1.000000*%
G04 #@! TD*
G04 #@! TA.AperFunction,Conductor*
%ADD19C,0.700000*%
G04 #@! TD*
G04 #@! TA.AperFunction,Conductor*
%ADD20C,0.800000*%
G04 #@! TD*
G04 #@! TA.AperFunction,Conductor*
%ADD21C,0.254000*%
G04 #@! TD*
G04 APERTURE END LIST*
D10*
G04 #@! TO.P,P2,3*
G04 #@! TO.N,+3V3*
X146800000Y-72100000D03*
G04 #@! TO.P,P2,2*
G04 #@! TO.N,GND*
X146800000Y-69560000D03*
D11*
G04 #@! TO.P,P2,1*
G04 #@! TO.N,IR*
X146800000Y-67020000D03*
G04 #@! TD*
D12*
G04 #@! TO.P,REF\002A\002A,1*
G04 #@! TO.N,N/C*
X64300000Y-104100000D03*
G04 #@! TD*
G04 #@! TO.P,REF\002A\002A,1*
G04 #@! TO.N,N/C*
X64300000Y-58600000D03*
G04 #@! TD*
G04 #@! TO.P,REF\002A\002A,1*
G04 #@! TO.N,N/C*
X81800000Y-58600000D03*
G04 #@! TD*
G04 #@! TO.P,REF\002A\002A,1*
G04 #@! TO.N,N/C*
X76800000Y-58600000D03*
G04 #@! TD*
G04 #@! TO.P,REF\002A\002A,1*
G04 #@! TO.N,N/C*
X76800000Y-104100000D03*
G04 #@! TD*
D13*
G04 #@! TO.P,Hole,TP*
G04 #@! TO.N,N/C*
X71800000Y-103350000D03*
G04 #@! TD*
G04 #@! TO.P,Hole,TP*
G04 #@! TO.N,N/C*
X71800000Y-59100000D03*
G04 #@! TD*
G04 #@! TO.P,Hole,TP*
G04 #@! TO.N,N/C*
X146050000Y-103350000D03*
G04 #@! TD*
G04 #@! TO.P,Hole,TP*
G04 #@! TO.N,N/C*
X139738000Y-63076000D03*
G04 #@! TD*
G04 #@! TO.P,Hole,TP*
G04 #@! TO.N,N/C*
X146050000Y-59100000D03*
G04 #@! TD*
G04 #@! TO.P,Hole,TP*
G04 #@! TO.N,N/C*
X86800000Y-59100000D03*
G04 #@! TD*
G04 #@! TO.P,Hole,TP*
G04 #@! TO.N,N/C*
X86800000Y-103350000D03*
G04 #@! TD*
D12*
G04 #@! TO.P,REF\002A\002A,1*
G04 #@! TO.N,N/C*
X139800000Y-104100000D03*
G04 #@! TD*
G04 #@! TO.P,REF\002A\002A,1*
G04 #@! TO.N,N/C*
X81800000Y-104100000D03*
G04 #@! TD*
D14*
G04 #@! TO.P,LCD1,1*
G04 #@! TO.N,N/C*
X125900000Y-83300000D03*
G04 #@! TO.P,LCD1,2*
G04 #@! TO.N,GND*
X125900000Y-82500000D03*
G04 #@! TO.P,LCD1,3*
G04 #@! TO.N,TFT-LED*
X125900000Y-81700000D03*
G04 #@! TO.P,LCD1,4*
G04 #@! TO.N,+3V3*
X125900000Y-80900000D03*
G04 #@! TO.P,LCD1,5*
G04 #@! TO.N,GND*
X125900000Y-80100000D03*
G04 #@! TO.P,LCD1,6*
G04 #@! TO.N,TFT-RESET*
X125900000Y-79300000D03*
G04 #@! TO.P,LCD1,7*
G04 #@! TO.N,TFT-A0*
X125900000Y-78500000D03*
G04 #@! TO.P,LCD1,8*
G04 #@! TO.N,TFT-SDA*
X125900000Y-77700000D03*
G04 #@! TO.P,LCD1,9*
G04 #@! TO.N,TFT-SCK*
X125900000Y-76900000D03*
G04 #@! TO.P,LCD1,10*
G04 #@! TO.N,+3V3*
X125900000Y-76100000D03*
G04 #@! TO.P,LCD1,11*
X125900000Y-75300000D03*
G04 #@! TO.P,LCD1,12*
G04 #@! TO.N,TFT-CS*
X125900000Y-74500000D03*
G04 #@! TO.P,LCD1,13*
G04 #@! TO.N,GND*
X125900000Y-73700000D03*
G04 #@! TO.P,LCD1,14*
G04 #@! TO.N,N/C*
X125900000Y-72900000D03*
G04 #@! TD*
D10*
G04 #@! TO.P,P10,3*
G04 #@! TO.N,TX*
X143800000Y-69520000D03*
G04 #@! TO.P,P10,2*
G04 #@! TO.N,RX*
X143800000Y-72060000D03*
D11*
G04 #@! TO.P,P10,1*
G04 #@! TO.N,GND*
X143800000Y-74600000D03*
G04 #@! TD*
D10*
G04 #@! TO.P,P3,5*
G04 #@! TO.N,GND*
X146800000Y-87760000D03*
G04 #@! TO.P,P3,4*
G04 #@! TO.N,+3V3*
X146800000Y-85220000D03*
G04 #@! TO.P,P3,3*
G04 #@! TO.N,ENC_BTN*
X146800000Y-82680000D03*
G04 #@! TO.P,P3,2*
G04 #@! TO.N,ENC_A*
X146800000Y-80140000D03*
D11*
G04 #@! TO.P,P3,1*
G04 #@! TO.N,ENC_B*
X146800000Y-77600000D03*
G04 #@! TD*
D10*
G04 #@! TO.P,P7,6*
G04 #@! TO.N,+5V-out*
X84200000Y-91800000D03*
G04 #@! TO.P,P7,5*
G04 #@! TO.N,GND*
X84200000Y-89260000D03*
G04 #@! TO.P,P7,4*
G04 #@! TO.N,PCM-LRCK*
X84200000Y-86720000D03*
G04 #@! TO.P,P7,3*
G04 #@! TO.N,PCM-DIN*
X84200000Y-84180000D03*
G04 #@! TO.P,P7,2*
G04 #@! TO.N,PCM-BCK*
X84200000Y-81640000D03*
D11*
G04 #@! TO.P,P7,1*
G04 #@! TO.N,PCM-SCK*
X84200000Y-79100000D03*
G04 #@! TD*
D10*
G04 #@! TO.P,P1,2*
G04 #@! TO.N,+5V*
X92860000Y-59900000D03*
D11*
G04 #@! TO.P,P1,1*
G04 #@! TO.N,GND*
X95400000Y-59900000D03*
G04 #@! TD*
D10*
G04 #@! TO.P,P9,10*
G04 #@! TO.N,IO34*
X107940000Y-99100000D03*
G04 #@! TO.P,P9,9*
G04 #@! TO.N,IO33*
X110480000Y-99100000D03*
G04 #@! TO.P,P9,8*
G04 #@! TO.N,IO12*
X113020000Y-99100000D03*
G04 #@! TO.P,P9,7*
G04 #@! TO.N,IO32*
X115560000Y-99100000D03*
G04 #@! TO.P,P9,6*
G04 #@! TO.N,TFT-SCK*
X118100000Y-99100000D03*
G04 #@! TO.P,P9,5*
G04 #@! TO.N,TFT-SDA*
X120640000Y-99100000D03*
G04 #@! TO.P,P9,4*
G04 #@! TO.N,IO19*
X123180000Y-99100000D03*
G04 #@! TO.P,P9,3*
G04 #@! TO.N,Net-(P9-Pad3)*
X125720000Y-99100000D03*
G04 #@! TO.P,P9,2*
G04 #@! TO.N,GND*
X128260000Y-99100000D03*
D11*
G04 #@! TO.P,P9,1*
G04 #@! TO.N,+5V-out*
X130800000Y-99100000D03*
G04 #@! TD*
D10*
G04 #@! TO.P,P6,8*
G04 #@! TO.N,Net-(P6-Pad8)*
X113020000Y-102700000D03*
G04 #@! TO.P,P6,7*
G04 #@! TO.N,TFT-SCK*
X115560000Y-102700000D03*
G04 #@! TO.P,P6,6*
G04 #@! TO.N,TFT-SDA*
X118100000Y-102700000D03*
G04 #@! TO.P,P6,5*
G04 #@! TO.N,TFT-A0*
X120640000Y-102700000D03*
G04 #@! TO.P,P6,4*
G04 #@! TO.N,TFT-RESET*
X123180000Y-102700000D03*
G04 #@! TO.P,P6,3*
G04 #@! TO.N,TFT-CS*
X125720000Y-102700000D03*
G04 #@! TO.P,P6,2*
G04 #@! TO.N,GND*
X128260000Y-102700000D03*
D11*
G04 #@! TO.P,P6,1*
G04 #@! TO.N,+3V3*
X130800000Y-102700000D03*
G04 #@! TD*
D13*
G04 #@! TO.P,Hole,TP*
G04 #@! TO.N,N/C*
X99098000Y-97850000D03*
G04 #@! TD*
D10*
G04 #@! TO.P,P4,4*
G04 #@! TO.N,BTN_A*
X75300000Y-67480000D03*
G04 #@! TO.P,P4,3*
G04 #@! TO.N,BTN_B*
X75300000Y-70020000D03*
G04 #@! TO.P,P4,2*
G04 #@! TO.N,BTN_C*
X75300000Y-72560000D03*
D11*
G04 #@! TO.P,P4,1*
G04 #@! TO.N,GND*
X75300000Y-75100000D03*
G04 #@! TD*
D15*
G04 #@! TO.P,SW3,1*
G04 #@! TO.N,BTN_A*
X64300000Y-67100000D03*
G04 #@! TO.P,SW3,2*
G04 #@! TO.N,GND*
X64300000Y-71600000D03*
G04 #@! TO.P,SW3,1*
G04 #@! TO.N,BTN_A*
X70800000Y-67100000D03*
G04 #@! TO.P,SW3,2*
G04 #@! TO.N,GND*
X70800000Y-71600000D03*
G04 #@! TD*
G04 #@! TO.P,SW4,1*
G04 #@! TO.N,BTN_B*
X64300000Y-79100000D03*
G04 #@! TO.P,SW4,2*
G04 #@! TO.N,GND*
X64300000Y-83600000D03*
G04 #@! TO.P,SW4,1*
G04 #@! TO.N,BTN_B*
X70800000Y-79100000D03*
G04 #@! TO.P,SW4,2*
G04 #@! TO.N,GND*
X70800000Y-83600000D03*
G04 #@! TD*
G04 #@! TO.P,SW5,1*
G04 #@! TO.N,BTN_C*
X64300000Y-91100000D03*
G04 #@! TO.P,SW5,2*
G04 #@! TO.N,GND*
X64300000Y-95600000D03*
G04 #@! TO.P,SW5,1*
G04 #@! TO.N,BTN_C*
X70800000Y-91100000D03*
G04 #@! TO.P,SW5,2*
G04 #@! TO.N,GND*
X70800000Y-95600000D03*
G04 #@! TD*
D10*
G04 #@! TO.P,P8,7*
G04 #@! TO.N,+5V-out*
X87800000Y-94340000D03*
G04 #@! TO.P,P8,6*
G04 #@! TO.N,GND*
X87800000Y-91800000D03*
G04 #@! TO.P,P8,5*
G04 #@! TO.N,Net-(P8-Pad5)*
X87800000Y-89260000D03*
G04 #@! TO.P,P8,4*
G04 #@! TO.N,Net-(P8-Pad4)*
X87800000Y-86720000D03*
G04 #@! TO.P,P8,3*
G04 #@! TO.N,PCM-DIN*
X87800000Y-84180000D03*
G04 #@! TO.P,P8,2*
G04 #@! TO.N,PCM-BCK*
X87800000Y-81640000D03*
D11*
G04 #@! TO.P,P8,1*
G04 #@! TO.N,PCM-LRCK*
X87800000Y-79100000D03*
G04 #@! TD*
G04 #@! TO.P,P11,1*
G04 #@! TO.N,Net-(P11-Pad1)*
X92800000Y-98100000D03*
D10*
G04 #@! TO.P,P11,2*
G04 #@! TO.N,Net-(C3-Pad2)*
X92800000Y-100640000D03*
G04 #@! TO.P,P11,3*
G04 #@! TO.N,Net-(P11-Pad3)*
X92800000Y-103180000D03*
G04 #@! TD*
G04 #@! TO.P,P12,3*
G04 #@! TO.N,Net-(C6-Pad2)*
X102340000Y-102700000D03*
G04 #@! TO.P,P12,2*
G04 #@! TO.N,Net-(C3-Pad2)*
X99800000Y-102700000D03*
D11*
G04 #@! TO.P,P12,1*
G04 #@! TO.N,Net-(C5-Pad2)*
X97260000Y-102700000D03*
G04 #@! TD*
G04 #@! TO.P,P5,1*
G04 #@! TO.N,+3V3*
X84100000Y-74700000D03*
D10*
G04 #@! TO.P,P5,2*
G04 #@! TO.N,GND*
X84100000Y-72160000D03*
G04 #@! TO.P,P5,3*
G04 #@! TO.N,BTN_C*
X84100000Y-69620000D03*
G04 #@! TO.P,P5,4*
G04 #@! TO.N,BTN_B*
X84100000Y-67080000D03*
G04 #@! TO.P,P5,5*
G04 #@! TO.N,BTN_A*
X84100000Y-64540000D03*
G04 #@! TD*
D16*
G04 #@! TO.N,RX*
X136100000Y-63900000D03*
G04 #@! TO.N,TX*
X136150000Y-62650000D03*
G04 #@! TO.N,ENC_A*
X138310000Y-77890000D03*
G04 #@! TO.N,ENC_B*
X114510000Y-72810000D03*
G04 #@! TO.N,TFT-CS*
X114810000Y-77890000D03*
X122100000Y-86200000D03*
G04 #@! TO.N,TFT-RESET*
X136530000Y-76620000D03*
X133089999Y-95800000D03*
X136500000Y-95800000D03*
G04 #@! TO.N,TFT-A0*
X112800000Y-74080000D03*
G04 #@! TO.N,TFT-SDA*
X130700000Y-76950000D03*
G04 #@! TO.N,TFT-SCK*
X136900000Y-69000000D03*
X129500000Y-71000000D03*
X121000000Y-83700000D03*
G04 #@! TO.N,PCM-DIN*
X113200000Y-72900000D03*
X136580000Y-61380000D03*
G04 #@! TO.N,BTN_A*
X115050000Y-62650000D03*
X90502500Y-67290000D03*
G04 #@! TO.N,BTN_B*
X114980000Y-63920000D03*
X90232500Y-70020000D03*
G04 #@! TO.N,BTN_C*
X89772500Y-72560000D03*
X110440000Y-66460000D03*
G04 #@! TO.N,GND*
X130700000Y-84800000D03*
X114000000Y-76600000D03*
X112900000Y-80400000D03*
X148700000Y-95850000D03*
X136600000Y-59800000D03*
X81260000Y-83600000D03*
G04 #@! TO.N,+3V3*
X134600000Y-97900000D03*
X100100000Y-75100000D03*
X92900000Y-84000000D03*
X123000000Y-84300000D03*
X119600000Y-84300000D03*
G04 #@! TO.N,IO34*
X107940000Y-75260000D03*
X115000000Y-65200000D03*
G04 #@! TO.N,+5V-out*
X98800000Y-70100000D03*
G04 #@! TO.N,IO32*
X115030000Y-67730000D03*
X115600000Y-91900000D03*
G04 #@! TO.N,IO33*
X113200000Y-69000000D03*
X110480000Y-81300000D03*
G04 #@! TO.N,TFT-LED*
X131800000Y-88300000D03*
G04 #@! TO.N,Net-(C5-Pad2)*
X97100000Y-91692150D03*
G04 #@! TO.N,Net-(P11-Pad1)*
X105300000Y-80654650D03*
G04 #@! TO.N,Net-(P11-Pad3)*
X100900000Y-82700000D03*
G04 #@! TO.N,Net-(R3-Pad2)*
X115020000Y-61380000D03*
X138287500Y-97862500D03*
G04 #@! TD*
D17*
G04 #@! TO.N,RX*
X136100000Y-63900000D02*
X136100000Y-66200000D01*
X141960000Y-72060000D02*
X143800000Y-72060000D01*
X136100000Y-66200000D02*
X141960000Y-72060000D01*
G04 #@! TO.N,TX*
X143800000Y-69520000D02*
X141720000Y-69520000D01*
X136549999Y-63049999D02*
X136150000Y-62650000D01*
X136950001Y-63450001D02*
X136549999Y-63049999D01*
X136950001Y-64750001D02*
X136950001Y-63450001D01*
X141720000Y-69520000D02*
X136950001Y-64750001D01*
G04 #@! TO.N,ENC_A*
X142340000Y-80140000D02*
X146800000Y-80140000D01*
X140090000Y-77890000D02*
X142340000Y-80140000D01*
X140090000Y-77890000D02*
X138310000Y-77890000D01*
X138310000Y-77890000D02*
X138310000Y-77890000D01*
G04 #@! TO.N,ENC_B*
X146800000Y-77600000D02*
X141800000Y-77600000D01*
X137999980Y-73799980D02*
X130799980Y-73799980D01*
X141800000Y-77600000D02*
X137999980Y-73799980D01*
X130799980Y-73799980D02*
X127800000Y-70800000D01*
X116520000Y-70800000D02*
X114510000Y-72810000D01*
X127800000Y-70800000D02*
X116520000Y-70800000D01*
G04 #@! TO.N,TFT-CS*
X118200000Y-74500000D02*
X114810000Y-77890000D01*
X125900000Y-74500000D02*
X118200000Y-74500000D01*
X124100000Y-88200000D02*
X128540000Y-88200000D01*
X122100000Y-86200000D02*
X124100000Y-88200000D01*
X132245000Y-91905000D02*
X132245000Y-103843000D01*
X128540000Y-88200000D02*
X132245000Y-91905000D01*
X125720000Y-103902081D02*
X126117919Y-104300000D01*
X125720000Y-102700000D02*
X125720000Y-103902081D01*
X131788000Y-104300000D02*
X132245000Y-103843000D01*
X126117919Y-104300000D02*
X131788000Y-104300000D01*
G04 #@! TO.N,TFT-RESET*
X125900000Y-79300000D02*
X127900000Y-79300000D01*
X133089999Y-84489999D02*
X127900000Y-79300000D01*
X124377919Y-105100000D02*
X132500000Y-105100000D01*
X133089999Y-104510001D02*
X133089999Y-95800000D01*
X132500000Y-105100000D02*
X133089999Y-104510001D01*
X123180000Y-103902081D02*
X124377919Y-105100000D01*
X123180000Y-102700000D02*
X123180000Y-103902081D01*
X133089999Y-95800000D02*
X133089999Y-84489999D01*
X136500000Y-76650000D02*
X136530000Y-76620000D01*
X136500000Y-95800000D02*
X136500000Y-76650000D01*
G04 #@! TO.N,TFT-A0*
X124400000Y-78500000D02*
X125900000Y-78500000D01*
X112800000Y-77800000D02*
X113900000Y-78900000D01*
X112800000Y-74080000D02*
X112800000Y-77800000D01*
X113900000Y-78900000D02*
X113900000Y-82100000D01*
X113900000Y-82100000D02*
X117100000Y-85300000D01*
X124400000Y-78500000D02*
X122000000Y-80900000D01*
X122000000Y-80900000D02*
X122000000Y-84900000D01*
X121600000Y-85300000D02*
X117100000Y-85300000D01*
X122000000Y-84900000D02*
X121600000Y-85300000D01*
G04 #@! TO.N,TFT-SDA*
X125910000Y-77710000D02*
X125900000Y-77700000D01*
X129950000Y-77700000D02*
X130700000Y-76950000D01*
X125900000Y-77700000D02*
X129950000Y-77700000D01*
G04 #@! TO.N,TFT-SCK*
X125900000Y-76900000D02*
X123400000Y-76900000D01*
X123400000Y-76900000D02*
X122600000Y-76900000D01*
X122600000Y-76900000D02*
X121000000Y-78500000D01*
X121000000Y-78500000D02*
X121000000Y-83700000D01*
X121000000Y-83700000D02*
X121000000Y-83700000D01*
X136900000Y-69565685D02*
X136365685Y-70100000D01*
X136900000Y-69000000D02*
X136900000Y-69565685D01*
X130400000Y-70100000D02*
X129500000Y-71000000D01*
X136365685Y-70100000D02*
X130400000Y-70100000D01*
G04 #@! TO.N,PCM-DIN*
X113200000Y-72900000D02*
X124700000Y-61400000D01*
X124700000Y-61400000D02*
X132000000Y-61400000D01*
X132020000Y-61380000D02*
X136580000Y-61380000D01*
X132000000Y-61400000D02*
X132020000Y-61380000D01*
G04 #@! TO.N,PCM-LRCK*
X86450000Y-79100000D02*
X85800000Y-79750000D01*
X87800000Y-79100000D02*
X86450000Y-79100000D01*
X85800000Y-85120000D02*
X84200000Y-86720000D01*
X85800000Y-79750000D02*
X85800000Y-85120000D01*
G04 #@! TO.N,BTN_A*
X98750000Y-62650000D02*
X115050000Y-62650000D01*
X64300000Y-67100000D02*
X70800000Y-67100000D01*
X94110000Y-67290000D02*
X94600000Y-66800000D01*
X90502500Y-67290000D02*
X94110000Y-67290000D01*
X94600000Y-66800000D02*
X98750000Y-62650000D01*
G04 #@! TO.N,BTN_B*
X93680000Y-70020000D02*
X99780000Y-63920000D01*
X99780000Y-63920000D02*
X114980000Y-63920000D01*
X90232500Y-70020000D02*
X93680000Y-70020000D01*
G04 #@! TO.N,BTN_C*
X89772500Y-72560000D02*
X93440000Y-72560000D01*
X93440000Y-72560000D02*
X99540000Y-66460000D01*
X99540000Y-66460000D02*
X110440000Y-66460000D01*
X110440000Y-66460000D02*
X110440000Y-66460000D01*
G04 #@! TO.N,GND*
X127400000Y-80100000D02*
X127790000Y-80490000D01*
X125900000Y-80100000D02*
X127400000Y-80100000D01*
X70800000Y-83600000D02*
X72900000Y-85700000D01*
X72900000Y-93500000D02*
X70800000Y-95600000D01*
X72900000Y-85700000D02*
X72900000Y-93500000D01*
X75300000Y-75100000D02*
X72200000Y-75100000D01*
X70800000Y-73700000D02*
X70800000Y-71600000D01*
X72200000Y-75100000D02*
X70800000Y-73700000D01*
X125900000Y-82500000D02*
X128400000Y-82500000D01*
X128400000Y-82500000D02*
X130700000Y-84800000D01*
X130700000Y-84800000D02*
X130700000Y-84800000D01*
X125900000Y-73700000D02*
X124400000Y-73700000D01*
X124400000Y-73700000D02*
X123400000Y-72700000D01*
X123400000Y-72700000D02*
X123400000Y-72700000D01*
X128260000Y-97860000D02*
X128260000Y-99100000D01*
X114520000Y-84120000D02*
X128260000Y-97860000D01*
X114520000Y-84120000D02*
X113100000Y-82700000D01*
X113100000Y-82700000D02*
X112900000Y-82500000D01*
X112900000Y-82500000D02*
X112900000Y-80400000D01*
X112900000Y-80400000D02*
X112900000Y-80400000D01*
X117900000Y-72700000D02*
X114000000Y-76600000D01*
X120900000Y-72700000D02*
X117900000Y-72700000D01*
X123400000Y-72700000D02*
X122610000Y-72700000D01*
X122610000Y-72700000D02*
X120900000Y-72700000D01*
X81500000Y-74760000D02*
X84100000Y-72160000D01*
D18*
X75300000Y-75100000D02*
X76650000Y-75100000D01*
X75300000Y-75100000D02*
X81500000Y-75100000D01*
D17*
X81500000Y-75100000D02*
X81500000Y-74760000D01*
X81260000Y-75000000D02*
X84100000Y-72160000D01*
X81260000Y-83600000D02*
X81260000Y-75000000D01*
X127790000Y-80490000D02*
X127790000Y-82290000D01*
X95400000Y-62040000D02*
X95400000Y-59900000D01*
X86540000Y-72160000D02*
X88600000Y-70100000D01*
X84100000Y-72160000D02*
X86540000Y-72160000D01*
X88600000Y-70100000D02*
X88600000Y-65300000D01*
X88600000Y-65300000D02*
X90800000Y-63100000D01*
X90800000Y-63100000D02*
X94340000Y-63100000D01*
X94340000Y-63100000D02*
X95400000Y-62040000D01*
G04 #@! TO.N,+3V3*
X127400000Y-75300000D02*
X125900000Y-75300000D01*
X92900000Y-84000000D02*
X92900000Y-84000000D01*
X92900000Y-84000000D02*
X92900000Y-84100000D01*
D19*
X131400000Y-75300000D02*
X130600000Y-75300000D01*
X134600000Y-78500000D02*
X131400000Y-75300000D01*
X130600000Y-75300000D02*
X127400000Y-75300000D01*
X148800000Y-89600000D02*
X147300000Y-91100000D01*
X147300000Y-91100000D02*
X146800000Y-91100000D01*
D17*
X148800000Y-85100000D02*
X148800000Y-87700000D01*
X148800000Y-87700000D02*
X148800000Y-89600000D01*
X93299999Y-83600001D02*
X93309999Y-83600001D01*
X92900000Y-84000000D02*
X93299999Y-83600001D01*
X100100000Y-76810000D02*
X100100000Y-75100000D01*
X93309999Y-83600001D02*
X100100000Y-76810000D01*
D19*
X136250000Y-97900000D02*
X143050000Y-91100000D01*
X134600000Y-97900000D02*
X136250000Y-97900000D01*
X146800000Y-91100000D02*
X143050000Y-91100000D01*
X134600000Y-97900000D02*
X134600000Y-78500000D01*
D17*
X148680000Y-85220000D02*
X148800000Y-85100000D01*
D19*
X146800000Y-85220000D02*
X148680000Y-85220000D01*
D17*
X125900000Y-75300000D02*
X125900000Y-76100000D01*
X125900000Y-80900000D02*
X124400000Y-80900000D01*
X124400000Y-80900000D02*
X123400000Y-80900000D01*
X123400000Y-80900000D02*
X123000000Y-81300000D01*
X123000000Y-81300000D02*
X123000000Y-84300000D01*
X123000000Y-84300000D02*
X123000000Y-84300000D01*
X122200000Y-76100000D02*
X125900000Y-76100000D01*
X119600000Y-84300000D02*
X119600000Y-78700000D01*
X119600000Y-78700000D02*
X122200000Y-76100000D01*
X148150000Y-72100000D02*
X146800000Y-72100000D01*
X148800000Y-85100000D02*
X148800000Y-72750000D01*
X148800000Y-72750000D02*
X148150000Y-72100000D01*
G04 #@! TO.N,IO34*
X107940000Y-75260000D02*
X107940000Y-70760000D01*
X107940000Y-70760000D02*
X113500000Y-65200000D01*
X113500000Y-65200000D02*
X115000000Y-65200000D01*
X115000000Y-65200000D02*
X115000000Y-65200000D01*
D18*
G04 #@! TO.N,+5V-out*
X98800000Y-74800000D02*
X98800000Y-70100000D01*
D20*
X130800000Y-100450000D02*
X130328000Y-100922000D01*
X130800000Y-99100000D02*
X130800000Y-100450000D01*
D18*
X102622000Y-105100000D02*
X106800000Y-100922000D01*
X91800000Y-105100000D02*
X102622000Y-105100000D01*
X90300000Y-103600000D02*
X91800000Y-105100000D01*
X90300000Y-96800000D02*
X90300000Y-103600000D01*
D20*
X106800000Y-100922000D02*
X130328000Y-100922000D01*
D17*
X90200000Y-92200000D02*
X90300000Y-92100000D01*
D18*
X98800000Y-76120000D02*
X90300000Y-84620000D01*
X98800000Y-74800000D02*
X98800000Y-76120000D01*
X90300000Y-84620000D02*
X90300000Y-92100000D01*
D17*
X90060000Y-94340000D02*
X90300000Y-94100000D01*
D18*
X87800000Y-94340000D02*
X90060000Y-94340000D01*
X90300000Y-92100000D02*
X90300000Y-94100000D01*
X90300000Y-94100000D02*
X90300000Y-96800000D01*
D17*
G04 #@! TO.N,IO32*
X114300000Y-69800000D02*
X111500000Y-72600000D01*
X115030000Y-67730000D02*
X114300000Y-68460000D01*
X114300000Y-68460000D02*
X114300000Y-69800000D01*
X115600000Y-91900000D02*
X115600000Y-86400000D01*
X111500000Y-72600000D02*
X111500000Y-82300000D01*
X115600000Y-86400000D02*
X111500000Y-82300000D01*
G04 #@! TO.N,IO33*
X110480000Y-71720000D02*
X113200000Y-69000000D01*
X110480000Y-81300000D02*
X110480000Y-71720000D01*
G04 #@! TO.N,TFT-LED*
X125134315Y-87100000D02*
X130600000Y-87100000D01*
X130600000Y-87100000D02*
X131800000Y-88300000D01*
X131800000Y-88300000D02*
X131800000Y-88300000D01*
X125900000Y-81700000D02*
X124400000Y-81700000D01*
X124400000Y-81700000D02*
X124000000Y-82100000D01*
X124000000Y-85965685D02*
X125134315Y-87100000D01*
X124000000Y-82100000D02*
X124000000Y-85965685D01*
G04 #@! TO.N,Net-(C5-Pad2)*
X97260000Y-101350000D02*
X95700000Y-99790000D01*
D19*
X97260000Y-102700000D02*
X97260000Y-101350000D01*
D17*
X95700000Y-93092150D02*
X97100000Y-91692150D01*
X95700000Y-99790000D02*
X95700000Y-93092150D01*
D19*
G04 #@! TO.N,Net-(P11-Pad1)*
X92800000Y-98100000D02*
X92800000Y-87700000D01*
D17*
X99845350Y-80654650D02*
X105300000Y-80654650D01*
X92800000Y-87700000D02*
X99845350Y-80654650D01*
G04 #@! TO.N,Net-(P11-Pad3)*
X100900000Y-82700000D02*
X100900000Y-86000000D01*
X100900000Y-86000000D02*
X94800000Y-92100000D01*
D19*
X94800000Y-101180000D02*
X92800000Y-103180000D01*
D17*
X94800000Y-92100000D02*
X94800000Y-101180000D01*
G04 #@! TO.N,Net-(R3-Pad2)*
X143550000Y-92600000D02*
X148050000Y-92600000D01*
X138287500Y-97862500D02*
X143550000Y-92600000D01*
X148050000Y-92600000D02*
X149550000Y-91100000D01*
X137400000Y-58900000D02*
X141300000Y-58900000D01*
X115020000Y-61380000D02*
X117020000Y-61380000D01*
X141299990Y-58899990D02*
X141600000Y-59200000D01*
X117020000Y-61380000D02*
X119500010Y-58899990D01*
X145000000Y-62600000D02*
X141600000Y-59200000D01*
X141600000Y-59200000D02*
X141300000Y-58900000D01*
X149550000Y-67259998D02*
X141189992Y-58899990D01*
X149550000Y-68200000D02*
X149550000Y-67259998D01*
X141189992Y-58899990D02*
X140700000Y-58899990D01*
X149550000Y-91100000D02*
X149550000Y-68200000D01*
X119500010Y-58899990D02*
X140700000Y-58899990D01*
X140700000Y-58899990D02*
X141299990Y-58899990D01*
G04 #@! TD*
D21*
G04 #@! TO.N,GND*
G36*
X149615001Y-105415000D02*
X147852874Y-105415000D01*
X148368621Y-104899253D01*
X148785000Y-103894025D01*
X148785000Y-102805975D01*
X148368621Y-101800747D01*
X147599253Y-101031379D01*
X146594025Y-100615000D01*
X145505975Y-100615000D01*
X144500747Y-101031379D01*
X143731379Y-101800747D01*
X143315000Y-102805975D01*
X143315000Y-103894025D01*
X143731379Y-104899253D01*
X144247126Y-105415000D01*
X141353232Y-105415000D01*
X141398157Y-105347765D01*
X141447440Y-105100000D01*
X141447440Y-103100000D01*
X141398157Y-102852235D01*
X141257809Y-102642191D01*
X141047765Y-102501843D01*
X140800000Y-102452560D01*
X138800000Y-102452560D01*
X138552235Y-102501843D01*
X138342191Y-102642191D01*
X138201843Y-102852235D01*
X138152560Y-103100000D01*
X138152560Y-105100000D01*
X138201843Y-105347765D01*
X138246768Y-105415000D01*
X133436579Y-105415000D01*
X133654155Y-105197424D01*
X133728048Y-105148050D01*
X133835376Y-104987424D01*
X133923651Y-104855311D01*
X133943665Y-104754691D01*
X133974999Y-104597166D01*
X133974999Y-104597162D01*
X133992336Y-104510001D01*
X133974999Y-104422840D01*
X133974999Y-98738710D01*
X134013720Y-98777431D01*
X134394126Y-98935000D01*
X134805874Y-98935000D01*
X134926585Y-98885000D01*
X136152992Y-98885000D01*
X136250000Y-98904296D01*
X136347008Y-98885000D01*
X136347012Y-98885000D01*
X136634328Y-98827849D01*
X136960145Y-98610145D01*
X137015098Y-98527902D01*
X137317559Y-98225441D01*
X137410069Y-98448780D01*
X137701220Y-98739931D01*
X138081626Y-98897500D01*
X138493374Y-98897500D01*
X138873780Y-98739931D01*
X139164931Y-98448780D01*
X139314931Y-98086647D01*
X143916579Y-93485000D01*
X147962839Y-93485000D01*
X148050000Y-93502337D01*
X148137161Y-93485000D01*
X148137165Y-93485000D01*
X148395310Y-93433652D01*
X148688049Y-93238049D01*
X148737425Y-93164153D01*
X149615001Y-92286578D01*
X149615001Y-105415000D01*
X149615001Y-105415000D01*
G37*
X149615001Y-105415000D02*
X147852874Y-105415000D01*
X148368621Y-104899253D01*
X148785000Y-103894025D01*
X148785000Y-102805975D01*
X148368621Y-101800747D01*
X147599253Y-101031379D01*
X146594025Y-100615000D01*
X145505975Y-100615000D01*
X144500747Y-101031379D01*
X143731379Y-101800747D01*
X143315000Y-102805975D01*
X143315000Y-103894025D01*
X143731379Y-104899253D01*
X144247126Y-105415000D01*
X141353232Y-105415000D01*
X141398157Y-105347765D01*
X141447440Y-105100000D01*
X141447440Y-103100000D01*
X141398157Y-102852235D01*
X141257809Y-102642191D01*
X141047765Y-102501843D01*
X140800000Y-102452560D01*
X138800000Y-102452560D01*
X138552235Y-102501843D01*
X138342191Y-102642191D01*
X138201843Y-102852235D01*
X138152560Y-103100000D01*
X138152560Y-105100000D01*
X138201843Y-105347765D01*
X138246768Y-105415000D01*
X133436579Y-105415000D01*
X133654155Y-105197424D01*
X133728048Y-105148050D01*
X133835376Y-104987424D01*
X133923651Y-104855311D01*
X133943665Y-104754691D01*
X133974999Y-104597166D01*
X133974999Y-104597162D01*
X133992336Y-104510001D01*
X133974999Y-104422840D01*
X133974999Y-98738710D01*
X134013720Y-98777431D01*
X134394126Y-98935000D01*
X134805874Y-98935000D01*
X134926585Y-98885000D01*
X136152992Y-98885000D01*
X136250000Y-98904296D01*
X136347008Y-98885000D01*
X136347012Y-98885000D01*
X136634328Y-98827849D01*
X136960145Y-98610145D01*
X137015098Y-98527902D01*
X137317559Y-98225441D01*
X137410069Y-98448780D01*
X137701220Y-98739931D01*
X138081626Y-98897500D01*
X138493374Y-98897500D01*
X138873780Y-98739931D01*
X139164931Y-98448780D01*
X139314931Y-98086647D01*
X143916579Y-93485000D01*
X147962839Y-93485000D01*
X148050000Y-93502337D01*
X148137161Y-93485000D01*
X148137165Y-93485000D01*
X148395310Y-93433652D01*
X148688049Y-93238049D01*
X148737425Y-93164153D01*
X149615001Y-92286578D01*
X149615001Y-105415000D01*
G36*
X80201843Y-57352235D02*
X80152560Y-57600000D01*
X80152560Y-59600000D01*
X80201843Y-59847765D01*
X80342191Y-60057809D01*
X80552235Y-60198157D01*
X80800000Y-60247440D01*
X82800000Y-60247440D01*
X83047765Y-60198157D01*
X83257809Y-60057809D01*
X83398157Y-59847765D01*
X83447440Y-59600000D01*
X83447440Y-57600000D01*
X83398157Y-57352235D01*
X83353232Y-57285000D01*
X84747126Y-57285000D01*
X84481379Y-57550747D01*
X84065000Y-58555975D01*
X84065000Y-59644025D01*
X84481379Y-60649253D01*
X85250747Y-61418621D01*
X86255975Y-61835000D01*
X87344025Y-61835000D01*
X88349253Y-61418621D01*
X89118621Y-60649253D01*
X89428971Y-59900000D01*
X91345908Y-59900000D01*
X91461161Y-60479418D01*
X91789375Y-60970625D01*
X92280582Y-61298839D01*
X92713744Y-61385000D01*
X93006256Y-61385000D01*
X93439418Y-61298839D01*
X93930625Y-60970625D01*
X93945096Y-60948967D01*
X94011673Y-61109698D01*
X94190301Y-61288327D01*
X94423690Y-61385000D01*
X95114250Y-61385000D01*
X95273000Y-61226250D01*
X95273000Y-60027000D01*
X95527000Y-60027000D01*
X95527000Y-61226250D01*
X95685750Y-61385000D01*
X96376310Y-61385000D01*
X96609699Y-61288327D01*
X96788327Y-61109698D01*
X96885000Y-60876309D01*
X96885000Y-60185750D01*
X96726250Y-60027000D01*
X95527000Y-60027000D01*
X95273000Y-60027000D01*
X95253000Y-60027000D01*
X95253000Y-59773000D01*
X95273000Y-59773000D01*
X95273000Y-58573750D01*
X95527000Y-58573750D01*
X95527000Y-59773000D01*
X96726250Y-59773000D01*
X96885000Y-59614250D01*
X96885000Y-58923691D01*
X96788327Y-58690302D01*
X96609699Y-58511673D01*
X96376310Y-58415000D01*
X95685750Y-58415000D01*
X95527000Y-58573750D01*
X95273000Y-58573750D01*
X95114250Y-58415000D01*
X94423690Y-58415000D01*
X94190301Y-58511673D01*
X94011673Y-58690302D01*
X93945096Y-58851033D01*
X93930625Y-58829375D01*
X93439418Y-58501161D01*
X93006256Y-58415000D01*
X92713744Y-58415000D01*
X92280582Y-58501161D01*
X91789375Y-58829375D01*
X91461161Y-59320582D01*
X91345908Y-59900000D01*
X89428971Y-59900000D01*
X89535000Y-59644025D01*
X89535000Y-58555975D01*
X89118621Y-57550747D01*
X88852874Y-57285000D01*
X115657189Y-57285000D01*
X115657189Y-58115811D01*
X115666919Y-58164562D01*
X115694502Y-58205729D01*
X115735739Y-58233206D01*
X115784352Y-58242811D01*
X118896566Y-58238819D01*
X118861961Y-58261941D01*
X118812587Y-58335834D01*
X116653422Y-60495000D01*
X115588007Y-60495000D01*
X115225874Y-60345000D01*
X114814126Y-60345000D01*
X114433720Y-60502569D01*
X114142569Y-60793720D01*
X113985000Y-61174126D01*
X113985000Y-61585874D01*
X114059196Y-61765000D01*
X98837159Y-61765000D01*
X98749999Y-61747663D01*
X98662839Y-61765000D01*
X98662835Y-61765000D01*
X98404690Y-61816348D01*
X98296880Y-61888385D01*
X98185845Y-61962576D01*
X98185844Y-61962577D01*
X98111951Y-62011951D01*
X98062577Y-62085844D01*
X94035846Y-66112576D01*
X93743422Y-66405000D01*
X91070507Y-66405000D01*
X90708374Y-66255000D01*
X90296626Y-66255000D01*
X89916220Y-66412569D01*
X89625069Y-66703720D01*
X89467500Y-67084126D01*
X89467500Y-67495874D01*
X89625069Y-67876280D01*
X89916220Y-68167431D01*
X90296626Y-68325000D01*
X90708374Y-68325000D01*
X91070507Y-68175000D01*
X94022839Y-68175000D01*
X94110000Y-68192337D01*
X94197161Y-68175000D01*
X94197165Y-68175000D01*
X94292356Y-68156065D01*
X93313422Y-69135000D01*
X90800507Y-69135000D01*
X90438374Y-68985000D01*
X90026626Y-68985000D01*
X89646220Y-69142569D01*
X89355069Y-69433720D01*
X89197500Y-69814126D01*
X89197500Y-70225874D01*
X89355069Y-70606280D01*
X89646220Y-70897431D01*
X90026626Y-71055000D01*
X90438374Y-71055000D01*
X90800507Y-70905000D01*
X93592839Y-70905000D01*
X93680000Y-70922337D01*
X93767161Y-70905000D01*
X93767165Y-70905000D01*
X93862357Y-70886065D01*
X93073422Y-71675000D01*
X90340507Y-71675000D01*
X89978374Y-71525000D01*
X89566626Y-71525000D01*
X89186220Y-71682569D01*
X88895069Y-71973720D01*
X88737500Y-72354126D01*
X88737500Y-72765874D01*
X88895069Y-73146280D01*
X89186220Y-73437431D01*
X89566626Y-73595000D01*
X89978374Y-73595000D01*
X90340507Y-73445000D01*
X93352839Y-73445000D01*
X93440000Y-73462337D01*
X93527161Y-73445000D01*
X93527165Y-73445000D01*
X93785310Y-73393652D01*
X94078049Y-73198049D01*
X94127425Y-73124153D01*
X99906579Y-67345000D01*
X109871993Y-67345000D01*
X110035638Y-67412784D01*
X107375845Y-70072577D01*
X107301952Y-70121951D01*
X107252578Y-70195844D01*
X107252576Y-70195846D01*
X107106348Y-70414691D01*
X107037663Y-70760000D01*
X107055001Y-70847165D01*
X107055000Y-74691993D01*
X106905000Y-75054126D01*
X106905000Y-75465874D01*
X107062569Y-75846280D01*
X107353720Y-76137431D01*
X107734126Y-76295000D01*
X108145874Y-76295000D01*
X108526280Y-76137431D01*
X108817431Y-75846280D01*
X108975000Y-75465874D01*
X108975000Y-75054126D01*
X108825000Y-74691993D01*
X108825000Y-71126578D01*
X113866579Y-66085000D01*
X114431993Y-66085000D01*
X114794126Y-66235000D01*
X115205874Y-66235000D01*
X115586280Y-66077431D01*
X115877431Y-65786280D01*
X116035000Y-65405874D01*
X116035000Y-64994126D01*
X115877431Y-64613720D01*
X115813711Y-64550000D01*
X115857431Y-64506280D01*
X116015000Y-64125874D01*
X116015000Y-63714126D01*
X115857431Y-63333720D01*
X115843711Y-63320000D01*
X115927431Y-63236280D01*
X116085000Y-62855874D01*
X116085000Y-62444126D01*
X116010804Y-62265000D01*
X116932839Y-62265000D01*
X117020000Y-62282337D01*
X117107161Y-62265000D01*
X117107165Y-62265000D01*
X117365310Y-62213652D01*
X117658049Y-62018049D01*
X117707425Y-61944153D01*
X119866589Y-59784990D01*
X137312785Y-59784990D01*
X137312835Y-59785000D01*
X140823424Y-59785000D01*
X146560983Y-65522560D01*
X145950000Y-65522560D01*
X145702235Y-65571843D01*
X145492191Y-65712191D01*
X145351843Y-65922235D01*
X145302560Y-66170000D01*
X145302560Y-67870000D01*
X145351843Y-68117765D01*
X145492191Y-68327809D01*
X145702235Y-68468157D01*
X145805708Y-68488739D01*
X145528355Y-68793076D01*
X145358524Y-69203110D01*
X145479845Y-69433000D01*
X146673000Y-69433000D01*
X146673000Y-69413000D01*
X146927000Y-69413000D01*
X146927000Y-69433000D01*
X148120155Y-69433000D01*
X148241476Y-69203110D01*
X148071645Y-68793076D01*
X147794292Y-68488739D01*
X147897765Y-68468157D01*
X148107809Y-68327809D01*
X148248157Y-68117765D01*
X148297440Y-67870000D01*
X148297440Y-67259017D01*
X148665001Y-67626578D01*
X148665000Y-68287164D01*
X148665001Y-68287169D01*
X148665001Y-71379732D01*
X148495310Y-71266348D01*
X148237165Y-71215000D01*
X148237161Y-71215000D01*
X148150000Y-71197663D01*
X148062839Y-71215000D01*
X147994656Y-71215000D01*
X147870625Y-71029375D01*
X147551522Y-70816157D01*
X147681358Y-70755183D01*
X148071645Y-70326924D01*
X148241476Y-69916890D01*
X148120155Y-69687000D01*
X146927000Y-69687000D01*
X146927000Y-69707000D01*
X146673000Y-69707000D01*
X146673000Y-69687000D01*
X145479845Y-69687000D01*
X145358524Y-69916890D01*
X145528355Y-70326924D01*
X145918642Y-70755183D01*
X146048478Y-70816157D01*
X145729375Y-71029375D01*
X145401161Y-71520582D01*
X145303978Y-72009154D01*
X145198839Y-71480582D01*
X144870625Y-70989375D01*
X144572239Y-70790000D01*
X144870625Y-70590625D01*
X145198839Y-70099418D01*
X145314092Y-69520000D01*
X145198839Y-68940582D01*
X144870625Y-68449375D01*
X144379418Y-68121161D01*
X143946256Y-68035000D01*
X143653744Y-68035000D01*
X143220582Y-68121161D01*
X142729375Y-68449375D01*
X142605344Y-68635000D01*
X142086579Y-68635000D01*
X139262578Y-65811000D01*
X140282025Y-65811000D01*
X141287253Y-65394621D01*
X142056621Y-64625253D01*
X142473000Y-63620025D01*
X142473000Y-62531975D01*
X142056621Y-61526747D01*
X141287253Y-60757379D01*
X140282025Y-60341000D01*
X139193975Y-60341000D01*
X138188747Y-60757379D01*
X137615000Y-61331126D01*
X137615000Y-61174126D01*
X137457431Y-60793720D01*
X137166280Y-60502569D01*
X136785874Y-60345000D01*
X136374126Y-60345000D01*
X136011993Y-60495000D01*
X132107159Y-60495000D01*
X132019999Y-60477663D01*
X131932840Y-60495000D01*
X131932835Y-60495000D01*
X131832288Y-60515000D01*
X124787161Y-60515000D01*
X124700000Y-60497663D01*
X124612839Y-60515000D01*
X124612835Y-60515000D01*
X124354690Y-60566348D01*
X124135845Y-60712576D01*
X124135844Y-60712577D01*
X124061951Y-60761951D01*
X124012577Y-60835844D01*
X115185000Y-69663422D01*
X115185000Y-68826578D01*
X115254148Y-68757431D01*
X115616280Y-68607431D01*
X115907431Y-68316280D01*
X116065000Y-67935874D01*
X116065000Y-67524126D01*
X115907431Y-67143720D01*
X115616280Y-66852569D01*
X115235874Y-66695000D01*
X114824126Y-66695000D01*
X114443720Y-66852569D01*
X114152569Y-67143720D01*
X114002569Y-67505852D01*
X113735847Y-67772575D01*
X113661951Y-67821951D01*
X113531578Y-68017068D01*
X113405874Y-67965000D01*
X112994126Y-67965000D01*
X112613720Y-68122569D01*
X112322569Y-68413720D01*
X112172569Y-68775852D01*
X109915845Y-71032577D01*
X109841952Y-71081951D01*
X109792578Y-71155844D01*
X109792576Y-71155846D01*
X109646348Y-71374691D01*
X109577663Y-71720000D01*
X109595001Y-71807165D01*
X109595000Y-80731993D01*
X109445000Y-81094126D01*
X109445000Y-81505874D01*
X109602569Y-81886280D01*
X109893720Y-82177431D01*
X110274126Y-82335000D01*
X110604625Y-82335000D01*
X110666348Y-82645309D01*
X110812576Y-82864154D01*
X110812578Y-82864156D01*
X110861952Y-82938049D01*
X110935845Y-82987423D01*
X114715001Y-86766580D01*
X114715000Y-91331993D01*
X114565000Y-91694126D01*
X114565000Y-92105874D01*
X114722569Y-92486280D01*
X115013720Y-92777431D01*
X115394126Y-92935000D01*
X115805874Y-92935000D01*
X116186280Y-92777431D01*
X116477431Y-92486280D01*
X116635000Y-92105874D01*
X116635000Y-91694126D01*
X116485000Y-91331993D01*
X116485000Y-86487161D01*
X116502337Y-86400000D01*
X116485000Y-86312839D01*
X116485000Y-86312835D01*
X116433652Y-86054690D01*
X116388706Y-85987424D01*
X116287424Y-85835845D01*
X116287423Y-85835844D01*
X116238049Y-85761951D01*
X116164156Y-85712577D01*
X112385000Y-81933422D01*
X112385000Y-78636578D01*
X113015000Y-79266579D01*
X113015001Y-82012835D01*
X112997663Y-82100000D01*
X113066348Y-82445309D01*
X113212576Y-82664154D01*
X113212578Y-82664156D01*
X113261952Y-82738049D01*
X113335845Y-82787423D01*
X116412577Y-85864156D01*
X116461951Y-85938049D01*
X116535844Y-85987423D01*
X116535845Y-85987424D01*
X116633762Y-86052850D01*
X116754690Y-86133652D01*
X117012835Y-86185000D01*
X117012839Y-86185000D01*
X117099999Y-86202337D01*
X117187159Y-86185000D01*
X121065000Y-86185000D01*
X121065000Y-86405874D01*
X121222569Y-86786280D01*
X121513720Y-87077431D01*
X121875853Y-87227431D01*
X123412577Y-88764156D01*
X123461951Y-88838049D01*
X123535844Y-88887423D01*
X123535845Y-88887424D01*
X123539485Y-88889856D01*
X123754690Y-89033652D01*
X124012835Y-89085000D01*
X124012839Y-89085000D01*
X124099999Y-89102337D01*
X124187159Y-89085000D01*
X128173422Y-89085000D01*
X131360000Y-92271579D01*
X131360000Y-97602560D01*
X129950000Y-97602560D01*
X129702235Y-97651843D01*
X129492191Y-97792191D01*
X129351843Y-98002235D01*
X129331261Y-98105708D01*
X129026924Y-97828355D01*
X128616890Y-97658524D01*
X128387000Y-97779845D01*
X128387000Y-98973000D01*
X128407000Y-98973000D01*
X128407000Y-99227000D01*
X128387000Y-99227000D01*
X128387000Y-99247000D01*
X128133000Y-99247000D01*
X128133000Y-99227000D01*
X128113000Y-99227000D01*
X128113000Y-98973000D01*
X128133000Y-98973000D01*
X128133000Y-97779845D01*
X127903110Y-97658524D01*
X127493076Y-97828355D01*
X127064817Y-98218642D01*
X127003843Y-98348478D01*
X126790625Y-98029375D01*
X126299418Y-97701161D01*
X125866256Y-97615000D01*
X125573744Y-97615000D01*
X125140582Y-97701161D01*
X124649375Y-98029375D01*
X124450000Y-98327761D01*
X124250625Y-98029375D01*
X123759418Y-97701161D01*
X123326256Y-97615000D01*
X123033744Y-97615000D01*
X122600582Y-97701161D01*
X122109375Y-98029375D01*
X121910000Y-98327761D01*
X121710625Y-98029375D01*
X121219418Y-97701161D01*
X120786256Y-97615000D01*
X120493744Y-97615000D01*
X120060582Y-97701161D01*
X119569375Y-98029375D01*
X119370000Y-98327761D01*
X119170625Y-98029375D01*
X118679418Y-97701161D01*
X118246256Y-97615000D01*
X117953744Y-97615000D01*
X117520582Y-97701161D01*
X117029375Y-98029375D01*
X116830000Y-98327761D01*
X116630625Y-98029375D01*
X116139418Y-97701161D01*
X115706256Y-97615000D01*
X115413744Y-97615000D01*
X114980582Y-97701161D01*
X114489375Y-98029375D01*
X114290000Y-98327761D01*
X114090625Y-98029375D01*
X113599418Y-97701161D01*
X113166256Y-97615000D01*
X112873744Y-97615000D01*
X112440582Y-97701161D01*
X111949375Y-98029375D01*
X111750000Y-98327761D01*
X111550625Y-98029375D01*
X111059418Y-97701161D01*
X110626256Y-97615000D01*
X110333744Y-97615000D01*
X109900582Y-97701161D01*
X109409375Y-98029375D01*
X109210000Y-98327761D01*
X109010625Y-98029375D01*
X108519418Y-97701161D01*
X108086256Y-97615000D01*
X107793744Y-97615000D01*
X107360582Y-97701161D01*
X106869375Y-98029375D01*
X106541161Y-98520582D01*
X106425908Y-99100000D01*
X106541161Y-99679418D01*
X106621864Y-99800199D01*
X106357145Y-99852855D01*
X106076476Y-100040392D01*
X103781552Y-102335316D01*
X103738839Y-102120582D01*
X103410625Y-101629375D01*
X102919418Y-101301161D01*
X102486256Y-101215000D01*
X102193744Y-101215000D01*
X101760582Y-101301161D01*
X101269375Y-101629375D01*
X101070000Y-101927761D01*
X100870625Y-101629375D01*
X100379418Y-101301161D01*
X99946256Y-101215000D01*
X99653744Y-101215000D01*
X99220582Y-101301161D01*
X98729375Y-101629375D01*
X98717184Y-101647619D01*
X98708157Y-101602235D01*
X98567809Y-101392191D01*
X98357765Y-101251843D01*
X98240117Y-101228442D01*
X98187849Y-100965672D01*
X97970145Y-100639855D01*
X97644328Y-100422151D01*
X97568683Y-100407104D01*
X96585000Y-99423422D01*
X96585000Y-98929981D01*
X96779379Y-99399253D01*
X97548747Y-100168621D01*
X98553975Y-100585000D01*
X99642025Y-100585000D01*
X100647253Y-100168621D01*
X101416621Y-99399253D01*
X101833000Y-98394025D01*
X101833000Y-97305975D01*
X101416621Y-96300747D01*
X100647253Y-95531379D01*
X99642025Y-95115000D01*
X98553975Y-95115000D01*
X97548747Y-95531379D01*
X96779379Y-96300747D01*
X96585000Y-96770019D01*
X96585000Y-93458728D01*
X97324148Y-92719581D01*
X97686280Y-92569581D01*
X97977431Y-92278430D01*
X98135000Y-91898024D01*
X98135000Y-91486276D01*
X97977431Y-91105870D01*
X97686280Y-90814719D01*
X97439202Y-90712376D01*
X101464156Y-86687423D01*
X101538049Y-86638049D01*
X101600017Y-86545309D01*
X101733652Y-86345310D01*
X101762091Y-86202337D01*
X101785000Y-86087165D01*
X101785000Y-86087161D01*
X101802337Y-86000000D01*
X101785000Y-85912839D01*
X101785000Y-83268007D01*
X101935000Y-82905874D01*
X101935000Y-82494126D01*
X101777431Y-82113720D01*
X101486280Y-81822569D01*
X101105874Y-81665000D01*
X100694126Y-81665000D01*
X100313720Y-81822569D01*
X100022569Y-82113720D01*
X99865000Y-82494126D01*
X99865000Y-82905874D01*
X100015000Y-83268007D01*
X100015001Y-85633420D01*
X94235847Y-91412575D01*
X94161951Y-91461951D01*
X93966348Y-91754691D01*
X93915000Y-92012836D01*
X93915000Y-92012839D01*
X93897663Y-92100000D01*
X93915000Y-92187161D01*
X93915001Y-96663359D01*
X93897765Y-96651843D01*
X93785000Y-96629413D01*
X93785000Y-87966578D01*
X100211929Y-81539650D01*
X104731993Y-81539650D01*
X105094126Y-81689650D01*
X105505874Y-81689650D01*
X105886280Y-81532081D01*
X106177431Y-81240930D01*
X106335000Y-80860524D01*
X106335000Y-80448776D01*
X106177431Y-80068370D01*
X105886280Y-79777219D01*
X105505874Y-79619650D01*
X105094126Y-79619650D01*
X104731993Y-79769650D01*
X99932511Y-79769650D01*
X99845350Y-79752313D01*
X99758189Y-79769650D01*
X99758185Y-79769650D01*
X99523910Y-79816250D01*
X99500040Y-79820998D01*
X99281195Y-79967226D01*
X99281194Y-79967227D01*
X99207301Y-80016601D01*
X99157927Y-80090494D01*
X92491318Y-86757104D01*
X92415673Y-86772151D01*
X92089856Y-86989855D01*
X91872152Y-87315672D01*
X91815001Y-87602988D01*
X91815000Y-96629413D01*
X91702235Y-96651843D01*
X91492191Y-96792191D01*
X91435000Y-96877783D01*
X91435000Y-85090131D01*
X91998049Y-84527082D01*
X92022569Y-84586280D01*
X92313720Y-84877431D01*
X92694126Y-85035000D01*
X93105874Y-85035000D01*
X93486280Y-84877431D01*
X93777431Y-84586280D01*
X93911579Y-84262418D01*
X93948048Y-84238050D01*
X93997424Y-84164154D01*
X100664156Y-77497422D01*
X100738049Y-77448049D01*
X100933652Y-77155310D01*
X100985000Y-76897165D01*
X100985000Y-76897161D01*
X101002337Y-76810000D01*
X100985000Y-76722839D01*
X100985000Y-75668007D01*
X101135000Y-75305874D01*
X101135000Y-74894126D01*
X100977431Y-74513720D01*
X100686280Y-74222569D01*
X100305874Y-74065000D01*
X99935000Y-74065000D01*
X99935000Y-69988217D01*
X99869146Y-69657145D01*
X99618289Y-69281711D01*
X99242855Y-69030854D01*
X98800000Y-68942765D01*
X98357146Y-69030854D01*
X97981712Y-69281711D01*
X97730855Y-69657145D01*
X97665001Y-69988217D01*
X97665000Y-74688217D01*
X97665000Y-75649868D01*
X89576482Y-83738387D01*
X89481711Y-83801711D01*
X89294560Y-84081804D01*
X89198839Y-83600582D01*
X88870625Y-83109375D01*
X88572239Y-82910000D01*
X88870625Y-82710625D01*
X89198839Y-82219418D01*
X89314092Y-81640000D01*
X89198839Y-81060582D01*
X88870625Y-80569375D01*
X88852381Y-80557184D01*
X88897765Y-80548157D01*
X89107809Y-80407809D01*
X89248157Y-80197765D01*
X89297440Y-79950000D01*
X89297440Y-78250000D01*
X89248157Y-78002235D01*
X89107809Y-77792191D01*
X88897765Y-77651843D01*
X88650000Y-77602560D01*
X86950000Y-77602560D01*
X86702235Y-77651843D01*
X86492191Y-77792191D01*
X86351843Y-78002235D01*
X86307326Y-78226041D01*
X86115720Y-78264154D01*
X86104690Y-78266348D01*
X85885845Y-78412576D01*
X85885844Y-78412577D01*
X85811951Y-78461951D01*
X85762577Y-78535844D01*
X85697440Y-78600981D01*
X85697440Y-78250000D01*
X85648157Y-78002235D01*
X85507809Y-77792191D01*
X85297765Y-77651843D01*
X85050000Y-77602560D01*
X83350000Y-77602560D01*
X83102235Y-77651843D01*
X82892191Y-77792191D01*
X82751843Y-78002235D01*
X82702560Y-78250000D01*
X82702560Y-79950000D01*
X82751843Y-80197765D01*
X82892191Y-80407809D01*
X83102235Y-80548157D01*
X83147619Y-80557184D01*
X83129375Y-80569375D01*
X82801161Y-81060582D01*
X82685908Y-81640000D01*
X82801161Y-82219418D01*
X83129375Y-82710625D01*
X83427761Y-82910000D01*
X83129375Y-83109375D01*
X82801161Y-83600582D01*
X82685908Y-84180000D01*
X82801161Y-84759418D01*
X83129375Y-85250625D01*
X83427761Y-85450000D01*
X83129375Y-85649375D01*
X82801161Y-86140582D01*
X82685908Y-86720000D01*
X82801161Y-87299418D01*
X83129375Y-87790625D01*
X83448478Y-88003843D01*
X83318642Y-88064817D01*
X82928355Y-88493076D01*
X82758524Y-88903110D01*
X82879845Y-89133000D01*
X84073000Y-89133000D01*
X84073000Y-89113000D01*
X84327000Y-89113000D01*
X84327000Y-89133000D01*
X85520155Y-89133000D01*
X85641476Y-88903110D01*
X85471645Y-88493076D01*
X85081358Y-88064817D01*
X84951522Y-88003843D01*
X85270625Y-87790625D01*
X85598839Y-87299418D01*
X85714092Y-86720000D01*
X85670538Y-86501040D01*
X86364156Y-85807423D01*
X86438049Y-85758049D01*
X86566835Y-85565309D01*
X86633652Y-85465310D01*
X86648167Y-85392336D01*
X86685000Y-85207165D01*
X86685000Y-85207161D01*
X86688517Y-85189477D01*
X86729375Y-85250625D01*
X87027761Y-85450000D01*
X86729375Y-85649375D01*
X86401161Y-86140582D01*
X86285908Y-86720000D01*
X86401161Y-87299418D01*
X86729375Y-87790625D01*
X87027761Y-87990000D01*
X86729375Y-88189375D01*
X86401161Y-88680582D01*
X86285908Y-89260000D01*
X86401161Y-89839418D01*
X86729375Y-90330625D01*
X87048478Y-90543843D01*
X86918642Y-90604817D01*
X86528355Y-91033076D01*
X86358524Y-91443110D01*
X86479845Y-91673000D01*
X87673000Y-91673000D01*
X87673000Y-91653000D01*
X87927000Y-91653000D01*
X87927000Y-91673000D01*
X87947000Y-91673000D01*
X87947000Y-91927000D01*
X87927000Y-91927000D01*
X87927000Y-91947000D01*
X87673000Y-91947000D01*
X87673000Y-91927000D01*
X86479845Y-91927000D01*
X86358524Y-92156890D01*
X86528355Y-92566924D01*
X86918642Y-92995183D01*
X87048478Y-93056157D01*
X86729375Y-93269375D01*
X86401161Y-93760582D01*
X86285908Y-94340000D01*
X86401161Y-94919418D01*
X86729375Y-95410625D01*
X87220582Y-95738839D01*
X87653744Y-95825000D01*
X87946256Y-95825000D01*
X88379418Y-95738839D01*
X88774281Y-95475000D01*
X89165001Y-95475000D01*
X89165001Y-96688213D01*
X89165000Y-96688218D01*
X89165001Y-101912718D01*
X89118621Y-101800747D01*
X88349253Y-101031379D01*
X87344025Y-100615000D01*
X86255975Y-100615000D01*
X85250747Y-101031379D01*
X84481379Y-101800747D01*
X84065000Y-102805975D01*
X84065000Y-103894025D01*
X84481379Y-104899253D01*
X84997126Y-105415000D01*
X83353232Y-105415000D01*
X83398157Y-105347765D01*
X83447440Y-105100000D01*
X83447440Y-103100000D01*
X83398157Y-102852235D01*
X83257809Y-102642191D01*
X83047765Y-102501843D01*
X82800000Y-102452560D01*
X80800000Y-102452560D01*
X80552235Y-102501843D01*
X80342191Y-102642191D01*
X80201843Y-102852235D01*
X80152560Y-103100000D01*
X80152560Y-105100000D01*
X80201843Y-105347765D01*
X80246768Y-105415000D01*
X80125816Y-105415000D01*
X80098256Y-91800000D01*
X82685908Y-91800000D01*
X82801161Y-92379418D01*
X83129375Y-92870625D01*
X83620582Y-93198839D01*
X84053744Y-93285000D01*
X84346256Y-93285000D01*
X84779418Y-93198839D01*
X85270625Y-92870625D01*
X85598839Y-92379418D01*
X85714092Y-91800000D01*
X85598839Y-91220582D01*
X85270625Y-90729375D01*
X84951522Y-90516157D01*
X85081358Y-90455183D01*
X85471645Y-90026924D01*
X85641476Y-89616890D01*
X85520155Y-89387000D01*
X84327000Y-89387000D01*
X84327000Y-89407000D01*
X84073000Y-89407000D01*
X84073000Y-89387000D01*
X82879845Y-89387000D01*
X82758524Y-89616890D01*
X82928355Y-90026924D01*
X83318642Y-90455183D01*
X83448478Y-90516157D01*
X83129375Y-90729375D01*
X82801161Y-91220582D01*
X82685908Y-91800000D01*
X80098256Y-91800000D01*
X80061920Y-73850000D01*
X82602560Y-73850000D01*
X82602560Y-75550000D01*
X82651843Y-75797765D01*
X82792191Y-76007809D01*
X83002235Y-76148157D01*
X83250000Y-76197440D01*
X84950000Y-76197440D01*
X85197765Y-76148157D01*
X85407809Y-76007809D01*
X85548157Y-75797765D01*
X85597440Y-75550000D01*
X85597440Y-73850000D01*
X85548157Y-73602235D01*
X85407809Y-73392191D01*
X85197765Y-73251843D01*
X85094292Y-73231261D01*
X85371645Y-72926924D01*
X85541476Y-72516890D01*
X85420155Y-72287000D01*
X84227000Y-72287000D01*
X84227000Y-72307000D01*
X83973000Y-72307000D01*
X83973000Y-72287000D01*
X82779845Y-72287000D01*
X82658524Y-72516890D01*
X82828355Y-72926924D01*
X83105708Y-73231261D01*
X83002235Y-73251843D01*
X82792191Y-73392191D01*
X82651843Y-73602235D01*
X82602560Y-73850000D01*
X80061920Y-73850000D01*
X80043074Y-64540000D01*
X82585908Y-64540000D01*
X82701161Y-65119418D01*
X83029375Y-65610625D01*
X83327761Y-65810000D01*
X83029375Y-66009375D01*
X82701161Y-66500582D01*
X82585908Y-67080000D01*
X82701161Y-67659418D01*
X83029375Y-68150625D01*
X83327761Y-68350000D01*
X83029375Y-68549375D01*
X82701161Y-69040582D01*
X82585908Y-69620000D01*
X82701161Y-70199418D01*
X83029375Y-70690625D01*
X83348478Y-70903843D01*
X83218642Y-70964817D01*
X82828355Y-71393076D01*
X82658524Y-71803110D01*
X82779845Y-72033000D01*
X83973000Y-72033000D01*
X83973000Y-72013000D01*
X84227000Y-72013000D01*
X84227000Y-72033000D01*
X85420155Y-72033000D01*
X85541476Y-71803110D01*
X85371645Y-71393076D01*
X84981358Y-70964817D01*
X84851522Y-70903843D01*
X85170625Y-70690625D01*
X85498839Y-70199418D01*
X85614092Y-69620000D01*
X85498839Y-69040582D01*
X85170625Y-68549375D01*
X84872239Y-68350000D01*
X85170625Y-68150625D01*
X85498839Y-67659418D01*
X85614092Y-67080000D01*
X85498839Y-66500582D01*
X85170625Y-66009375D01*
X84872239Y-65810000D01*
X85170625Y-65610625D01*
X85498839Y-65119418D01*
X85614092Y-64540000D01*
X85498839Y-63960582D01*
X85170625Y-63469375D01*
X84679418Y-63141161D01*
X84246256Y-63055000D01*
X83953744Y-63055000D01*
X83520582Y-63141161D01*
X83029375Y-63469375D01*
X82701161Y-63960582D01*
X82585908Y-64540000D01*
X80043074Y-64540000D01*
X80028387Y-57285000D01*
X80246768Y-57285000D01*
X80201843Y-57352235D01*
X80201843Y-57352235D01*
G37*
X80201843Y-57352235D02*
X80152560Y-57600000D01*
X80152560Y-59600000D01*
X80201843Y-59847765D01*
X80342191Y-60057809D01*
X80552235Y-60198157D01*
X80800000Y-60247440D01*
X82800000Y-60247440D01*
X83047765Y-60198157D01*
X83257809Y-60057809D01*
X83398157Y-59847765D01*
X83447440Y-59600000D01*
X83447440Y-57600000D01*
X83398157Y-57352235D01*
X83353232Y-57285000D01*
X84747126Y-57285000D01*
X84481379Y-57550747D01*
X84065000Y-58555975D01*
X84065000Y-59644025D01*
X84481379Y-60649253D01*
X85250747Y-61418621D01*
X86255975Y-61835000D01*
X87344025Y-61835000D01*
X88349253Y-61418621D01*
X89118621Y-60649253D01*
X89428971Y-59900000D01*
X91345908Y-59900000D01*
X91461161Y-60479418D01*
X91789375Y-60970625D01*
X92280582Y-61298839D01*
X92713744Y-61385000D01*
X93006256Y-61385000D01*
X93439418Y-61298839D01*
X93930625Y-60970625D01*
X93945096Y-60948967D01*
X94011673Y-61109698D01*
X94190301Y-61288327D01*
X94423690Y-61385000D01*
X95114250Y-61385000D01*
X95273000Y-61226250D01*
X95273000Y-60027000D01*
X95527000Y-60027000D01*
X95527000Y-61226250D01*
X95685750Y-61385000D01*
X96376310Y-61385000D01*
X96609699Y-61288327D01*
X96788327Y-61109698D01*
X96885000Y-60876309D01*
X96885000Y-60185750D01*
X96726250Y-60027000D01*
X95527000Y-60027000D01*
X95273000Y-60027000D01*
X95253000Y-60027000D01*
X95253000Y-59773000D01*
X95273000Y-59773000D01*
X95273000Y-58573750D01*
X95527000Y-58573750D01*
X95527000Y-59773000D01*
X96726250Y-59773000D01*
X96885000Y-59614250D01*
X96885000Y-58923691D01*
X96788327Y-58690302D01*
X96609699Y-58511673D01*
X96376310Y-58415000D01*
X95685750Y-58415000D01*
X95527000Y-58573750D01*
X95273000Y-58573750D01*
X95114250Y-58415000D01*
X94423690Y-58415000D01*
X94190301Y-58511673D01*
X94011673Y-58690302D01*
X93945096Y-58851033D01*
X93930625Y-58829375D01*
X93439418Y-58501161D01*
X93006256Y-58415000D01*
X92713744Y-58415000D01*
X92280582Y-58501161D01*
X91789375Y-58829375D01*
X91461161Y-59320582D01*
X91345908Y-59900000D01*
X89428971Y-59900000D01*
X89535000Y-59644025D01*
X89535000Y-58555975D01*
X89118621Y-57550747D01*
X88852874Y-57285000D01*
X115657189Y-57285000D01*
X115657189Y-58115811D01*
X115666919Y-58164562D01*
X115694502Y-58205729D01*
X115735739Y-58233206D01*
X115784352Y-58242811D01*
X118896566Y-58238819D01*
X118861961Y-58261941D01*
X118812587Y-58335834D01*
X116653422Y-60495000D01*
X115588007Y-60495000D01*
X115225874Y-60345000D01*
X114814126Y-60345000D01*
X114433720Y-60502569D01*
X114142569Y-60793720D01*
X113985000Y-61174126D01*
X113985000Y-61585874D01*
X114059196Y-61765000D01*
X98837159Y-61765000D01*
X98749999Y-61747663D01*
X98662839Y-61765000D01*
X98662835Y-61765000D01*
X98404690Y-61816348D01*
X98296880Y-61888385D01*
X98185845Y-61962576D01*
X98185844Y-61962577D01*
X98111951Y-62011951D01*
X98062577Y-62085844D01*
X94035846Y-66112576D01*
X93743422Y-66405000D01*
X91070507Y-66405000D01*
X90708374Y-66255000D01*
X90296626Y-66255000D01*
X89916220Y-66412569D01*
X89625069Y-66703720D01*
X89467500Y-67084126D01*
X89467500Y-67495874D01*
X89625069Y-67876280D01*
X89916220Y-68167431D01*
X90296626Y-68325000D01*
X90708374Y-68325000D01*
X91070507Y-68175000D01*
X94022839Y-68175000D01*
X94110000Y-68192337D01*
X94197161Y-68175000D01*
X94197165Y-68175000D01*
X94292356Y-68156065D01*
X93313422Y-69135000D01*
X90800507Y-69135000D01*
X90438374Y-68985000D01*
X90026626Y-68985000D01*
X89646220Y-69142569D01*
X89355069Y-69433720D01*
X89197500Y-69814126D01*
X89197500Y-70225874D01*
X89355069Y-70606280D01*
X89646220Y-70897431D01*
X90026626Y-71055000D01*
X90438374Y-71055000D01*
X90800507Y-70905000D01*
X93592839Y-70905000D01*
X93680000Y-70922337D01*
X93767161Y-70905000D01*
X93767165Y-70905000D01*
X93862357Y-70886065D01*
X93073422Y-71675000D01*
X90340507Y-71675000D01*
X89978374Y-71525000D01*
X89566626Y-71525000D01*
X89186220Y-71682569D01*
X88895069Y-71973720D01*
X88737500Y-72354126D01*
X88737500Y-72765874D01*
X88895069Y-73146280D01*
X89186220Y-73437431D01*
X89566626Y-73595000D01*
X89978374Y-73595000D01*
X90340507Y-73445000D01*
X93352839Y-73445000D01*
X93440000Y-73462337D01*
X93527161Y-73445000D01*
X93527165Y-73445000D01*
X93785310Y-73393652D01*
X94078049Y-73198049D01*
X94127425Y-73124153D01*
X99906579Y-67345000D01*
X109871993Y-67345000D01*
X110035638Y-67412784D01*
X107375845Y-70072577D01*
X107301952Y-70121951D01*
X107252578Y-70195844D01*
X107252576Y-70195846D01*
X107106348Y-70414691D01*
X107037663Y-70760000D01*
X107055001Y-70847165D01*
X107055000Y-74691993D01*
X106905000Y-75054126D01*
X106905000Y-75465874D01*
X107062569Y-75846280D01*
X107353720Y-76137431D01*
X107734126Y-76295000D01*
X108145874Y-76295000D01*
X108526280Y-76137431D01*
X108817431Y-75846280D01*
X108975000Y-75465874D01*
X108975000Y-75054126D01*
X108825000Y-74691993D01*
X108825000Y-71126578D01*
X113866579Y-66085000D01*
X114431993Y-66085000D01*
X114794126Y-66235000D01*
X115205874Y-66235000D01*
X115586280Y-66077431D01*
X115877431Y-65786280D01*
X116035000Y-65405874D01*
X116035000Y-64994126D01*
X115877431Y-64613720D01*
X115813711Y-64550000D01*
X115857431Y-64506280D01*
X116015000Y-64125874D01*
X116015000Y-63714126D01*
X115857431Y-63333720D01*
X115843711Y-63320000D01*
X115927431Y-63236280D01*
X116085000Y-62855874D01*
X116085000Y-62444126D01*
X116010804Y-62265000D01*
X116932839Y-62265000D01*
X117020000Y-62282337D01*
X117107161Y-62265000D01*
X117107165Y-62265000D01*
X117365310Y-62213652D01*
X117658049Y-62018049D01*
X117707425Y-61944153D01*
X119866589Y-59784990D01*
X137312785Y-59784990D01*
X137312835Y-59785000D01*
X140823424Y-59785000D01*
X146560983Y-65522560D01*
X145950000Y-65522560D01*
X145702235Y-65571843D01*
X145492191Y-65712191D01*
X145351843Y-65922235D01*
X145302560Y-66170000D01*
X145302560Y-67870000D01*
X145351843Y-68117765D01*
X145492191Y-68327809D01*
X145702235Y-68468157D01*
X145805708Y-68488739D01*
X145528355Y-68793076D01*
X145358524Y-69203110D01*
X145479845Y-69433000D01*
X146673000Y-69433000D01*
X146673000Y-69413000D01*
X146927000Y-69413000D01*
X146927000Y-69433000D01*
X148120155Y-69433000D01*
X148241476Y-69203110D01*
X148071645Y-68793076D01*
X147794292Y-68488739D01*
X147897765Y-68468157D01*
X148107809Y-68327809D01*
X148248157Y-68117765D01*
X148297440Y-67870000D01*
X148297440Y-67259017D01*
X148665001Y-67626578D01*
X148665000Y-68287164D01*
X148665001Y-68287169D01*
X148665001Y-71379732D01*
X148495310Y-71266348D01*
X148237165Y-71215000D01*
X148237161Y-71215000D01*
X148150000Y-71197663D01*
X148062839Y-71215000D01*
X147994656Y-71215000D01*
X147870625Y-71029375D01*
X147551522Y-70816157D01*
X147681358Y-70755183D01*
X148071645Y-70326924D01*
X148241476Y-69916890D01*
X148120155Y-69687000D01*
X146927000Y-69687000D01*
X146927000Y-69707000D01*
X146673000Y-69707000D01*
X146673000Y-69687000D01*
X145479845Y-69687000D01*
X145358524Y-69916890D01*
X145528355Y-70326924D01*
X145918642Y-70755183D01*
X146048478Y-70816157D01*
X145729375Y-71029375D01*
X145401161Y-71520582D01*
X145303978Y-72009154D01*
X145198839Y-71480582D01*
X144870625Y-70989375D01*
X144572239Y-70790000D01*
X144870625Y-70590625D01*
X145198839Y-70099418D01*
X145314092Y-69520000D01*
X145198839Y-68940582D01*
X144870625Y-68449375D01*
X144379418Y-68121161D01*
X143946256Y-68035000D01*
X143653744Y-68035000D01*
X143220582Y-68121161D01*
X142729375Y-68449375D01*
X142605344Y-68635000D01*
X142086579Y-68635000D01*
X139262578Y-65811000D01*
X140282025Y-65811000D01*
X141287253Y-65394621D01*
X142056621Y-64625253D01*
X142473000Y-63620025D01*
X142473000Y-62531975D01*
X142056621Y-61526747D01*
X141287253Y-60757379D01*
X140282025Y-60341000D01*
X139193975Y-60341000D01*
X138188747Y-60757379D01*
X137615000Y-61331126D01*
X137615000Y-61174126D01*
X137457431Y-60793720D01*
X137166280Y-60502569D01*
X136785874Y-60345000D01*
X136374126Y-60345000D01*
X136011993Y-60495000D01*
X132107159Y-60495000D01*
X132019999Y-60477663D01*
X131932840Y-60495000D01*
X131932835Y-60495000D01*
X131832288Y-60515000D01*
X124787161Y-60515000D01*
X124700000Y-60497663D01*
X124612839Y-60515000D01*
X124612835Y-60515000D01*
X124354690Y-60566348D01*
X124135845Y-60712576D01*
X124135844Y-60712577D01*
X124061951Y-60761951D01*
X124012577Y-60835844D01*
X115185000Y-69663422D01*
X115185000Y-68826578D01*
X115254148Y-68757431D01*
X115616280Y-68607431D01*
X115907431Y-68316280D01*
X116065000Y-67935874D01*
X116065000Y-67524126D01*
X115907431Y-67143720D01*
X115616280Y-66852569D01*
X115235874Y-66695000D01*
X114824126Y-66695000D01*
X114443720Y-66852569D01*
X114152569Y-67143720D01*
X114002569Y-67505852D01*
X113735847Y-67772575D01*
X113661951Y-67821951D01*
X113531578Y-68017068D01*
X113405874Y-67965000D01*
X112994126Y-67965000D01*
X112613720Y-68122569D01*
X112322569Y-68413720D01*
X112172569Y-68775852D01*
X109915845Y-71032577D01*
X109841952Y-71081951D01*
X109792578Y-71155844D01*
X109792576Y-71155846D01*
X109646348Y-71374691D01*
X109577663Y-71720000D01*
X109595001Y-71807165D01*
X109595000Y-80731993D01*
X109445000Y-81094126D01*
X109445000Y-81505874D01*
X109602569Y-81886280D01*
X109893720Y-82177431D01*
X110274126Y-82335000D01*
X110604625Y-82335000D01*
X110666348Y-82645309D01*
X110812576Y-82864154D01*
X110812578Y-82864156D01*
X110861952Y-82938049D01*
X110935845Y-82987423D01*
X114715001Y-86766580D01*
X114715000Y-91331993D01*
X114565000Y-91694126D01*
X114565000Y-92105874D01*
X114722569Y-92486280D01*
X115013720Y-92777431D01*
X115394126Y-92935000D01*
X115805874Y-92935000D01*
X116186280Y-92777431D01*
X116477431Y-92486280D01*
X116635000Y-92105874D01*
X116635000Y-91694126D01*
X116485000Y-91331993D01*
X116485000Y-86487161D01*
X116502337Y-86400000D01*
X116485000Y-86312839D01*
X116485000Y-86312835D01*
X116433652Y-86054690D01*
X116388706Y-85987424D01*
X116287424Y-85835845D01*
X116287423Y-85835844D01*
X116238049Y-85761951D01*
X116164156Y-85712577D01*
X112385000Y-81933422D01*
X112385000Y-78636578D01*
X113015000Y-79266579D01*
X113015001Y-82012835D01*
X112997663Y-82100000D01*
X113066348Y-82445309D01*
X113212576Y-82664154D01*
X113212578Y-82664156D01*
X113261952Y-82738049D01*
X113335845Y-82787423D01*
X116412577Y-85864156D01*
X116461951Y-85938049D01*
X116535844Y-85987423D01*
X116535845Y-85987424D01*
X116633762Y-86052850D01*
X116754690Y-86133652D01*
X117012835Y-86185000D01*
X117012839Y-86185000D01*
X117099999Y-86202337D01*
X117187159Y-86185000D01*
X121065000Y-86185000D01*
X121065000Y-86405874D01*
X121222569Y-86786280D01*
X121513720Y-87077431D01*
X121875853Y-87227431D01*
X123412577Y-88764156D01*
X123461951Y-88838049D01*
X123535844Y-88887423D01*
X123535845Y-88887424D01*
X123539485Y-88889856D01*
X123754690Y-89033652D01*
X124012835Y-89085000D01*
X124012839Y-89085000D01*
X124099999Y-89102337D01*
X124187159Y-89085000D01*
X128173422Y-89085000D01*
X131360000Y-92271579D01*
X131360000Y-97602560D01*
X129950000Y-97602560D01*
X129702235Y-97651843D01*
X129492191Y-97792191D01*
X129351843Y-98002235D01*
X129331261Y-98105708D01*
X129026924Y-97828355D01*
X128616890Y-97658524D01*
X128387000Y-97779845D01*
X128387000Y-98973000D01*
X128407000Y-98973000D01*
X128407000Y-99227000D01*
X128387000Y-99227000D01*
X128387000Y-99247000D01*
X128133000Y-99247000D01*
X128133000Y-99227000D01*
X128113000Y-99227000D01*
X128113000Y-98973000D01*
X128133000Y-98973000D01*
X128133000Y-97779845D01*
X127903110Y-97658524D01*
X127493076Y-97828355D01*
X127064817Y-98218642D01*
X127003843Y-98348478D01*
X126790625Y-98029375D01*
X126299418Y-97701161D01*
X125866256Y-97615000D01*
X125573744Y-97615000D01*
X125140582Y-97701161D01*
X124649375Y-98029375D01*
X124450000Y-98327761D01*
X124250625Y-98029375D01*
X123759418Y-97701161D01*
X123326256Y-97615000D01*
X123033744Y-97615000D01*
X122600582Y-97701161D01*
X122109375Y-98029375D01*
X121910000Y-98327761D01*
X121710625Y-98029375D01*
X121219418Y-97701161D01*
X120786256Y-97615000D01*
X120493744Y-97615000D01*
X120060582Y-97701161D01*
X119569375Y-98029375D01*
X119370000Y-98327761D01*
X119170625Y-98029375D01*
X118679418Y-97701161D01*
X118246256Y-97615000D01*
X117953744Y-97615000D01*
X117520582Y-97701161D01*
X117029375Y-98029375D01*
X116830000Y-98327761D01*
X116630625Y-98029375D01*
X116139418Y-97701161D01*
X115706256Y-97615000D01*
X115413744Y-97615000D01*
X114980582Y-97701161D01*
X114489375Y-98029375D01*
X114290000Y-98327761D01*
X114090625Y-98029375D01*
X113599418Y-97701161D01*
X113166256Y-97615000D01*
X112873744Y-97615000D01*
X112440582Y-97701161D01*
X111949375Y-98029375D01*
X111750000Y-98327761D01*
X111550625Y-98029375D01*
X111059418Y-97701161D01*
X110626256Y-97615000D01*
X110333744Y-97615000D01*
X109900582Y-97701161D01*
X109409375Y-98029375D01*
X109210000Y-98327761D01*
X109010625Y-98029375D01*
X108519418Y-97701161D01*
X108086256Y-97615000D01*
X107793744Y-97615000D01*
X107360582Y-97701161D01*
X106869375Y-98029375D01*
X106541161Y-98520582D01*
X106425908Y-99100000D01*
X106541161Y-99679418D01*
X106621864Y-99800199D01*
X106357145Y-99852855D01*
X106076476Y-100040392D01*
X103781552Y-102335316D01*
X103738839Y-102120582D01*
X103410625Y-101629375D01*
X102919418Y-101301161D01*
X102486256Y-101215000D01*
X102193744Y-101215000D01*
X101760582Y-101301161D01*
X101269375Y-101629375D01*
X101070000Y-101927761D01*
X100870625Y-101629375D01*
X100379418Y-101301161D01*
X99946256Y-101215000D01*
X99653744Y-101215000D01*
X99220582Y-101301161D01*
X98729375Y-101629375D01*
X98717184Y-101647619D01*
X98708157Y-101602235D01*
X98567809Y-101392191D01*
X98357765Y-101251843D01*
X98240117Y-101228442D01*
X98187849Y-100965672D01*
X97970145Y-100639855D01*
X97644328Y-100422151D01*
X97568683Y-100407104D01*
X96585000Y-99423422D01*
X96585000Y-98929981D01*
X96779379Y-99399253D01*
X97548747Y-100168621D01*
X98553975Y-100585000D01*
X99642025Y-100585000D01*
X100647253Y-100168621D01*
X101416621Y-99399253D01*
X101833000Y-98394025D01*
X101833000Y-97305975D01*
X101416621Y-96300747D01*
X100647253Y-95531379D01*
X99642025Y-95115000D01*
X98553975Y-95115000D01*
X97548747Y-95531379D01*
X96779379Y-96300747D01*
X96585000Y-96770019D01*
X96585000Y-93458728D01*
X97324148Y-92719581D01*
X97686280Y-92569581D01*
X97977431Y-92278430D01*
X98135000Y-91898024D01*
X98135000Y-91486276D01*
X97977431Y-91105870D01*
X97686280Y-90814719D01*
X97439202Y-90712376D01*
X101464156Y-86687423D01*
X101538049Y-86638049D01*
X101600017Y-86545309D01*
X101733652Y-86345310D01*
X101762091Y-86202337D01*
X101785000Y-86087165D01*
X101785000Y-86087161D01*
X101802337Y-86000000D01*
X101785000Y-85912839D01*
X101785000Y-83268007D01*
X101935000Y-82905874D01*
X101935000Y-82494126D01*
X101777431Y-82113720D01*
X101486280Y-81822569D01*
X101105874Y-81665000D01*
X100694126Y-81665000D01*
X100313720Y-81822569D01*
X100022569Y-82113720D01*
X99865000Y-82494126D01*
X99865000Y-82905874D01*
X100015000Y-83268007D01*
X100015001Y-85633420D01*
X94235847Y-91412575D01*
X94161951Y-91461951D01*
X93966348Y-91754691D01*
X93915000Y-92012836D01*
X93915000Y-92012839D01*
X93897663Y-92100000D01*
X93915000Y-92187161D01*
X93915001Y-96663359D01*
X93897765Y-96651843D01*
X93785000Y-96629413D01*
X93785000Y-87966578D01*
X100211929Y-81539650D01*
X104731993Y-81539650D01*
X105094126Y-81689650D01*
X105505874Y-81689650D01*
X105886280Y-81532081D01*
X106177431Y-81240930D01*
X106335000Y-80860524D01*
X106335000Y-80448776D01*
X106177431Y-80068370D01*
X105886280Y-79777219D01*
X105505874Y-79619650D01*
X105094126Y-79619650D01*
X104731993Y-79769650D01*
X99932511Y-79769650D01*
X99845350Y-79752313D01*
X99758189Y-79769650D01*
X99758185Y-79769650D01*
X99523910Y-79816250D01*
X99500040Y-79820998D01*
X99281195Y-79967226D01*
X99281194Y-79967227D01*
X99207301Y-80016601D01*
X99157927Y-80090494D01*
X92491318Y-86757104D01*
X92415673Y-86772151D01*
X92089856Y-86989855D01*
X91872152Y-87315672D01*
X91815001Y-87602988D01*
X91815000Y-96629413D01*
X91702235Y-96651843D01*
X91492191Y-96792191D01*
X91435000Y-96877783D01*
X91435000Y-85090131D01*
X91998049Y-84527082D01*
X92022569Y-84586280D01*
X92313720Y-84877431D01*
X92694126Y-85035000D01*
X93105874Y-85035000D01*
X93486280Y-84877431D01*
X93777431Y-84586280D01*
X93911579Y-84262418D01*
X93948048Y-84238050D01*
X93997424Y-84164154D01*
X100664156Y-77497422D01*
X100738049Y-77448049D01*
X100933652Y-77155310D01*
X100985000Y-76897165D01*
X100985000Y-76897161D01*
X101002337Y-76810000D01*
X100985000Y-76722839D01*
X100985000Y-75668007D01*
X101135000Y-75305874D01*
X101135000Y-74894126D01*
X100977431Y-74513720D01*
X100686280Y-74222569D01*
X100305874Y-74065000D01*
X99935000Y-74065000D01*
X99935000Y-69988217D01*
X99869146Y-69657145D01*
X99618289Y-69281711D01*
X99242855Y-69030854D01*
X98800000Y-68942765D01*
X98357146Y-69030854D01*
X97981712Y-69281711D01*
X97730855Y-69657145D01*
X97665001Y-69988217D01*
X97665000Y-74688217D01*
X97665000Y-75649868D01*
X89576482Y-83738387D01*
X89481711Y-83801711D01*
X89294560Y-84081804D01*
X89198839Y-83600582D01*
X88870625Y-83109375D01*
X88572239Y-82910000D01*
X88870625Y-82710625D01*
X89198839Y-82219418D01*
X89314092Y-81640000D01*
X89198839Y-81060582D01*
X88870625Y-80569375D01*
X88852381Y-80557184D01*
X88897765Y-80548157D01*
X89107809Y-80407809D01*
X89248157Y-80197765D01*
X89297440Y-79950000D01*
X89297440Y-78250000D01*
X89248157Y-78002235D01*
X89107809Y-77792191D01*
X88897765Y-77651843D01*
X88650000Y-77602560D01*
X86950000Y-77602560D01*
X86702235Y-77651843D01*
X86492191Y-77792191D01*
X86351843Y-78002235D01*
X86307326Y-78226041D01*
X86115720Y-78264154D01*
X86104690Y-78266348D01*
X85885845Y-78412576D01*
X85885844Y-78412577D01*
X85811951Y-78461951D01*
X85762577Y-78535844D01*
X85697440Y-78600981D01*
X85697440Y-78250000D01*
X85648157Y-78002235D01*
X85507809Y-77792191D01*
X85297765Y-77651843D01*
X85050000Y-77602560D01*
X83350000Y-77602560D01*
X83102235Y-77651843D01*
X82892191Y-77792191D01*
X82751843Y-78002235D01*
X82702560Y-78250000D01*
X82702560Y-79950000D01*
X82751843Y-80197765D01*
X82892191Y-80407809D01*
X83102235Y-80548157D01*
X83147619Y-80557184D01*
X83129375Y-80569375D01*
X82801161Y-81060582D01*
X82685908Y-81640000D01*
X82801161Y-82219418D01*
X83129375Y-82710625D01*
X83427761Y-82910000D01*
X83129375Y-83109375D01*
X82801161Y-83600582D01*
X82685908Y-84180000D01*
X82801161Y-84759418D01*
X83129375Y-85250625D01*
X83427761Y-85450000D01*
X83129375Y-85649375D01*
X82801161Y-86140582D01*
X82685908Y-86720000D01*
X82801161Y-87299418D01*
X83129375Y-87790625D01*
X83448478Y-88003843D01*
X83318642Y-88064817D01*
X82928355Y-88493076D01*
X82758524Y-88903110D01*
X82879845Y-89133000D01*
X84073000Y-89133000D01*
X84073000Y-89113000D01*
X84327000Y-89113000D01*
X84327000Y-89133000D01*
X85520155Y-89133000D01*
X85641476Y-88903110D01*
X85471645Y-88493076D01*
X85081358Y-88064817D01*
X84951522Y-88003843D01*
X85270625Y-87790625D01*
X85598839Y-87299418D01*
X85714092Y-86720000D01*
X85670538Y-86501040D01*
X86364156Y-85807423D01*
X86438049Y-85758049D01*
X86566835Y-85565309D01*
X86633652Y-85465310D01*
X86648167Y-85392336D01*
X86685000Y-85207165D01*
X86685000Y-85207161D01*
X86688517Y-85189477D01*
X86729375Y-85250625D01*
X87027761Y-85450000D01*
X86729375Y-85649375D01*
X86401161Y-86140582D01*
X86285908Y-86720000D01*
X86401161Y-87299418D01*
X86729375Y-87790625D01*
X87027761Y-87990000D01*
X86729375Y-88189375D01*
X86401161Y-88680582D01*
X86285908Y-89260000D01*
X86401161Y-89839418D01*
X86729375Y-90330625D01*
X87048478Y-90543843D01*
X86918642Y-90604817D01*
X86528355Y-91033076D01*
X86358524Y-91443110D01*
X86479845Y-91673000D01*
X87673000Y-91673000D01*
X87673000Y-91653000D01*
X87927000Y-91653000D01*
X87927000Y-91673000D01*
X87947000Y-91673000D01*
X87947000Y-91927000D01*
X87927000Y-91927000D01*
X87927000Y-91947000D01*
X87673000Y-91947000D01*
X87673000Y-91927000D01*
X86479845Y-91927000D01*
X86358524Y-92156890D01*
X86528355Y-92566924D01*
X86918642Y-92995183D01*
X87048478Y-93056157D01*
X86729375Y-93269375D01*
X86401161Y-93760582D01*
X86285908Y-94340000D01*
X86401161Y-94919418D01*
X86729375Y-95410625D01*
X87220582Y-95738839D01*
X87653744Y-95825000D01*
X87946256Y-95825000D01*
X88379418Y-95738839D01*
X88774281Y-95475000D01*
X89165001Y-95475000D01*
X89165001Y-96688213D01*
X89165000Y-96688218D01*
X89165001Y-101912718D01*
X89118621Y-101800747D01*
X88349253Y-101031379D01*
X87344025Y-100615000D01*
X86255975Y-100615000D01*
X85250747Y-101031379D01*
X84481379Y-101800747D01*
X84065000Y-102805975D01*
X84065000Y-103894025D01*
X84481379Y-104899253D01*
X84997126Y-105415000D01*
X83353232Y-105415000D01*
X83398157Y-105347765D01*
X83447440Y-105100000D01*
X83447440Y-103100000D01*
X83398157Y-102852235D01*
X83257809Y-102642191D01*
X83047765Y-102501843D01*
X82800000Y-102452560D01*
X80800000Y-102452560D01*
X80552235Y-102501843D01*
X80342191Y-102642191D01*
X80201843Y-102852235D01*
X80152560Y-103100000D01*
X80152560Y-105100000D01*
X80201843Y-105347765D01*
X80246768Y-105415000D01*
X80125816Y-105415000D01*
X80098256Y-91800000D01*
X82685908Y-91800000D01*
X82801161Y-92379418D01*
X83129375Y-92870625D01*
X83620582Y-93198839D01*
X84053744Y-93285000D01*
X84346256Y-93285000D01*
X84779418Y-93198839D01*
X85270625Y-92870625D01*
X85598839Y-92379418D01*
X85714092Y-91800000D01*
X85598839Y-91220582D01*
X85270625Y-90729375D01*
X84951522Y-90516157D01*
X85081358Y-90455183D01*
X85471645Y-90026924D01*
X85641476Y-89616890D01*
X85520155Y-89387000D01*
X84327000Y-89387000D01*
X84327000Y-89407000D01*
X84073000Y-89407000D01*
X84073000Y-89387000D01*
X82879845Y-89387000D01*
X82758524Y-89616890D01*
X82928355Y-90026924D01*
X83318642Y-90455183D01*
X83448478Y-90516157D01*
X83129375Y-90729375D01*
X82801161Y-91220582D01*
X82685908Y-91800000D01*
X80098256Y-91800000D01*
X80061920Y-73850000D01*
X82602560Y-73850000D01*
X82602560Y-75550000D01*
X82651843Y-75797765D01*
X82792191Y-76007809D01*
X83002235Y-76148157D01*
X83250000Y-76197440D01*
X84950000Y-76197440D01*
X85197765Y-76148157D01*
X85407809Y-76007809D01*
X85548157Y-75797765D01*
X85597440Y-75550000D01*
X85597440Y-73850000D01*
X85548157Y-73602235D01*
X85407809Y-73392191D01*
X85197765Y-73251843D01*
X85094292Y-73231261D01*
X85371645Y-72926924D01*
X85541476Y-72516890D01*
X85420155Y-72287000D01*
X84227000Y-72287000D01*
X84227000Y-72307000D01*
X83973000Y-72307000D01*
X83973000Y-72287000D01*
X82779845Y-72287000D01*
X82658524Y-72516890D01*
X82828355Y-72926924D01*
X83105708Y-73231261D01*
X83002235Y-73251843D01*
X82792191Y-73392191D01*
X82651843Y-73602235D01*
X82602560Y-73850000D01*
X80061920Y-73850000D01*
X80043074Y-64540000D01*
X82585908Y-64540000D01*
X82701161Y-65119418D01*
X83029375Y-65610625D01*
X83327761Y-65810000D01*
X83029375Y-66009375D01*
X82701161Y-66500582D01*
X82585908Y-67080000D01*
X82701161Y-67659418D01*
X83029375Y-68150625D01*
X83327761Y-68350000D01*
X83029375Y-68549375D01*
X82701161Y-69040582D01*
X82585908Y-69620000D01*
X82701161Y-70199418D01*
X83029375Y-70690625D01*
X83348478Y-70903843D01*
X83218642Y-70964817D01*
X82828355Y-71393076D01*
X82658524Y-71803110D01*
X82779845Y-72033000D01*
X83973000Y-72033000D01*
X83973000Y-72013000D01*
X84227000Y-72013000D01*
X84227000Y-72033000D01*
X85420155Y-72033000D01*
X85541476Y-71803110D01*
X85371645Y-71393076D01*
X84981358Y-70964817D01*
X84851522Y-70903843D01*
X85170625Y-70690625D01*
X85498839Y-70199418D01*
X85614092Y-69620000D01*
X85498839Y-69040582D01*
X85170625Y-68549375D01*
X84872239Y-68350000D01*
X85170625Y-68150625D01*
X85498839Y-67659418D01*
X85614092Y-67080000D01*
X85498839Y-66500582D01*
X85170625Y-66009375D01*
X84872239Y-65810000D01*
X85170625Y-65610625D01*
X85498839Y-65119418D01*
X85614092Y-64540000D01*
X85498839Y-63960582D01*
X85170625Y-63469375D01*
X84679418Y-63141161D01*
X84246256Y-63055000D01*
X83953744Y-63055000D01*
X83520582Y-63141161D01*
X83029375Y-63469375D01*
X82701161Y-63960582D01*
X82585908Y-64540000D01*
X80043074Y-64540000D01*
X80028387Y-57285000D01*
X80246768Y-57285000D01*
X80201843Y-57352235D01*
G36*
X69481379Y-57550747D02*
X69065000Y-58555975D01*
X69065000Y-59644025D01*
X69481379Y-60649253D01*
X70250747Y-61418621D01*
X71255975Y-61835000D01*
X72344025Y-61835000D01*
X73349253Y-61418621D01*
X74118621Y-60649253D01*
X74535000Y-59644025D01*
X74535000Y-58555975D01*
X74118621Y-57550747D01*
X73852874Y-57285000D01*
X75246768Y-57285000D01*
X75201843Y-57352235D01*
X75152560Y-57600000D01*
X75152560Y-59600000D01*
X75201843Y-59847765D01*
X75342191Y-60057809D01*
X75552235Y-60198157D01*
X75800000Y-60247440D01*
X77800000Y-60247440D01*
X78047765Y-60198157D01*
X78257809Y-60057809D01*
X78373000Y-59885415D01*
X78373000Y-102814585D01*
X78257809Y-102642191D01*
X78047765Y-102501843D01*
X77800000Y-102452560D01*
X75800000Y-102452560D01*
X75552235Y-102501843D01*
X75342191Y-102642191D01*
X75201843Y-102852235D01*
X75152560Y-103100000D01*
X75152560Y-105100000D01*
X75201843Y-105347765D01*
X75246768Y-105415000D01*
X73602874Y-105415000D01*
X74118621Y-104899253D01*
X74535000Y-103894025D01*
X74535000Y-102805975D01*
X74118621Y-101800747D01*
X73349253Y-101031379D01*
X72344025Y-100615000D01*
X71255975Y-100615000D01*
X70250747Y-101031379D01*
X69481379Y-101800747D01*
X69065000Y-102805975D01*
X69065000Y-103894025D01*
X69481379Y-104899253D01*
X69997126Y-105415000D01*
X65853232Y-105415000D01*
X65898157Y-105347765D01*
X65947440Y-105100000D01*
X65947440Y-103100000D01*
X65898157Y-102852235D01*
X65757809Y-102642191D01*
X65547765Y-102501843D01*
X65300000Y-102452560D01*
X63300000Y-102452560D01*
X63052235Y-102501843D01*
X62885000Y-102613587D01*
X62885000Y-96752532D01*
X63327073Y-96752532D01*
X63425736Y-97019387D01*
X64035461Y-97245908D01*
X64685460Y-97221856D01*
X65174264Y-97019387D01*
X65272927Y-96752532D01*
X69827073Y-96752532D01*
X69925736Y-97019387D01*
X70535461Y-97245908D01*
X71185460Y-97221856D01*
X71674264Y-97019387D01*
X71772927Y-96752532D01*
X70800000Y-95779605D01*
X69827073Y-96752532D01*
X65272927Y-96752532D01*
X64300000Y-95779605D01*
X63327073Y-96752532D01*
X62885000Y-96752532D01*
X62885000Y-96475886D01*
X63147468Y-96572927D01*
X64120395Y-95600000D01*
X64479605Y-95600000D01*
X65452532Y-96572927D01*
X65719387Y-96474264D01*
X65945908Y-95864539D01*
X65926331Y-95335461D01*
X69154092Y-95335461D01*
X69178144Y-95985460D01*
X69380613Y-96474264D01*
X69647468Y-96572927D01*
X70620395Y-95600000D01*
X70979605Y-95600000D01*
X71952532Y-96572927D01*
X72219387Y-96474264D01*
X72445908Y-95864539D01*
X72421856Y-95214540D01*
X72219387Y-94725736D01*
X71952532Y-94627073D01*
X70979605Y-95600000D01*
X70620395Y-95600000D01*
X69647468Y-94627073D01*
X69380613Y-94725736D01*
X69154092Y-95335461D01*
X65926331Y-95335461D01*
X65921856Y-95214540D01*
X65719387Y-94725736D01*
X65452532Y-94627073D01*
X64479605Y-95600000D01*
X64120395Y-95600000D01*
X63147468Y-94627073D01*
X62885000Y-94724114D01*
X62885000Y-94447468D01*
X63327073Y-94447468D01*
X64300000Y-95420395D01*
X65272927Y-94447468D01*
X69827073Y-94447468D01*
X70800000Y-95420395D01*
X71772927Y-94447468D01*
X71674264Y-94180613D01*
X71064539Y-93954092D01*
X70414540Y-93978144D01*
X69925736Y-94180613D01*
X69827073Y-94447468D01*
X65272927Y-94447468D01*
X65174264Y-94180613D01*
X64564539Y-93954092D01*
X63914540Y-93978144D01*
X63425736Y-94180613D01*
X63327073Y-94447468D01*
X62885000Y-94447468D01*
X62885000Y-91956348D01*
X62913914Y-92026153D01*
X63373847Y-92486086D01*
X63974778Y-92735000D01*
X64625222Y-92735000D01*
X65226153Y-92486086D01*
X65686086Y-92026153D01*
X65935000Y-91425222D01*
X65935000Y-90774778D01*
X69165000Y-90774778D01*
X69165000Y-91425222D01*
X69413914Y-92026153D01*
X69873847Y-92486086D01*
X70474778Y-92735000D01*
X71125222Y-92735000D01*
X71726153Y-92486086D01*
X72186086Y-92026153D01*
X72435000Y-91425222D01*
X72435000Y-90774778D01*
X72186086Y-90173847D01*
X71726153Y-89713914D01*
X71125222Y-89465000D01*
X70474778Y-89465000D01*
X69873847Y-89713914D01*
X69413914Y-90173847D01*
X69165000Y-90774778D01*
X65935000Y-90774778D01*
X65686086Y-90173847D01*
X65226153Y-89713914D01*
X64625222Y-89465000D01*
X63974778Y-89465000D01*
X63373847Y-89713914D01*
X62913914Y-90173847D01*
X62885000Y-90243652D01*
X62885000Y-84752532D01*
X63327073Y-84752532D01*
X63425736Y-85019387D01*
X64035461Y-85245908D01*
X64685460Y-85221856D01*
X65174264Y-85019387D01*
X65272927Y-84752532D01*
X69827073Y-84752532D01*
X69925736Y-85019387D01*
X70535461Y-85245908D01*
X71185460Y-85221856D01*
X71674264Y-85019387D01*
X71772927Y-84752532D01*
X70800000Y-83779605D01*
X69827073Y-84752532D01*
X65272927Y-84752532D01*
X64300000Y-83779605D01*
X63327073Y-84752532D01*
X62885000Y-84752532D01*
X62885000Y-84475886D01*
X63147468Y-84572927D01*
X64120395Y-83600000D01*
X64479605Y-83600000D01*
X65452532Y-84572927D01*
X65719387Y-84474264D01*
X65945908Y-83864539D01*
X65926331Y-83335461D01*
X69154092Y-83335461D01*
X69178144Y-83985460D01*
X69380613Y-84474264D01*
X69647468Y-84572927D01*
X70620395Y-83600000D01*
X70979605Y-83600000D01*
X71952532Y-84572927D01*
X72219387Y-84474264D01*
X72445908Y-83864539D01*
X72421856Y-83214540D01*
X72219387Y-82725736D01*
X71952532Y-82627073D01*
X70979605Y-83600000D01*
X70620395Y-83600000D01*
X69647468Y-82627073D01*
X69380613Y-82725736D01*
X69154092Y-83335461D01*
X65926331Y-83335461D01*
X65921856Y-83214540D01*
X65719387Y-82725736D01*
X65452532Y-82627073D01*
X64479605Y-83600000D01*
X64120395Y-83600000D01*
X63147468Y-82627073D01*
X62885000Y-82724114D01*
X62885000Y-82447468D01*
X63327073Y-82447468D01*
X64300000Y-83420395D01*
X65272927Y-82447468D01*
X69827073Y-82447468D01*
X70800000Y-83420395D01*
X71772927Y-82447468D01*
X71674264Y-82180613D01*
X71064539Y-81954092D01*
X70414540Y-81978144D01*
X69925736Y-82180613D01*
X69827073Y-82447468D01*
X65272927Y-82447468D01*
X65174264Y-82180613D01*
X64564539Y-81954092D01*
X63914540Y-81978144D01*
X63425736Y-82180613D01*
X63327073Y-82447468D01*
X62885000Y-82447468D01*
X62885000Y-79956348D01*
X62913914Y-80026153D01*
X63373847Y-80486086D01*
X63974778Y-80735000D01*
X64625222Y-80735000D01*
X65226153Y-80486086D01*
X65686086Y-80026153D01*
X65935000Y-79425222D01*
X65935000Y-78774778D01*
X69165000Y-78774778D01*
X69165000Y-79425222D01*
X69413914Y-80026153D01*
X69873847Y-80486086D01*
X70474778Y-80735000D01*
X71125222Y-80735000D01*
X71726153Y-80486086D01*
X72186086Y-80026153D01*
X72435000Y-79425222D01*
X72435000Y-78774778D01*
X72186086Y-78173847D01*
X71726153Y-77713914D01*
X71125222Y-77465000D01*
X70474778Y-77465000D01*
X69873847Y-77713914D01*
X69413914Y-78173847D01*
X69165000Y-78774778D01*
X65935000Y-78774778D01*
X65686086Y-78173847D01*
X65226153Y-77713914D01*
X64625222Y-77465000D01*
X63974778Y-77465000D01*
X63373847Y-77713914D01*
X62913914Y-78173847D01*
X62885000Y-78243652D01*
X62885000Y-75385750D01*
X73815000Y-75385750D01*
X73815000Y-76076310D01*
X73911673Y-76309699D01*
X74090302Y-76488327D01*
X74323691Y-76585000D01*
X75014250Y-76585000D01*
X75173000Y-76426250D01*
X75173000Y-75227000D01*
X75427000Y-75227000D01*
X75427000Y-76426250D01*
X75585750Y-76585000D01*
X76276309Y-76585000D01*
X76509698Y-76488327D01*
X76688327Y-76309699D01*
X76785000Y-76076310D01*
X76785000Y-75385750D01*
X76626250Y-75227000D01*
X75427000Y-75227000D01*
X75173000Y-75227000D01*
X73973750Y-75227000D01*
X73815000Y-75385750D01*
X62885000Y-75385750D01*
X62885000Y-72752532D01*
X63327073Y-72752532D01*
X63425736Y-73019387D01*
X64035461Y-73245908D01*
X64685460Y-73221856D01*
X65174264Y-73019387D01*
X65272927Y-72752532D01*
X69827073Y-72752532D01*
X69925736Y-73019387D01*
X70535461Y-73245908D01*
X71185460Y-73221856D01*
X71674264Y-73019387D01*
X71772927Y-72752532D01*
X70800000Y-71779605D01*
X69827073Y-72752532D01*
X65272927Y-72752532D01*
X64300000Y-71779605D01*
X63327073Y-72752532D01*
X62885000Y-72752532D01*
X62885000Y-72475886D01*
X63147468Y-72572927D01*
X64120395Y-71600000D01*
X64479605Y-71600000D01*
X65452532Y-72572927D01*
X65719387Y-72474264D01*
X65945908Y-71864539D01*
X65926331Y-71335461D01*
X69154092Y-71335461D01*
X69178144Y-71985460D01*
X69380613Y-72474264D01*
X69647468Y-72572927D01*
X70620395Y-71600000D01*
X70979605Y-71600000D01*
X71952532Y-72572927D01*
X72219387Y-72474264D01*
X72445908Y-71864539D01*
X72421856Y-71214540D01*
X72219387Y-70725736D01*
X71952532Y-70627073D01*
X70979605Y-71600000D01*
X70620395Y-71600000D01*
X69647468Y-70627073D01*
X69380613Y-70725736D01*
X69154092Y-71335461D01*
X65926331Y-71335461D01*
X65921856Y-71214540D01*
X65719387Y-70725736D01*
X65452532Y-70627073D01*
X64479605Y-71600000D01*
X64120395Y-71600000D01*
X63147468Y-70627073D01*
X62885000Y-70724114D01*
X62885000Y-70447468D01*
X63327073Y-70447468D01*
X64300000Y-71420395D01*
X65272927Y-70447468D01*
X69827073Y-70447468D01*
X70800000Y-71420395D01*
X71772927Y-70447468D01*
X71674264Y-70180613D01*
X71064539Y-69954092D01*
X70414540Y-69978144D01*
X69925736Y-70180613D01*
X69827073Y-70447468D01*
X65272927Y-70447468D01*
X65174264Y-70180613D01*
X64564539Y-69954092D01*
X63914540Y-69978144D01*
X63425736Y-70180613D01*
X63327073Y-70447468D01*
X62885000Y-70447468D01*
X62885000Y-67956348D01*
X62913914Y-68026153D01*
X63373847Y-68486086D01*
X63974778Y-68735000D01*
X64625222Y-68735000D01*
X65226153Y-68486086D01*
X65686086Y-68026153D01*
X65703132Y-67985000D01*
X69396868Y-67985000D01*
X69413914Y-68026153D01*
X69873847Y-68486086D01*
X70474778Y-68735000D01*
X71125222Y-68735000D01*
X71726153Y-68486086D01*
X72186086Y-68026153D01*
X72412310Y-67480000D01*
X73785908Y-67480000D01*
X73901161Y-68059418D01*
X74229375Y-68550625D01*
X74527761Y-68750000D01*
X74229375Y-68949375D01*
X73901161Y-69440582D01*
X73785908Y-70020000D01*
X73901161Y-70599418D01*
X74229375Y-71090625D01*
X74527761Y-71290000D01*
X74229375Y-71489375D01*
X73901161Y-71980582D01*
X73785908Y-72560000D01*
X73901161Y-73139418D01*
X74229375Y-73630625D01*
X74251033Y-73645096D01*
X74090302Y-73711673D01*
X73911673Y-73890301D01*
X73815000Y-74123690D01*
X73815000Y-74814250D01*
X73973750Y-74973000D01*
X75173000Y-74973000D01*
X75173000Y-74953000D01*
X75427000Y-74953000D01*
X75427000Y-74973000D01*
X76626250Y-74973000D01*
X76785000Y-74814250D01*
X76785000Y-74123690D01*
X76688327Y-73890301D01*
X76509698Y-73711673D01*
X76348967Y-73645096D01*
X76370625Y-73630625D01*
X76698839Y-73139418D01*
X76814092Y-72560000D01*
X76698839Y-71980582D01*
X76370625Y-71489375D01*
X76072239Y-71290000D01*
X76370625Y-71090625D01*
X76698839Y-70599418D01*
X76814092Y-70020000D01*
X76698839Y-69440582D01*
X76370625Y-68949375D01*
X76072239Y-68750000D01*
X76370625Y-68550625D01*
X76698839Y-68059418D01*
X76814092Y-67480000D01*
X76698839Y-66900582D01*
X76370625Y-66409375D01*
X75879418Y-66081161D01*
X75446256Y-65995000D01*
X75153744Y-65995000D01*
X74720582Y-66081161D01*
X74229375Y-66409375D01*
X73901161Y-66900582D01*
X73785908Y-67480000D01*
X72412310Y-67480000D01*
X72435000Y-67425222D01*
X72435000Y-66774778D01*
X72186086Y-66173847D01*
X71726153Y-65713914D01*
X71125222Y-65465000D01*
X70474778Y-65465000D01*
X69873847Y-65713914D01*
X69413914Y-66173847D01*
X69396868Y-66215000D01*
X65703132Y-66215000D01*
X65686086Y-66173847D01*
X65226153Y-65713914D01*
X64625222Y-65465000D01*
X63974778Y-65465000D01*
X63373847Y-65713914D01*
X62913914Y-66173847D01*
X62885000Y-66243652D01*
X62885000Y-60086413D01*
X63052235Y-60198157D01*
X63300000Y-60247440D01*
X65300000Y-60247440D01*
X65547765Y-60198157D01*
X65757809Y-60057809D01*
X65898157Y-59847765D01*
X65947440Y-59600000D01*
X65947440Y-57600000D01*
X65898157Y-57352235D01*
X65853232Y-57285000D01*
X69747126Y-57285000D01*
X69481379Y-57550747D01*
X69481379Y-57550747D01*
G37*
X69481379Y-57550747D02*
X69065000Y-58555975D01*
X69065000Y-59644025D01*
X69481379Y-60649253D01*
X70250747Y-61418621D01*
X71255975Y-61835000D01*
X72344025Y-61835000D01*
X73349253Y-61418621D01*
X74118621Y-60649253D01*
X74535000Y-59644025D01*
X74535000Y-58555975D01*
X74118621Y-57550747D01*
X73852874Y-57285000D01*
X75246768Y-57285000D01*
X75201843Y-57352235D01*
X75152560Y-57600000D01*
X75152560Y-59600000D01*
X75201843Y-59847765D01*
X75342191Y-60057809D01*
X75552235Y-60198157D01*
X75800000Y-60247440D01*
X77800000Y-60247440D01*
X78047765Y-60198157D01*
X78257809Y-60057809D01*
X78373000Y-59885415D01*
X78373000Y-102814585D01*
X78257809Y-102642191D01*
X78047765Y-102501843D01*
X77800000Y-102452560D01*
X75800000Y-102452560D01*
X75552235Y-102501843D01*
X75342191Y-102642191D01*
X75201843Y-102852235D01*
X75152560Y-103100000D01*
X75152560Y-105100000D01*
X75201843Y-105347765D01*
X75246768Y-105415000D01*
X73602874Y-105415000D01*
X74118621Y-104899253D01*
X74535000Y-103894025D01*
X74535000Y-102805975D01*
X74118621Y-101800747D01*
X73349253Y-101031379D01*
X72344025Y-100615000D01*
X71255975Y-100615000D01*
X70250747Y-101031379D01*
X69481379Y-101800747D01*
X69065000Y-102805975D01*
X69065000Y-103894025D01*
X69481379Y-104899253D01*
X69997126Y-105415000D01*
X65853232Y-105415000D01*
X65898157Y-105347765D01*
X65947440Y-105100000D01*
X65947440Y-103100000D01*
X65898157Y-102852235D01*
X65757809Y-102642191D01*
X65547765Y-102501843D01*
X65300000Y-102452560D01*
X63300000Y-102452560D01*
X63052235Y-102501843D01*
X62885000Y-102613587D01*
X62885000Y-96752532D01*
X63327073Y-96752532D01*
X63425736Y-97019387D01*
X64035461Y-97245908D01*
X64685460Y-97221856D01*
X65174264Y-97019387D01*
X65272927Y-96752532D01*
X69827073Y-96752532D01*
X69925736Y-97019387D01*
X70535461Y-97245908D01*
X71185460Y-97221856D01*
X71674264Y-97019387D01*
X71772927Y-96752532D01*
X70800000Y-95779605D01*
X69827073Y-96752532D01*
X65272927Y-96752532D01*
X64300000Y-95779605D01*
X63327073Y-96752532D01*
X62885000Y-96752532D01*
X62885000Y-96475886D01*
X63147468Y-96572927D01*
X64120395Y-95600000D01*
X64479605Y-95600000D01*
X65452532Y-96572927D01*
X65719387Y-96474264D01*
X65945908Y-95864539D01*
X65926331Y-95335461D01*
X69154092Y-95335461D01*
X69178144Y-95985460D01*
X69380613Y-96474264D01*
X69647468Y-96572927D01*
X70620395Y-95600000D01*
X70979605Y-95600000D01*
X71952532Y-96572927D01*
X72219387Y-96474264D01*
X72445908Y-95864539D01*
X72421856Y-95214540D01*
X72219387Y-94725736D01*
X71952532Y-94627073D01*
X70979605Y-95600000D01*
X70620395Y-95600000D01*
X69647468Y-94627073D01*
X69380613Y-94725736D01*
X69154092Y-95335461D01*
X65926331Y-95335461D01*
X65921856Y-95214540D01*
X65719387Y-94725736D01*
X65452532Y-94627073D01*
X64479605Y-95600000D01*
X64120395Y-95600000D01*
X63147468Y-94627073D01*
X62885000Y-94724114D01*
X62885000Y-94447468D01*
X63327073Y-94447468D01*
X64300000Y-95420395D01*
X65272927Y-94447468D01*
X69827073Y-94447468D01*
X70800000Y-95420395D01*
X71772927Y-94447468D01*
X71674264Y-94180613D01*
X71064539Y-93954092D01*
X70414540Y-93978144D01*
X69925736Y-94180613D01*
X69827073Y-94447468D01*
X65272927Y-94447468D01*
X65174264Y-94180613D01*
X64564539Y-93954092D01*
X63914540Y-93978144D01*
X63425736Y-94180613D01*
X63327073Y-94447468D01*
X62885000Y-94447468D01*
X62885000Y-91956348D01*
X62913914Y-92026153D01*
X63373847Y-92486086D01*
X63974778Y-92735000D01*
X64625222Y-92735000D01*
X65226153Y-92486086D01*
X65686086Y-92026153D01*
X65935000Y-91425222D01*
X65935000Y-90774778D01*
X69165000Y-90774778D01*
X69165000Y-91425222D01*
X69413914Y-92026153D01*
X69873847Y-92486086D01*
X70474778Y-92735000D01*
X71125222Y-92735000D01*
X71726153Y-92486086D01*
X72186086Y-92026153D01*
X72435000Y-91425222D01*
X72435000Y-90774778D01*
X72186086Y-90173847D01*
X71726153Y-89713914D01*
X71125222Y-89465000D01*
X70474778Y-89465000D01*
X69873847Y-89713914D01*
X69413914Y-90173847D01*
X69165000Y-90774778D01*
X65935000Y-90774778D01*
X65686086Y-90173847D01*
X65226153Y-89713914D01*
X64625222Y-89465000D01*
X63974778Y-89465000D01*
X63373847Y-89713914D01*
X62913914Y-90173847D01*
X62885000Y-90243652D01*
X62885000Y-84752532D01*
X63327073Y-84752532D01*
X63425736Y-85019387D01*
X64035461Y-85245908D01*
X64685460Y-85221856D01*
X65174264Y-85019387D01*
X65272927Y-84752532D01*
X69827073Y-84752532D01*
X69925736Y-85019387D01*
X70535461Y-85245908D01*
X71185460Y-85221856D01*
X71674264Y-85019387D01*
X71772927Y-84752532D01*
X70800000Y-83779605D01*
X69827073Y-84752532D01*
X65272927Y-84752532D01*
X64300000Y-83779605D01*
X63327073Y-84752532D01*
X62885000Y-84752532D01*
X62885000Y-84475886D01*
X63147468Y-84572927D01*
X64120395Y-83600000D01*
X64479605Y-83600000D01*
X65452532Y-84572927D01*
X65719387Y-84474264D01*
X65945908Y-83864539D01*
X65926331Y-83335461D01*
X69154092Y-83335461D01*
X69178144Y-83985460D01*
X69380613Y-84474264D01*
X69647468Y-84572927D01*
X70620395Y-83600000D01*
X70979605Y-83600000D01*
X71952532Y-84572927D01*
X72219387Y-84474264D01*
X72445908Y-83864539D01*
X72421856Y-83214540D01*
X72219387Y-82725736D01*
X71952532Y-82627073D01*
X70979605Y-83600000D01*
X70620395Y-83600000D01*
X69647468Y-82627073D01*
X69380613Y-82725736D01*
X69154092Y-83335461D01*
X65926331Y-83335461D01*
X65921856Y-83214540D01*
X65719387Y-82725736D01*
X65452532Y-82627073D01*
X64479605Y-83600000D01*
X64120395Y-83600000D01*
X63147468Y-82627073D01*
X62885000Y-82724114D01*
X62885000Y-82447468D01*
X63327073Y-82447468D01*
X64300000Y-83420395D01*
X65272927Y-82447468D01*
X69827073Y-82447468D01*
X70800000Y-83420395D01*
X71772927Y-82447468D01*
X71674264Y-82180613D01*
X71064539Y-81954092D01*
X70414540Y-81978144D01*
X69925736Y-82180613D01*
X69827073Y-82447468D01*
X65272927Y-82447468D01*
X65174264Y-82180613D01*
X64564539Y-81954092D01*
X63914540Y-81978144D01*
X63425736Y-82180613D01*
X63327073Y-82447468D01*
X62885000Y-82447468D01*
X62885000Y-79956348D01*
X62913914Y-80026153D01*
X63373847Y-80486086D01*
X63974778Y-80735000D01*
X64625222Y-80735000D01*
X65226153Y-80486086D01*
X65686086Y-80026153D01*
X65935000Y-79425222D01*
X65935000Y-78774778D01*
X69165000Y-78774778D01*
X69165000Y-79425222D01*
X69413914Y-80026153D01*
X69873847Y-80486086D01*
X70474778Y-80735000D01*
X71125222Y-80735000D01*
X71726153Y-80486086D01*
X72186086Y-80026153D01*
X72435000Y-79425222D01*
X72435000Y-78774778D01*
X72186086Y-78173847D01*
X71726153Y-77713914D01*
X71125222Y-77465000D01*
X70474778Y-77465000D01*
X69873847Y-77713914D01*
X69413914Y-78173847D01*
X69165000Y-78774778D01*
X65935000Y-78774778D01*
X65686086Y-78173847D01*
X65226153Y-77713914D01*
X64625222Y-77465000D01*
X63974778Y-77465000D01*
X63373847Y-77713914D01*
X62913914Y-78173847D01*
X62885000Y-78243652D01*
X62885000Y-75385750D01*
X73815000Y-75385750D01*
X73815000Y-76076310D01*
X73911673Y-76309699D01*
X74090302Y-76488327D01*
X74323691Y-76585000D01*
X75014250Y-76585000D01*
X75173000Y-76426250D01*
X75173000Y-75227000D01*
X75427000Y-75227000D01*
X75427000Y-76426250D01*
X75585750Y-76585000D01*
X76276309Y-76585000D01*
X76509698Y-76488327D01*
X76688327Y-76309699D01*
X76785000Y-76076310D01*
X76785000Y-75385750D01*
X76626250Y-75227000D01*
X75427000Y-75227000D01*
X75173000Y-75227000D01*
X73973750Y-75227000D01*
X73815000Y-75385750D01*
X62885000Y-75385750D01*
X62885000Y-72752532D01*
X63327073Y-72752532D01*
X63425736Y-73019387D01*
X64035461Y-73245908D01*
X64685460Y-73221856D01*
X65174264Y-73019387D01*
X65272927Y-72752532D01*
X69827073Y-72752532D01*
X69925736Y-73019387D01*
X70535461Y-73245908D01*
X71185460Y-73221856D01*
X71674264Y-73019387D01*
X71772927Y-72752532D01*
X70800000Y-71779605D01*
X69827073Y-72752532D01*
X65272927Y-72752532D01*
X64300000Y-71779605D01*
X63327073Y-72752532D01*
X62885000Y-72752532D01*
X62885000Y-72475886D01*
X63147468Y-72572927D01*
X64120395Y-71600000D01*
X64479605Y-71600000D01*
X65452532Y-72572927D01*
X65719387Y-72474264D01*
X65945908Y-71864539D01*
X65926331Y-71335461D01*
X69154092Y-71335461D01*
X69178144Y-71985460D01*
X69380613Y-72474264D01*
X69647468Y-72572927D01*
X70620395Y-71600000D01*
X70979605Y-71600000D01*
X71952532Y-72572927D01*
X72219387Y-72474264D01*
X72445908Y-71864539D01*
X72421856Y-71214540D01*
X72219387Y-70725736D01*
X71952532Y-70627073D01*
X70979605Y-71600000D01*
X70620395Y-71600000D01*
X69647468Y-70627073D01*
X69380613Y-70725736D01*
X69154092Y-71335461D01*
X65926331Y-71335461D01*
X65921856Y-71214540D01*
X65719387Y-70725736D01*
X65452532Y-70627073D01*
X64479605Y-71600000D01*
X64120395Y-71600000D01*
X63147468Y-70627073D01*
X62885000Y-70724114D01*
X62885000Y-70447468D01*
X63327073Y-70447468D01*
X64300000Y-71420395D01*
X65272927Y-70447468D01*
X69827073Y-70447468D01*
X70800000Y-71420395D01*
X71772927Y-70447468D01*
X71674264Y-70180613D01*
X71064539Y-69954092D01*
X70414540Y-69978144D01*
X69925736Y-70180613D01*
X69827073Y-70447468D01*
X65272927Y-70447468D01*
X65174264Y-70180613D01*
X64564539Y-69954092D01*
X63914540Y-69978144D01*
X63425736Y-70180613D01*
X63327073Y-70447468D01*
X62885000Y-70447468D01*
X62885000Y-67956348D01*
X62913914Y-68026153D01*
X63373847Y-68486086D01*
X63974778Y-68735000D01*
X64625222Y-68735000D01*
X65226153Y-68486086D01*
X65686086Y-68026153D01*
X65703132Y-67985000D01*
X69396868Y-67985000D01*
X69413914Y-68026153D01*
X69873847Y-68486086D01*
X70474778Y-68735000D01*
X71125222Y-68735000D01*
X71726153Y-68486086D01*
X72186086Y-68026153D01*
X72412310Y-67480000D01*
X73785908Y-67480000D01*
X73901161Y-68059418D01*
X74229375Y-68550625D01*
X74527761Y-68750000D01*
X74229375Y-68949375D01*
X73901161Y-69440582D01*
X73785908Y-70020000D01*
X73901161Y-70599418D01*
X74229375Y-71090625D01*
X74527761Y-71290000D01*
X74229375Y-71489375D01*
X73901161Y-71980582D01*
X73785908Y-72560000D01*
X73901161Y-73139418D01*
X74229375Y-73630625D01*
X74251033Y-73645096D01*
X74090302Y-73711673D01*
X73911673Y-73890301D01*
X73815000Y-74123690D01*
X73815000Y-74814250D01*
X73973750Y-74973000D01*
X75173000Y-74973000D01*
X75173000Y-74953000D01*
X75427000Y-74953000D01*
X75427000Y-74973000D01*
X76626250Y-74973000D01*
X76785000Y-74814250D01*
X76785000Y-74123690D01*
X76688327Y-73890301D01*
X76509698Y-73711673D01*
X76348967Y-73645096D01*
X76370625Y-73630625D01*
X76698839Y-73139418D01*
X76814092Y-72560000D01*
X76698839Y-71980582D01*
X76370625Y-71489375D01*
X76072239Y-71290000D01*
X76370625Y-71090625D01*
X76698839Y-70599418D01*
X76814092Y-70020000D01*
X76698839Y-69440582D01*
X76370625Y-68949375D01*
X76072239Y-68750000D01*
X76370625Y-68550625D01*
X76698839Y-68059418D01*
X76814092Y-67480000D01*
X76698839Y-66900582D01*
X76370625Y-66409375D01*
X75879418Y-66081161D01*
X75446256Y-65995000D01*
X75153744Y-65995000D01*
X74720582Y-66081161D01*
X74229375Y-66409375D01*
X73901161Y-66900582D01*
X73785908Y-67480000D01*
X72412310Y-67480000D01*
X72435000Y-67425222D01*
X72435000Y-66774778D01*
X72186086Y-66173847D01*
X71726153Y-65713914D01*
X71125222Y-65465000D01*
X70474778Y-65465000D01*
X69873847Y-65713914D01*
X69413914Y-66173847D01*
X69396868Y-66215000D01*
X65703132Y-66215000D01*
X65686086Y-66173847D01*
X65226153Y-65713914D01*
X64625222Y-65465000D01*
X63974778Y-65465000D01*
X63373847Y-65713914D01*
X62913914Y-66173847D01*
X62885000Y-66243652D01*
X62885000Y-60086413D01*
X63052235Y-60198157D01*
X63300000Y-60247440D01*
X65300000Y-60247440D01*
X65547765Y-60198157D01*
X65757809Y-60057809D01*
X65898157Y-59847765D01*
X65947440Y-59600000D01*
X65947440Y-57600000D01*
X65898157Y-57352235D01*
X65853232Y-57285000D01*
X69747126Y-57285000D01*
X69481379Y-57550747D01*
G36*
X128387000Y-102573000D02*
X128407000Y-102573000D01*
X128407000Y-102827000D01*
X128387000Y-102827000D01*
X128387000Y-102847000D01*
X128133000Y-102847000D01*
X128133000Y-102827000D01*
X128113000Y-102827000D01*
X128113000Y-102573000D01*
X128133000Y-102573000D01*
X128133000Y-102553000D01*
X128387000Y-102553000D01*
X128387000Y-102573000D01*
X128387000Y-102573000D01*
G37*
X128387000Y-102573000D02*
X128407000Y-102573000D01*
X128407000Y-102827000D01*
X128387000Y-102827000D01*
X128387000Y-102847000D01*
X128133000Y-102847000D01*
X128133000Y-102827000D01*
X128113000Y-102827000D01*
X128113000Y-102573000D01*
X128133000Y-102573000D01*
X128133000Y-102553000D01*
X128387000Y-102553000D01*
X128387000Y-102573000D01*
G36*
X137432569Y-78476280D02*
X137723720Y-78767431D01*
X138104126Y-78925000D01*
X138515874Y-78925000D01*
X138878007Y-78775000D01*
X139723422Y-78775000D01*
X141652577Y-80704156D01*
X141701951Y-80778049D01*
X141775844Y-80827423D01*
X141775845Y-80827424D01*
X141966313Y-80954691D01*
X141994690Y-80973652D01*
X142252835Y-81025000D01*
X142252839Y-81025000D01*
X142340000Y-81042337D01*
X142427161Y-81025000D01*
X145605344Y-81025000D01*
X145729375Y-81210625D01*
X146027761Y-81410000D01*
X145729375Y-81609375D01*
X145401161Y-82100582D01*
X145285908Y-82680000D01*
X145401161Y-83259418D01*
X145729375Y-83750625D01*
X146027761Y-83950000D01*
X145729375Y-84149375D01*
X145401161Y-84640582D01*
X145285908Y-85220000D01*
X145401161Y-85799418D01*
X145729375Y-86290625D01*
X146048478Y-86503843D01*
X145918642Y-86564817D01*
X145528355Y-86993076D01*
X145358524Y-87403110D01*
X145479845Y-87633000D01*
X146673000Y-87633000D01*
X146673000Y-87613000D01*
X146927000Y-87613000D01*
X146927000Y-87633000D01*
X146947000Y-87633000D01*
X146947000Y-87887000D01*
X146927000Y-87887000D01*
X146927000Y-89080819D01*
X147156892Y-89201486D01*
X147681358Y-88955183D01*
X147915001Y-88698809D01*
X147915001Y-89091999D01*
X146892000Y-90115000D01*
X143147007Y-90115000D01*
X143049999Y-90095704D01*
X142952991Y-90115000D01*
X142952988Y-90115000D01*
X142665672Y-90172151D01*
X142339855Y-90389855D01*
X142284902Y-90472098D01*
X137426007Y-95330993D01*
X137385000Y-95231993D01*
X137385000Y-88116890D01*
X145358524Y-88116890D01*
X145528355Y-88526924D01*
X145918642Y-88955183D01*
X146443108Y-89201486D01*
X146673000Y-89080819D01*
X146673000Y-87887000D01*
X145479845Y-87887000D01*
X145358524Y-88116890D01*
X137385000Y-88116890D01*
X137385000Y-78361438D01*
X137432569Y-78476280D01*
X137432569Y-78476280D01*
G37*
X137432569Y-78476280D02*
X137723720Y-78767431D01*
X138104126Y-78925000D01*
X138515874Y-78925000D01*
X138878007Y-78775000D01*
X139723422Y-78775000D01*
X141652577Y-80704156D01*
X141701951Y-80778049D01*
X141775844Y-80827423D01*
X141775845Y-80827424D01*
X141966313Y-80954691D01*
X141994690Y-80973652D01*
X142252835Y-81025000D01*
X142252839Y-81025000D01*
X142340000Y-81042337D01*
X142427161Y-81025000D01*
X145605344Y-81025000D01*
X145729375Y-81210625D01*
X146027761Y-81410000D01*
X145729375Y-81609375D01*
X145401161Y-82100582D01*
X145285908Y-82680000D01*
X145401161Y-83259418D01*
X145729375Y-83750625D01*
X146027761Y-83950000D01*
X145729375Y-84149375D01*
X145401161Y-84640582D01*
X145285908Y-85220000D01*
X145401161Y-85799418D01*
X145729375Y-86290625D01*
X146048478Y-86503843D01*
X145918642Y-86564817D01*
X145528355Y-86993076D01*
X145358524Y-87403110D01*
X145479845Y-87633000D01*
X146673000Y-87633000D01*
X146673000Y-87613000D01*
X146927000Y-87613000D01*
X146927000Y-87633000D01*
X146947000Y-87633000D01*
X146947000Y-87887000D01*
X146927000Y-87887000D01*
X146927000Y-89080819D01*
X147156892Y-89201486D01*
X147681358Y-88955183D01*
X147915001Y-88698809D01*
X147915001Y-89091999D01*
X146892000Y-90115000D01*
X143147007Y-90115000D01*
X143049999Y-90095704D01*
X142952991Y-90115000D01*
X142952988Y-90115000D01*
X142665672Y-90172151D01*
X142339855Y-90389855D01*
X142284902Y-90472098D01*
X137426007Y-95330993D01*
X137385000Y-95231993D01*
X137385000Y-88116890D01*
X145358524Y-88116890D01*
X145528355Y-88526924D01*
X145918642Y-88955183D01*
X146443108Y-89201486D01*
X146673000Y-89080819D01*
X146673000Y-87887000D01*
X145479845Y-87887000D01*
X145358524Y-88116890D01*
X137385000Y-88116890D01*
X137385000Y-78361438D01*
X137432569Y-78476280D01*
G36*
X132205000Y-84856579D02*
X132205000Y-87347480D01*
X132024148Y-87272569D01*
X131287425Y-86535847D01*
X131238049Y-86461951D01*
X130945310Y-86266348D01*
X130687165Y-86215000D01*
X130687161Y-86215000D01*
X130600000Y-86197663D01*
X130512839Y-86215000D01*
X125500894Y-86215000D01*
X124885000Y-85599107D01*
X124885000Y-84194456D01*
X124900000Y-84197440D01*
X126900000Y-84197440D01*
X127147765Y-84148157D01*
X127357809Y-84007809D01*
X127498157Y-83797765D01*
X127547440Y-83550000D01*
X127547440Y-83050000D01*
X127520064Y-82912369D01*
X127535000Y-82876310D01*
X127535000Y-82783750D01*
X127386742Y-82635492D01*
X127357809Y-82592191D01*
X127219836Y-82500000D01*
X127357809Y-82407809D01*
X127386742Y-82364508D01*
X127535000Y-82216250D01*
X127535000Y-82123690D01*
X127520064Y-82087631D01*
X127547440Y-81950000D01*
X127547440Y-81450000D01*
X127517603Y-81300000D01*
X127547440Y-81150000D01*
X127547440Y-80650000D01*
X127520064Y-80512369D01*
X127535000Y-80476310D01*
X127535000Y-80383750D01*
X127386742Y-80235492D01*
X127381069Y-80227002D01*
X127535000Y-80227002D01*
X127535000Y-80186578D01*
X132205000Y-84856579D01*
X132205000Y-84856579D01*
G37*
X132205000Y-84856579D02*
X132205000Y-87347480D01*
X132024148Y-87272569D01*
X131287425Y-86535847D01*
X131238049Y-86461951D01*
X130945310Y-86266348D01*
X130687165Y-86215000D01*
X130687161Y-86215000D01*
X130600000Y-86197663D01*
X130512839Y-86215000D01*
X125500894Y-86215000D01*
X124885000Y-85599107D01*
X124885000Y-84194456D01*
X124900000Y-84197440D01*
X126900000Y-84197440D01*
X127147765Y-84148157D01*
X127357809Y-84007809D01*
X127498157Y-83797765D01*
X127547440Y-83550000D01*
X127547440Y-83050000D01*
X127520064Y-82912369D01*
X127535000Y-82876310D01*
X127535000Y-82783750D01*
X127386742Y-82635492D01*
X127357809Y-82592191D01*
X127219836Y-82500000D01*
X127357809Y-82407809D01*
X127386742Y-82364508D01*
X127535000Y-82216250D01*
X127535000Y-82123690D01*
X127520064Y-82087631D01*
X127547440Y-81950000D01*
X127547440Y-81450000D01*
X127517603Y-81300000D01*
X127547440Y-81150000D01*
X127547440Y-80650000D01*
X127520064Y-80512369D01*
X127535000Y-80476310D01*
X127535000Y-80383750D01*
X127386742Y-80235492D01*
X127381069Y-80227002D01*
X127535000Y-80227002D01*
X127535000Y-80186578D01*
X132205000Y-84856579D01*
G36*
X130063421Y-74315000D02*
X127547440Y-74315000D01*
X127547440Y-74250000D01*
X127520064Y-74112369D01*
X127535000Y-74076310D01*
X127535000Y-73983750D01*
X127386742Y-73835492D01*
X127357809Y-73792191D01*
X127219836Y-73700000D01*
X127357809Y-73607809D01*
X127386742Y-73564508D01*
X127535000Y-73416250D01*
X127535000Y-73323690D01*
X127520064Y-73287631D01*
X127547440Y-73150000D01*
X127547440Y-72650000D01*
X127498157Y-72402235D01*
X127357809Y-72192191D01*
X127147765Y-72051843D01*
X126900000Y-72002560D01*
X124900000Y-72002560D01*
X124652235Y-72051843D01*
X124442191Y-72192191D01*
X124301843Y-72402235D01*
X124252560Y-72650000D01*
X124252560Y-73150000D01*
X124279936Y-73287631D01*
X124265000Y-73323690D01*
X124265000Y-73416250D01*
X124413258Y-73564508D01*
X124418931Y-73572998D01*
X124265000Y-73572998D01*
X124265000Y-73615000D01*
X118287161Y-73615000D01*
X118200000Y-73597663D01*
X118112839Y-73615000D01*
X118112835Y-73615000D01*
X117854690Y-73666348D01*
X117635845Y-73812576D01*
X117635844Y-73812577D01*
X117561951Y-73861951D01*
X117512577Y-73935844D01*
X114585853Y-76862569D01*
X114223720Y-77012569D01*
X113932569Y-77303720D01*
X113822069Y-77570491D01*
X113685000Y-77433422D01*
X113685000Y-74648007D01*
X113835000Y-74285874D01*
X113835000Y-73874126D01*
X113792409Y-73771302D01*
X113900000Y-73663711D01*
X113923720Y-73687431D01*
X114304126Y-73845000D01*
X114715874Y-73845000D01*
X115096280Y-73687431D01*
X115387431Y-73396280D01*
X115537431Y-73034147D01*
X116886579Y-71685000D01*
X127433422Y-71685000D01*
X130063421Y-74315000D01*
X130063421Y-74315000D01*
G37*
X130063421Y-74315000D02*
X127547440Y-74315000D01*
X127547440Y-74250000D01*
X127520064Y-74112369D01*
X127535000Y-74076310D01*
X127535000Y-73983750D01*
X127386742Y-73835492D01*
X127357809Y-73792191D01*
X127219836Y-73700000D01*
X127357809Y-73607809D01*
X127386742Y-73564508D01*
X127535000Y-73416250D01*
X127535000Y-73323690D01*
X127520064Y-73287631D01*
X127547440Y-73150000D01*
X127547440Y-72650000D01*
X127498157Y-72402235D01*
X127357809Y-72192191D01*
X127147765Y-72051843D01*
X126900000Y-72002560D01*
X124900000Y-72002560D01*
X124652235Y-72051843D01*
X124442191Y-72192191D01*
X124301843Y-72402235D01*
X124252560Y-72650000D01*
X124252560Y-73150000D01*
X124279936Y-73287631D01*
X124265000Y-73323690D01*
X124265000Y-73416250D01*
X124413258Y-73564508D01*
X124418931Y-73572998D01*
X124265000Y-73572998D01*
X124265000Y-73615000D01*
X118287161Y-73615000D01*
X118200000Y-73597663D01*
X118112839Y-73615000D01*
X118112835Y-73615000D01*
X117854690Y-73666348D01*
X117635845Y-73812576D01*
X117635844Y-73812577D01*
X117561951Y-73861951D01*
X117512577Y-73935844D01*
X114585853Y-76862569D01*
X114223720Y-77012569D01*
X113932569Y-77303720D01*
X113822069Y-77570491D01*
X113685000Y-77433422D01*
X113685000Y-74648007D01*
X113835000Y-74285874D01*
X113835000Y-73874126D01*
X113792409Y-73771302D01*
X113900000Y-73663711D01*
X113923720Y-73687431D01*
X114304126Y-73845000D01*
X114715874Y-73845000D01*
X115096280Y-73687431D01*
X115387431Y-73396280D01*
X115537431Y-73034147D01*
X116886579Y-71685000D01*
X127433422Y-71685000D01*
X130063421Y-74315000D01*
G36*
X141272577Y-72624156D02*
X141321951Y-72698049D01*
X141395844Y-72747423D01*
X141395845Y-72747424D01*
X141489497Y-72810000D01*
X141614690Y-72893652D01*
X141872835Y-72945000D01*
X141872839Y-72945000D01*
X141959999Y-72962337D01*
X142047159Y-72945000D01*
X142605344Y-72945000D01*
X142729375Y-73130625D01*
X142751033Y-73145096D01*
X142590302Y-73211673D01*
X142411673Y-73390301D01*
X142315000Y-73623690D01*
X142315000Y-74314250D01*
X142473750Y-74473000D01*
X143673000Y-74473000D01*
X143673000Y-74453000D01*
X143927000Y-74453000D01*
X143927000Y-74473000D01*
X145126250Y-74473000D01*
X145285000Y-74314250D01*
X145285000Y-73623690D01*
X145188327Y-73390301D01*
X145009698Y-73211673D01*
X144848967Y-73145096D01*
X144870625Y-73130625D01*
X145198839Y-72639418D01*
X145296022Y-72150846D01*
X145401161Y-72679418D01*
X145729375Y-73170625D01*
X146220582Y-73498839D01*
X146653744Y-73585000D01*
X146946256Y-73585000D01*
X147379418Y-73498839D01*
X147870625Y-73170625D01*
X147910047Y-73111626D01*
X147915001Y-73116580D01*
X147915001Y-76163360D01*
X147897765Y-76151843D01*
X147650000Y-76102560D01*
X145950000Y-76102560D01*
X145702235Y-76151843D01*
X145492191Y-76292191D01*
X145351843Y-76502235D01*
X145309522Y-76715000D01*
X142166579Y-76715000D01*
X140337329Y-74885750D01*
X142315000Y-74885750D01*
X142315000Y-75576310D01*
X142411673Y-75809699D01*
X142590302Y-75988327D01*
X142823691Y-76085000D01*
X143514250Y-76085000D01*
X143673000Y-75926250D01*
X143673000Y-74727000D01*
X143927000Y-74727000D01*
X143927000Y-75926250D01*
X144085750Y-76085000D01*
X144776309Y-76085000D01*
X145009698Y-75988327D01*
X145188327Y-75809699D01*
X145285000Y-75576310D01*
X145285000Y-74885750D01*
X145126250Y-74727000D01*
X143927000Y-74727000D01*
X143673000Y-74727000D01*
X142473750Y-74727000D01*
X142315000Y-74885750D01*
X140337329Y-74885750D01*
X138687405Y-73235827D01*
X138638029Y-73161931D01*
X138345290Y-72966328D01*
X138087145Y-72914980D01*
X138087141Y-72914980D01*
X137999980Y-72897643D01*
X137912819Y-72914980D01*
X131166559Y-72914980D01*
X130107645Y-71856066D01*
X130377431Y-71586280D01*
X130527431Y-71224148D01*
X130766579Y-70985000D01*
X136278524Y-70985000D01*
X136365685Y-71002337D01*
X136452846Y-70985000D01*
X136452850Y-70985000D01*
X136710995Y-70933652D01*
X137003734Y-70738049D01*
X137053110Y-70664153D01*
X137464153Y-70253110D01*
X137538049Y-70203734D01*
X137733652Y-69910995D01*
X137785000Y-69652850D01*
X137785000Y-69652846D01*
X137802337Y-69565685D01*
X137797025Y-69538977D01*
X137911362Y-69262941D01*
X141272577Y-72624156D01*
X141272577Y-72624156D01*
G37*
X141272577Y-72624156D02*
X141321951Y-72698049D01*
X141395844Y-72747423D01*
X141395845Y-72747424D01*
X141489497Y-72810000D01*
X141614690Y-72893652D01*
X141872835Y-72945000D01*
X141872839Y-72945000D01*
X141959999Y-72962337D01*
X142047159Y-72945000D01*
X142605344Y-72945000D01*
X142729375Y-73130625D01*
X142751033Y-73145096D01*
X142590302Y-73211673D01*
X142411673Y-73390301D01*
X142315000Y-73623690D01*
X142315000Y-74314250D01*
X142473750Y-74473000D01*
X143673000Y-74473000D01*
X143673000Y-74453000D01*
X143927000Y-74453000D01*
X143927000Y-74473000D01*
X145126250Y-74473000D01*
X145285000Y-74314250D01*
X145285000Y-73623690D01*
X145188327Y-73390301D01*
X145009698Y-73211673D01*
X144848967Y-73145096D01*
X144870625Y-73130625D01*
X145198839Y-72639418D01*
X145296022Y-72150846D01*
X145401161Y-72679418D01*
X145729375Y-73170625D01*
X146220582Y-73498839D01*
X146653744Y-73585000D01*
X146946256Y-73585000D01*
X147379418Y-73498839D01*
X147870625Y-73170625D01*
X147910047Y-73111626D01*
X147915001Y-73116580D01*
X147915001Y-76163360D01*
X147897765Y-76151843D01*
X147650000Y-76102560D01*
X145950000Y-76102560D01*
X145702235Y-76151843D01*
X145492191Y-76292191D01*
X145351843Y-76502235D01*
X145309522Y-76715000D01*
X142166579Y-76715000D01*
X140337329Y-74885750D01*
X142315000Y-74885750D01*
X142315000Y-75576310D01*
X142411673Y-75809699D01*
X142590302Y-75988327D01*
X142823691Y-76085000D01*
X143514250Y-76085000D01*
X143673000Y-75926250D01*
X143673000Y-74727000D01*
X143927000Y-74727000D01*
X143927000Y-75926250D01*
X144085750Y-76085000D01*
X144776309Y-76085000D01*
X145009698Y-75988327D01*
X145188327Y-75809699D01*
X145285000Y-75576310D01*
X145285000Y-74885750D01*
X145126250Y-74727000D01*
X143927000Y-74727000D01*
X143673000Y-74727000D01*
X142473750Y-74727000D01*
X142315000Y-74885750D01*
X140337329Y-74885750D01*
X138687405Y-73235827D01*
X138638029Y-73161931D01*
X138345290Y-72966328D01*
X138087145Y-72914980D01*
X138087141Y-72914980D01*
X137999980Y-72897643D01*
X137912819Y-72914980D01*
X131166559Y-72914980D01*
X130107645Y-71856066D01*
X130377431Y-71586280D01*
X130527431Y-71224148D01*
X130766579Y-70985000D01*
X136278524Y-70985000D01*
X136365685Y-71002337D01*
X136452846Y-70985000D01*
X136452850Y-70985000D01*
X136710995Y-70933652D01*
X137003734Y-70738049D01*
X137053110Y-70664153D01*
X137464153Y-70253110D01*
X137538049Y-70203734D01*
X137733652Y-69910995D01*
X137785000Y-69652850D01*
X137785000Y-69652846D01*
X137802337Y-69565685D01*
X137797025Y-69538977D01*
X137911362Y-69262941D01*
X141272577Y-72624156D01*
G04 #@! TD*
M02*
