G04 #@! TF.GenerationSoftware,KiCad,Pcbnew,(5.0.0)*
G04 #@! TF.CreationDate,2021-01-27T11:34:44+02:00*
G04 #@! TF.ProjectId,ESP32,45535033322E6B696361645F70636200,rev?*
G04 #@! TF.SameCoordinates,Original*
G04 #@! TF.FileFunction,Legend,Bot*
G04 #@! TF.FilePolarity,Positive*
%FSLAX46Y46*%
G04 Gerber Fmt 4.6, Leading zero omitted, Abs format (unit mm)*
G04 Created by KiCad (PCBNEW (5.0.0)) date 01/27/21 11:34:44*
%MOMM*%
%LPD*%
G01*
G04 APERTURE LIST*
%ADD10C,0.200000*%
%ADD11C,0.150000*%
%ADD12C,0.300000*%
%ADD13C,0.100000*%
%ADD14C,0.120000*%
%ADD15C,0.127000*%
%ADD16C,0.010000*%
G04 APERTURE END LIST*
D10*
X126121428Y-65892857D02*
X126121428Y-64692857D01*
X125607142Y-65892857D02*
X125607142Y-65264285D01*
X125664285Y-65150000D01*
X125778571Y-65092857D01*
X125950000Y-65092857D01*
X126064285Y-65150000D01*
X126121428Y-65207142D01*
X125207142Y-65092857D02*
X124750000Y-65092857D01*
X125035714Y-64692857D02*
X125035714Y-65721428D01*
X124978571Y-65835714D01*
X124864285Y-65892857D01*
X124750000Y-65892857D01*
X124521428Y-65092857D02*
X124064285Y-65092857D01*
X124350000Y-64692857D02*
X124350000Y-65721428D01*
X124292857Y-65835714D01*
X124178571Y-65892857D01*
X124064285Y-65892857D01*
X123664285Y-65092857D02*
X123664285Y-66292857D01*
X123664285Y-65150000D02*
X123550000Y-65092857D01*
X123321428Y-65092857D01*
X123207142Y-65150000D01*
X123150000Y-65207142D01*
X123092857Y-65321428D01*
X123092857Y-65664285D01*
X123150000Y-65778571D01*
X123207142Y-65835714D01*
X123321428Y-65892857D01*
X123550000Y-65892857D01*
X123664285Y-65835714D01*
X122635714Y-65835714D02*
X122521428Y-65892857D01*
X122292857Y-65892857D01*
X122178571Y-65835714D01*
X122121428Y-65721428D01*
X122121428Y-65664285D01*
X122178571Y-65550000D01*
X122292857Y-65492857D01*
X122464285Y-65492857D01*
X122578571Y-65435714D01*
X122635714Y-65321428D01*
X122635714Y-65264285D01*
X122578571Y-65150000D01*
X122464285Y-65092857D01*
X122292857Y-65092857D01*
X122178571Y-65150000D01*
X121607142Y-65778571D02*
X121550000Y-65835714D01*
X121607142Y-65892857D01*
X121664285Y-65835714D01*
X121607142Y-65778571D01*
X121607142Y-65892857D01*
X121607142Y-65150000D02*
X121550000Y-65207142D01*
X121607142Y-65264285D01*
X121664285Y-65207142D01*
X121607142Y-65150000D01*
X121607142Y-65264285D01*
X120178571Y-64635714D02*
X121207142Y-66178571D01*
X118921428Y-64635714D02*
X119950000Y-66178571D01*
X118007142Y-65092857D02*
X118007142Y-66064285D01*
X118064285Y-66178571D01*
X118121428Y-66235714D01*
X118235714Y-66292857D01*
X118407142Y-66292857D01*
X118521428Y-66235714D01*
X118007142Y-65835714D02*
X118121428Y-65892857D01*
X118349999Y-65892857D01*
X118464285Y-65835714D01*
X118521428Y-65778571D01*
X118578571Y-65664285D01*
X118578571Y-65321428D01*
X118521428Y-65207142D01*
X118464285Y-65150000D01*
X118349999Y-65092857D01*
X118121428Y-65092857D01*
X118007142Y-65150000D01*
X117435714Y-65892857D02*
X117435714Y-65092857D01*
X117435714Y-64692857D02*
X117492857Y-64750000D01*
X117435714Y-64807142D01*
X117378571Y-64750000D01*
X117435714Y-64692857D01*
X117435714Y-64807142D01*
X117035714Y-65092857D02*
X116578571Y-65092857D01*
X116864285Y-64692857D02*
X116864285Y-65721428D01*
X116807142Y-65835714D01*
X116692857Y-65892857D01*
X116578571Y-65892857D01*
X116178571Y-65892857D02*
X116178571Y-64692857D01*
X115664285Y-65892857D02*
X115664285Y-65264285D01*
X115721428Y-65150000D01*
X115835714Y-65092857D01*
X116007142Y-65092857D01*
X116121428Y-65150000D01*
X116178571Y-65207142D01*
X114578571Y-65092857D02*
X114578571Y-65892857D01*
X115092857Y-65092857D02*
X115092857Y-65721428D01*
X115035714Y-65835714D01*
X114921428Y-65892857D01*
X114749999Y-65892857D01*
X114635714Y-65835714D01*
X114578571Y-65778571D01*
X114007142Y-65892857D02*
X114007142Y-64692857D01*
X114007142Y-65150000D02*
X113892857Y-65092857D01*
X113664285Y-65092857D01*
X113549999Y-65150000D01*
X113492857Y-65207142D01*
X113435714Y-65321428D01*
X113435714Y-65664285D01*
X113492857Y-65778571D01*
X113549999Y-65835714D01*
X113664285Y-65892857D01*
X113892857Y-65892857D01*
X114007142Y-65835714D01*
X112921428Y-65778571D02*
X112864285Y-65835714D01*
X112921428Y-65892857D01*
X112978571Y-65835714D01*
X112921428Y-65778571D01*
X112921428Y-65892857D01*
X111835714Y-65835714D02*
X111949999Y-65892857D01*
X112178571Y-65892857D01*
X112292857Y-65835714D01*
X112349999Y-65778571D01*
X112407142Y-65664285D01*
X112407142Y-65321428D01*
X112349999Y-65207142D01*
X112292857Y-65150000D01*
X112178571Y-65092857D01*
X111949999Y-65092857D01*
X111835714Y-65150000D01*
X111149999Y-65892857D02*
X111264285Y-65835714D01*
X111321428Y-65778571D01*
X111378571Y-65664285D01*
X111378571Y-65321428D01*
X111321428Y-65207142D01*
X111264285Y-65150000D01*
X111149999Y-65092857D01*
X110978571Y-65092857D01*
X110864285Y-65150000D01*
X110807142Y-65207142D01*
X110749999Y-65321428D01*
X110749999Y-65664285D01*
X110807142Y-65778571D01*
X110864285Y-65835714D01*
X110978571Y-65892857D01*
X111149999Y-65892857D01*
X110235714Y-65892857D02*
X110235714Y-65092857D01*
X110235714Y-65207142D02*
X110178571Y-65150000D01*
X110064285Y-65092857D01*
X109892857Y-65092857D01*
X109778571Y-65150000D01*
X109721428Y-65264285D01*
X109721428Y-65892857D01*
X109721428Y-65264285D02*
X109664285Y-65150000D01*
X109549999Y-65092857D01*
X109378571Y-65092857D01*
X109264285Y-65150000D01*
X109207142Y-65264285D01*
X109207142Y-65892857D01*
X107778571Y-64635714D02*
X108807142Y-66178571D01*
X107378571Y-65092857D02*
X107378571Y-65892857D01*
X107378571Y-65207142D02*
X107321428Y-65150000D01*
X107207142Y-65092857D01*
X107035714Y-65092857D01*
X106921428Y-65150000D01*
X106864285Y-65264285D01*
X106864285Y-65892857D01*
X105778571Y-65892857D02*
X105778571Y-65264285D01*
X105835714Y-65150000D01*
X105949999Y-65092857D01*
X106178571Y-65092857D01*
X106292857Y-65150000D01*
X105778571Y-65835714D02*
X105892857Y-65892857D01*
X106178571Y-65892857D01*
X106292857Y-65835714D01*
X106349999Y-65721428D01*
X106349999Y-65607142D01*
X106292857Y-65492857D01*
X106178571Y-65435714D01*
X105892857Y-65435714D01*
X105778571Y-65378571D01*
X104692857Y-65892857D02*
X104692857Y-64692857D01*
X104692857Y-65835714D02*
X104807142Y-65892857D01*
X105035714Y-65892857D01*
X105149999Y-65835714D01*
X105207142Y-65778571D01*
X105264285Y-65664285D01*
X105264285Y-65321428D01*
X105207142Y-65207142D01*
X105149999Y-65150000D01*
X105035714Y-65092857D01*
X104807142Y-65092857D01*
X104692857Y-65150000D01*
X104121428Y-65892857D02*
X104121428Y-65092857D01*
X104121428Y-64692857D02*
X104178571Y-64750000D01*
X104121428Y-64807142D01*
X104064285Y-64750000D01*
X104121428Y-64692857D01*
X104121428Y-64807142D01*
X103549999Y-65892857D02*
X103549999Y-65092857D01*
X103549999Y-65207142D02*
X103492857Y-65150000D01*
X103378571Y-65092857D01*
X103207142Y-65092857D01*
X103092857Y-65150000D01*
X103035714Y-65264285D01*
X103035714Y-65892857D01*
X103035714Y-65264285D02*
X102978571Y-65150000D01*
X102864285Y-65092857D01*
X102692857Y-65092857D01*
X102578571Y-65150000D01*
X102521428Y-65264285D01*
X102521428Y-65892857D01*
X102007142Y-64807142D02*
X101949999Y-64750000D01*
X101835714Y-64692857D01*
X101549999Y-64692857D01*
X101435714Y-64750000D01*
X101378571Y-64807142D01*
X101321428Y-64921428D01*
X101321428Y-65035714D01*
X101378571Y-65207142D01*
X102064285Y-65892857D01*
X101321428Y-65892857D01*
X100292857Y-65092857D02*
X100292857Y-65892857D01*
X100578571Y-64635714D02*
X100864285Y-65492857D01*
X100121428Y-65492857D01*
X98807142Y-64635714D02*
X99835714Y-66178571D01*
X121242857Y-63142857D02*
X121242857Y-61942857D01*
X120728571Y-63142857D02*
X120728571Y-62514285D01*
X120785714Y-62400000D01*
X120899999Y-62342857D01*
X121071428Y-62342857D01*
X121185714Y-62400000D01*
X121242857Y-62457142D01*
X120328571Y-62342857D02*
X119871428Y-62342857D01*
X120157142Y-61942857D02*
X120157142Y-62971428D01*
X120099999Y-63085714D01*
X119985714Y-63142857D01*
X119871428Y-63142857D01*
X119642857Y-62342857D02*
X119185714Y-62342857D01*
X119471428Y-61942857D02*
X119471428Y-62971428D01*
X119414285Y-63085714D01*
X119299999Y-63142857D01*
X119185714Y-63142857D01*
X118785714Y-62342857D02*
X118785714Y-63542857D01*
X118785714Y-62400000D02*
X118671428Y-62342857D01*
X118442857Y-62342857D01*
X118328571Y-62400000D01*
X118271428Y-62457142D01*
X118214285Y-62571428D01*
X118214285Y-62914285D01*
X118271428Y-63028571D01*
X118328571Y-63085714D01*
X118442857Y-63142857D01*
X118671428Y-63142857D01*
X118785714Y-63085714D01*
X117757142Y-63085714D02*
X117642857Y-63142857D01*
X117414285Y-63142857D01*
X117299999Y-63085714D01*
X117242857Y-62971428D01*
X117242857Y-62914285D01*
X117299999Y-62800000D01*
X117414285Y-62742857D01*
X117585714Y-62742857D01*
X117699999Y-62685714D01*
X117757142Y-62571428D01*
X117757142Y-62514285D01*
X117699999Y-62400000D01*
X117585714Y-62342857D01*
X117414285Y-62342857D01*
X117299999Y-62400000D01*
X116728571Y-63028571D02*
X116671428Y-63085714D01*
X116728571Y-63142857D01*
X116785714Y-63085714D01*
X116728571Y-63028571D01*
X116728571Y-63142857D01*
X116728571Y-62400000D02*
X116671428Y-62457142D01*
X116728571Y-62514285D01*
X116785714Y-62457142D01*
X116728571Y-62400000D01*
X116728571Y-62514285D01*
X115299999Y-61885714D02*
X116328571Y-63428571D01*
X114042857Y-61885714D02*
X115071428Y-63428571D01*
X113642857Y-62342857D02*
X113642857Y-63142857D01*
X113642857Y-62457142D02*
X113585714Y-62400000D01*
X113471428Y-62342857D01*
X113300000Y-62342857D01*
X113185714Y-62400000D01*
X113128571Y-62514285D01*
X113128571Y-63142857D01*
X112042857Y-63142857D02*
X112042857Y-62514285D01*
X112100000Y-62400000D01*
X112214285Y-62342857D01*
X112442857Y-62342857D01*
X112557142Y-62400000D01*
X112042857Y-63085714D02*
X112157142Y-63142857D01*
X112442857Y-63142857D01*
X112557142Y-63085714D01*
X112614285Y-62971428D01*
X112614285Y-62857142D01*
X112557142Y-62742857D01*
X112442857Y-62685714D01*
X112157142Y-62685714D01*
X112042857Y-62628571D01*
X110957142Y-63142857D02*
X110957142Y-61942857D01*
X110957142Y-63085714D02*
X111071428Y-63142857D01*
X111300000Y-63142857D01*
X111414285Y-63085714D01*
X111471428Y-63028571D01*
X111528571Y-62914285D01*
X111528571Y-62571428D01*
X111471428Y-62457142D01*
X111414285Y-62400000D01*
X111300000Y-62342857D01*
X111071428Y-62342857D01*
X110957142Y-62400000D01*
X110385714Y-63142857D02*
X110385714Y-62342857D01*
X110385714Y-61942857D02*
X110442857Y-62000000D01*
X110385714Y-62057142D01*
X110328571Y-62000000D01*
X110385714Y-61942857D01*
X110385714Y-62057142D01*
X109814285Y-63142857D02*
X109814285Y-62342857D01*
X109814285Y-62457142D02*
X109757142Y-62400000D01*
X109642857Y-62342857D01*
X109471428Y-62342857D01*
X109357142Y-62400000D01*
X109300000Y-62514285D01*
X109300000Y-63142857D01*
X109300000Y-62514285D02*
X109242857Y-62400000D01*
X109128571Y-62342857D01*
X108957142Y-62342857D01*
X108842857Y-62400000D01*
X108785714Y-62514285D01*
X108785714Y-63142857D01*
X108214285Y-63028571D02*
X108157142Y-63085714D01*
X108214285Y-63142857D01*
X108271428Y-63085714D01*
X108214285Y-63028571D01*
X108214285Y-63142857D01*
X107814285Y-62342857D02*
X107357142Y-62342857D01*
X107642857Y-61942857D02*
X107642857Y-62971428D01*
X107585714Y-63085714D01*
X107471428Y-63142857D01*
X107357142Y-63142857D01*
X106785714Y-63142857D02*
X106900000Y-63085714D01*
X106957142Y-63028571D01*
X107014285Y-62914285D01*
X107014285Y-62571428D01*
X106957142Y-62457142D01*
X106900000Y-62400000D01*
X106785714Y-62342857D01*
X106614285Y-62342857D01*
X106500000Y-62400000D01*
X106442857Y-62457142D01*
X106385714Y-62571428D01*
X106385714Y-62914285D01*
X106442857Y-63028571D01*
X106500000Y-63085714D01*
X106614285Y-63142857D01*
X106785714Y-63142857D01*
X105871428Y-62342857D02*
X105871428Y-63542857D01*
X105871428Y-62400000D02*
X105757142Y-62342857D01*
X105528571Y-62342857D01*
X105414285Y-62400000D01*
X105357142Y-62457142D01*
X105300000Y-62571428D01*
X105300000Y-62914285D01*
X105357142Y-63028571D01*
X105414285Y-63085714D01*
X105528571Y-63142857D01*
X105757142Y-63142857D01*
X105871428Y-63085714D01*
D11*
X145311904Y-66397619D02*
X145264285Y-66350000D01*
X145169047Y-66302380D01*
X144930952Y-66302380D01*
X144835714Y-66350000D01*
X144788095Y-66397619D01*
X144740476Y-66492857D01*
X144740476Y-66588095D01*
X144788095Y-66730952D01*
X145359523Y-67302380D01*
X144740476Y-67302380D01*
X143788095Y-67302380D02*
X144359523Y-67302380D01*
X144073809Y-67302380D02*
X144073809Y-66302380D01*
X144169047Y-66445238D01*
X144264285Y-66540476D01*
X144359523Y-66588095D01*
X142311904Y-69052380D02*
X141740476Y-69052380D01*
X142026190Y-70052380D02*
X142026190Y-69052380D01*
X141502380Y-69052380D02*
X140835714Y-70052380D01*
X140835714Y-69052380D02*
X141502380Y-70052380D01*
X141716666Y-72552380D02*
X142049999Y-72076190D01*
X142288095Y-72552380D02*
X142288095Y-71552380D01*
X141907142Y-71552380D01*
X141811904Y-71600000D01*
X141764285Y-71647619D01*
X141716666Y-71742857D01*
X141716666Y-71885714D01*
X141764285Y-71980952D01*
X141811904Y-72028571D01*
X141907142Y-72076190D01*
X142288095Y-72076190D01*
X141383333Y-71552380D02*
X140716666Y-72552380D01*
X140716666Y-71552380D02*
X141383333Y-72552380D01*
D10*
X90909523Y-91450000D02*
X90985714Y-91411904D01*
X91100000Y-91411904D01*
X91214285Y-91450000D01*
X91290476Y-91526190D01*
X91328571Y-91602380D01*
X91366666Y-91754761D01*
X91366666Y-91869047D01*
X91328571Y-92021428D01*
X91290476Y-92097619D01*
X91214285Y-92173809D01*
X91100000Y-92211904D01*
X91023809Y-92211904D01*
X90909523Y-92173809D01*
X90871428Y-92135714D01*
X90871428Y-91869047D01*
X91023809Y-91869047D01*
X90528571Y-92211904D02*
X90528571Y-91411904D01*
X90071428Y-92211904D01*
X90071428Y-91411904D01*
X89690476Y-92211904D02*
X89690476Y-91411904D01*
X89500000Y-91411904D01*
X89385714Y-91450000D01*
X89309523Y-91526190D01*
X89271428Y-91602380D01*
X89233333Y-91754761D01*
X89233333Y-91869047D01*
X89271428Y-92021428D01*
X89309523Y-92097619D01*
X89385714Y-92173809D01*
X89500000Y-92211904D01*
X89690476Y-92211904D01*
X91328571Y-94357142D02*
X90719047Y-94357142D01*
X91023809Y-94661904D02*
X91023809Y-94052380D01*
X89957142Y-93861904D02*
X90338095Y-93861904D01*
X90376190Y-94242857D01*
X90338095Y-94204761D01*
X90261904Y-94166666D01*
X90071428Y-94166666D01*
X89995238Y-94204761D01*
X89957142Y-94242857D01*
X89919047Y-94319047D01*
X89919047Y-94509523D01*
X89957142Y-94585714D01*
X89995238Y-94623809D01*
X90071428Y-94661904D01*
X90261904Y-94661904D01*
X90338095Y-94623809D01*
X90376190Y-94585714D01*
X89690476Y-93861904D02*
X89423809Y-94661904D01*
X89157142Y-93861904D01*
D11*
X82438095Y-74671428D02*
X81676190Y-74671428D01*
X82057142Y-75052380D02*
X82057142Y-74290476D01*
X81295238Y-74052380D02*
X80676190Y-74052380D01*
X81009523Y-74433333D01*
X80866666Y-74433333D01*
X80771428Y-74480952D01*
X80723809Y-74528571D01*
X80676190Y-74623809D01*
X80676190Y-74861904D01*
X80723809Y-74957142D01*
X80771428Y-75004761D01*
X80866666Y-75052380D01*
X81152380Y-75052380D01*
X81247619Y-75004761D01*
X81295238Y-74957142D01*
X80342857Y-74385714D02*
X80104761Y-75052380D01*
X79866666Y-74385714D01*
X149561904Y-66499999D02*
X148761904Y-66499999D01*
X149561904Y-67338095D02*
X149180952Y-67071428D01*
X149561904Y-66880952D02*
X148761904Y-66880952D01*
X148761904Y-67185714D01*
X148799999Y-67261904D01*
X148838095Y-67299999D01*
X148914285Y-67338095D01*
X149028571Y-67338095D01*
X149104761Y-67299999D01*
X149142857Y-67261904D01*
X149180952Y-67185714D01*
X149180952Y-66880952D01*
D10*
X82464285Y-86457142D02*
X82407142Y-86400000D01*
X82292857Y-86342857D01*
X82007142Y-86342857D01*
X81892857Y-86400000D01*
X81835714Y-86457142D01*
X81778571Y-86571428D01*
X81778571Y-86685714D01*
X81835714Y-86857142D01*
X82521428Y-87542857D01*
X81778571Y-87542857D01*
X80692857Y-86342857D02*
X81264285Y-86342857D01*
X81321428Y-86914285D01*
X81264285Y-86857142D01*
X81149999Y-86800000D01*
X80864285Y-86800000D01*
X80749999Y-86857142D01*
X80692857Y-86914285D01*
X80635714Y-87028571D01*
X80635714Y-87314285D01*
X80692857Y-87428571D01*
X80749999Y-87485714D01*
X80864285Y-87542857D01*
X81149999Y-87542857D01*
X81264285Y-87485714D01*
X81321428Y-87428571D01*
X82464285Y-81307142D02*
X82407142Y-81250000D01*
X82292857Y-81192857D01*
X82007142Y-81192857D01*
X81892857Y-81250000D01*
X81835714Y-81307142D01*
X81778571Y-81421428D01*
X81778571Y-81535714D01*
X81835714Y-81707142D01*
X82521428Y-82392857D01*
X81778571Y-82392857D01*
X80749999Y-81192857D02*
X80978571Y-81192857D01*
X81092857Y-81250000D01*
X81149999Y-81307142D01*
X81264285Y-81478571D01*
X81321428Y-81707142D01*
X81321428Y-82164285D01*
X81264285Y-82278571D01*
X81207142Y-82335714D01*
X81092857Y-82392857D01*
X80864285Y-82392857D01*
X80749999Y-82335714D01*
X80692857Y-82278571D01*
X80635714Y-82164285D01*
X80635714Y-81878571D01*
X80692857Y-81764285D01*
X80749999Y-81707142D01*
X80864285Y-81650000D01*
X81092857Y-81650000D01*
X81207142Y-81707142D01*
X81264285Y-81764285D01*
X81321428Y-81878571D01*
X82464285Y-83807142D02*
X82407142Y-83750000D01*
X82292857Y-83692857D01*
X82007142Y-83692857D01*
X81892857Y-83750000D01*
X81835714Y-83807142D01*
X81778571Y-83921428D01*
X81778571Y-84035714D01*
X81835714Y-84207142D01*
X82521428Y-84892857D01*
X81778571Y-84892857D01*
X81321428Y-83807142D02*
X81264285Y-83750000D01*
X81149999Y-83692857D01*
X80864285Y-83692857D01*
X80749999Y-83750000D01*
X80692857Y-83807142D01*
X80635714Y-83921428D01*
X80635714Y-84035714D01*
X80692857Y-84207142D01*
X81378571Y-84892857D01*
X80635714Y-84892857D01*
X69477142Y-88362857D02*
X69477142Y-87162857D01*
X69191428Y-87162857D01*
X69020000Y-87220000D01*
X68905714Y-87334285D01*
X68848571Y-87448571D01*
X68791428Y-87677142D01*
X68791428Y-87848571D01*
X68848571Y-88077142D01*
X68905714Y-88191428D01*
X69020000Y-88305714D01*
X69191428Y-88362857D01*
X69477142Y-88362857D01*
X68048571Y-87162857D02*
X67820000Y-87162857D01*
X67705714Y-87220000D01*
X67591428Y-87334285D01*
X67534285Y-87562857D01*
X67534285Y-87962857D01*
X67591428Y-88191428D01*
X67705714Y-88305714D01*
X67820000Y-88362857D01*
X68048571Y-88362857D01*
X68162857Y-88305714D01*
X68277142Y-88191428D01*
X68334285Y-87962857D01*
X68334285Y-87562857D01*
X68277142Y-87334285D01*
X68162857Y-87220000D01*
X68048571Y-87162857D01*
X67134285Y-87162857D02*
X66848571Y-88362857D01*
X66620000Y-87505714D01*
X66391428Y-88362857D01*
X66105714Y-87162857D01*
X65648571Y-88362857D02*
X65648571Y-87162857D01*
X64962857Y-88362857D01*
X64962857Y-87162857D01*
X68162857Y-75442857D02*
X68162857Y-76414285D01*
X68105714Y-76528571D01*
X68048571Y-76585714D01*
X67934285Y-76642857D01*
X67705714Y-76642857D01*
X67591428Y-76585714D01*
X67534285Y-76528571D01*
X67477142Y-76414285D01*
X67477142Y-75442857D01*
X66905714Y-76642857D02*
X66905714Y-75442857D01*
X66448571Y-75442857D01*
X66334285Y-75500000D01*
X66277142Y-75557142D01*
X66220000Y-75671428D01*
X66220000Y-75842857D01*
X66277142Y-75957142D01*
X66334285Y-76014285D01*
X66448571Y-76071428D01*
X66905714Y-76071428D01*
X69048571Y-64642857D02*
X69048571Y-63442857D01*
X68591428Y-63442857D01*
X68477142Y-63500000D01*
X68419999Y-63557142D01*
X68362857Y-63671428D01*
X68362857Y-63842857D01*
X68419999Y-63957142D01*
X68477142Y-64014285D01*
X68591428Y-64071428D01*
X69048571Y-64071428D01*
X67277142Y-64642857D02*
X67848571Y-64642857D01*
X67848571Y-63442857D01*
X66934285Y-64300000D02*
X66362857Y-64300000D01*
X67048571Y-64642857D02*
X66648571Y-63442857D01*
X66248571Y-64642857D01*
X65619999Y-64071428D02*
X65619999Y-64642857D01*
X66019999Y-63442857D02*
X65619999Y-64071428D01*
X65219999Y-63442857D01*
D12*
X120092857Y-77403571D02*
X119235714Y-77403571D01*
X119664285Y-78903571D02*
X119664285Y-77403571D01*
X118235714Y-78117857D02*
X118735714Y-78117857D01*
X118735714Y-78903571D02*
X118735714Y-77403571D01*
X118021428Y-77403571D01*
X117664285Y-77403571D02*
X116807142Y-77403571D01*
X117235714Y-78903571D02*
X117235714Y-77403571D01*
X115164285Y-78332142D02*
X114021428Y-78332142D01*
X111378571Y-78903571D02*
X112235714Y-78903571D01*
X111807142Y-78903571D02*
X111807142Y-77403571D01*
X111950000Y-77617857D01*
X112092857Y-77760714D01*
X112235714Y-77832142D01*
X110735714Y-78760714D02*
X110664285Y-78832142D01*
X110735714Y-78903571D01*
X110807142Y-78832142D01*
X110735714Y-78760714D01*
X110735714Y-78903571D01*
X109807142Y-78046428D02*
X109950000Y-77975000D01*
X110021428Y-77903571D01*
X110092857Y-77760714D01*
X110092857Y-77689285D01*
X110021428Y-77546428D01*
X109950000Y-77475000D01*
X109807142Y-77403571D01*
X109521428Y-77403571D01*
X109378571Y-77475000D01*
X109307142Y-77546428D01*
X109235714Y-77689285D01*
X109235714Y-77760714D01*
X109307142Y-77903571D01*
X109378571Y-77975000D01*
X109521428Y-78046428D01*
X109807142Y-78046428D01*
X109950000Y-78117857D01*
X110021428Y-78189285D01*
X110092857Y-78332142D01*
X110092857Y-78617857D01*
X110021428Y-78760714D01*
X109950000Y-78832142D01*
X109807142Y-78903571D01*
X109521428Y-78903571D01*
X109378571Y-78832142D01*
X109307142Y-78760714D01*
X109235714Y-78617857D01*
X109235714Y-78332142D01*
X109307142Y-78189285D01*
X109378571Y-78117857D01*
X109521428Y-78046428D01*
X107521428Y-78832142D02*
X107307142Y-78903571D01*
X106950000Y-78903571D01*
X106807142Y-78832142D01*
X106735714Y-78760714D01*
X106664285Y-78617857D01*
X106664285Y-78475000D01*
X106735714Y-78332142D01*
X106807142Y-78260714D01*
X106950000Y-78189285D01*
X107235714Y-78117857D01*
X107378571Y-78046428D01*
X107450000Y-77975000D01*
X107521428Y-77832142D01*
X107521428Y-77689285D01*
X107450000Y-77546428D01*
X107378571Y-77475000D01*
X107235714Y-77403571D01*
X106878571Y-77403571D01*
X106664285Y-77475000D01*
X106021428Y-78903571D02*
X106021428Y-77403571D01*
X105450000Y-77403571D01*
X105307142Y-77475000D01*
X105235714Y-77546428D01*
X105164285Y-77689285D01*
X105164285Y-77903571D01*
X105235714Y-78046428D01*
X105307142Y-78117857D01*
X105450000Y-78189285D01*
X106021428Y-78189285D01*
X104521428Y-78903571D02*
X104521428Y-77403571D01*
X116771428Y-81382142D02*
X116557142Y-81453571D01*
X116200000Y-81453571D01*
X116057142Y-81382142D01*
X115985714Y-81310714D01*
X115914285Y-81167857D01*
X115914285Y-81025000D01*
X115985714Y-80882142D01*
X116057142Y-80810714D01*
X116200000Y-80739285D01*
X116485714Y-80667857D01*
X116628571Y-80596428D01*
X116700000Y-80525000D01*
X116771428Y-80382142D01*
X116771428Y-80239285D01*
X116700000Y-80096428D01*
X116628571Y-80025000D01*
X116485714Y-79953571D01*
X116128571Y-79953571D01*
X115914285Y-80025000D01*
X115485714Y-79953571D02*
X114628571Y-79953571D01*
X115057142Y-81453571D02*
X115057142Y-79953571D01*
X114271428Y-79953571D02*
X113271428Y-79953571D01*
X113914285Y-81453571D01*
X112842857Y-79953571D02*
X111842857Y-79953571D01*
X112485714Y-81453571D01*
X111414285Y-79953571D02*
X110485714Y-79953571D01*
X110985714Y-80525000D01*
X110771428Y-80525000D01*
X110628571Y-80596428D01*
X110557142Y-80667857D01*
X110485714Y-80810714D01*
X110485714Y-81167857D01*
X110557142Y-81310714D01*
X110628571Y-81382142D01*
X110771428Y-81453571D01*
X111200000Y-81453571D01*
X111342857Y-81382142D01*
X111414285Y-81310714D01*
X109128571Y-79953571D02*
X109842857Y-79953571D01*
X109914285Y-80667857D01*
X109842857Y-80596428D01*
X109700000Y-80525000D01*
X109342857Y-80525000D01*
X109200000Y-80596428D01*
X109128571Y-80667857D01*
X109057142Y-80810714D01*
X109057142Y-81167857D01*
X109128571Y-81310714D01*
X109200000Y-81382142D01*
X109342857Y-81453571D01*
X109700000Y-81453571D01*
X109842857Y-81382142D01*
X109914285Y-81310714D01*
X108485714Y-81382142D02*
X108271428Y-81453571D01*
X107914285Y-81453571D01*
X107771428Y-81382142D01*
X107700000Y-81310714D01*
X107628571Y-81167857D01*
X107628571Y-81025000D01*
X107700000Y-80882142D01*
X107771428Y-80810714D01*
X107914285Y-80739285D01*
X108200000Y-80667857D01*
X108342857Y-80596428D01*
X108414285Y-80525000D01*
X108485714Y-80382142D01*
X108485714Y-80239285D01*
X108414285Y-80096428D01*
X108342857Y-80025000D01*
X108200000Y-79953571D01*
X107842857Y-79953571D01*
X107628571Y-80025000D01*
D10*
X124214285Y-88142857D02*
X124214285Y-86942857D01*
X123700000Y-88142857D02*
X123700000Y-87514285D01*
X123757142Y-87400000D01*
X123871428Y-87342857D01*
X124042857Y-87342857D01*
X124157142Y-87400000D01*
X124214285Y-87457142D01*
X123300000Y-87342857D02*
X122842857Y-87342857D01*
X123128571Y-86942857D02*
X123128571Y-87971428D01*
X123071428Y-88085714D01*
X122957142Y-88142857D01*
X122842857Y-88142857D01*
X122614285Y-87342857D02*
X122157142Y-87342857D01*
X122442857Y-86942857D02*
X122442857Y-87971428D01*
X122385714Y-88085714D01*
X122271428Y-88142857D01*
X122157142Y-88142857D01*
X121757142Y-87342857D02*
X121757142Y-88542857D01*
X121757142Y-87400000D02*
X121642857Y-87342857D01*
X121414285Y-87342857D01*
X121300000Y-87400000D01*
X121242857Y-87457142D01*
X121185714Y-87571428D01*
X121185714Y-87914285D01*
X121242857Y-88028571D01*
X121300000Y-88085714D01*
X121414285Y-88142857D01*
X121642857Y-88142857D01*
X121757142Y-88085714D01*
X120728571Y-88085714D02*
X120614285Y-88142857D01*
X120385714Y-88142857D01*
X120271428Y-88085714D01*
X120214285Y-87971428D01*
X120214285Y-87914285D01*
X120271428Y-87800000D01*
X120385714Y-87742857D01*
X120557142Y-87742857D01*
X120671428Y-87685714D01*
X120728571Y-87571428D01*
X120728571Y-87514285D01*
X120671428Y-87400000D01*
X120557142Y-87342857D01*
X120385714Y-87342857D01*
X120271428Y-87400000D01*
X119699999Y-88028571D02*
X119642857Y-88085714D01*
X119699999Y-88142857D01*
X119757142Y-88085714D01*
X119699999Y-88028571D01*
X119699999Y-88142857D01*
X119699999Y-87400000D02*
X119642857Y-87457142D01*
X119699999Y-87514285D01*
X119757142Y-87457142D01*
X119699999Y-87400000D01*
X119699999Y-87514285D01*
X118271428Y-86885714D02*
X119300000Y-88428571D01*
X117014285Y-86885714D02*
X118042857Y-88428571D01*
X116099999Y-87342857D02*
X116099999Y-88314285D01*
X116157142Y-88428571D01*
X116214285Y-88485714D01*
X116328571Y-88542857D01*
X116499999Y-88542857D01*
X116614285Y-88485714D01*
X116099999Y-88085714D02*
X116214285Y-88142857D01*
X116442857Y-88142857D01*
X116557142Y-88085714D01*
X116614285Y-88028571D01*
X116671428Y-87914285D01*
X116671428Y-87571428D01*
X116614285Y-87457142D01*
X116557142Y-87400000D01*
X116442857Y-87342857D01*
X116214285Y-87342857D01*
X116099999Y-87400000D01*
X115528571Y-88142857D02*
X115528571Y-87342857D01*
X115528571Y-86942857D02*
X115585714Y-87000000D01*
X115528571Y-87057142D01*
X115471428Y-87000000D01*
X115528571Y-86942857D01*
X115528571Y-87057142D01*
X115128571Y-87342857D02*
X114671428Y-87342857D01*
X114957142Y-86942857D02*
X114957142Y-87971428D01*
X114899999Y-88085714D01*
X114785714Y-88142857D01*
X114671428Y-88142857D01*
X114271428Y-88142857D02*
X114271428Y-86942857D01*
X113757142Y-88142857D02*
X113757142Y-87514285D01*
X113814285Y-87400000D01*
X113928571Y-87342857D01*
X114099999Y-87342857D01*
X114214285Y-87400000D01*
X114271428Y-87457142D01*
X112671428Y-87342857D02*
X112671428Y-88142857D01*
X113185714Y-87342857D02*
X113185714Y-87971428D01*
X113128571Y-88085714D01*
X113014285Y-88142857D01*
X112842857Y-88142857D01*
X112728571Y-88085714D01*
X112671428Y-88028571D01*
X112099999Y-88142857D02*
X112099999Y-86942857D01*
X112099999Y-87400000D02*
X111985714Y-87342857D01*
X111757142Y-87342857D01*
X111642857Y-87400000D01*
X111585714Y-87457142D01*
X111528571Y-87571428D01*
X111528571Y-87914285D01*
X111585714Y-88028571D01*
X111642857Y-88085714D01*
X111757142Y-88142857D01*
X111985714Y-88142857D01*
X112099999Y-88085714D01*
X111014285Y-88028571D02*
X110957142Y-88085714D01*
X111014285Y-88142857D01*
X111071428Y-88085714D01*
X111014285Y-88028571D01*
X111014285Y-88142857D01*
X109928571Y-88085714D02*
X110042857Y-88142857D01*
X110271428Y-88142857D01*
X110385714Y-88085714D01*
X110442857Y-88028571D01*
X110499999Y-87914285D01*
X110499999Y-87571428D01*
X110442857Y-87457142D01*
X110385714Y-87400000D01*
X110271428Y-87342857D01*
X110042857Y-87342857D01*
X109928571Y-87400000D01*
X109242857Y-88142857D02*
X109357142Y-88085714D01*
X109414285Y-88028571D01*
X109471428Y-87914285D01*
X109471428Y-87571428D01*
X109414285Y-87457142D01*
X109357142Y-87400000D01*
X109242857Y-87342857D01*
X109071428Y-87342857D01*
X108957142Y-87400000D01*
X108899999Y-87457142D01*
X108842857Y-87571428D01*
X108842857Y-87914285D01*
X108899999Y-88028571D01*
X108957142Y-88085714D01*
X109071428Y-88142857D01*
X109242857Y-88142857D01*
X108328571Y-88142857D02*
X108328571Y-87342857D01*
X108328571Y-87457142D02*
X108271428Y-87400000D01*
X108157142Y-87342857D01*
X107985714Y-87342857D01*
X107871428Y-87400000D01*
X107814285Y-87514285D01*
X107814285Y-88142857D01*
X107814285Y-87514285D02*
X107757142Y-87400000D01*
X107642857Y-87342857D01*
X107471428Y-87342857D01*
X107357142Y-87400000D01*
X107299999Y-87514285D01*
X107299999Y-88142857D01*
X105871428Y-86885714D02*
X106899999Y-88428571D01*
X105471428Y-88142857D02*
X105471428Y-86942857D01*
X105357142Y-87685714D02*
X105014285Y-88142857D01*
X105014285Y-87342857D02*
X105471428Y-87800000D01*
X103985714Y-88142857D02*
X103985714Y-87514285D01*
X104042857Y-87400000D01*
X104157142Y-87342857D01*
X104385714Y-87342857D01*
X104499999Y-87400000D01*
X103985714Y-88085714D02*
X104099999Y-88142857D01*
X104385714Y-88142857D01*
X104499999Y-88085714D01*
X104557142Y-87971428D01*
X104557142Y-87857142D01*
X104499999Y-87742857D01*
X104385714Y-87685714D01*
X104099999Y-87685714D01*
X103985714Y-87628571D01*
X103414285Y-88142857D02*
X103414285Y-87342857D01*
X103414285Y-87571428D02*
X103357142Y-87457142D01*
X103299999Y-87400000D01*
X103185714Y-87342857D01*
X103071428Y-87342857D01*
X102157142Y-88142857D02*
X102157142Y-87514285D01*
X102214285Y-87400000D01*
X102328571Y-87342857D01*
X102557142Y-87342857D01*
X102671428Y-87400000D01*
X102157142Y-88085714D02*
X102271428Y-88142857D01*
X102557142Y-88142857D01*
X102671428Y-88085714D01*
X102728571Y-87971428D01*
X102728571Y-87857142D01*
X102671428Y-87742857D01*
X102557142Y-87685714D01*
X102271428Y-87685714D01*
X102157142Y-87628571D01*
X101699999Y-87342857D02*
X101471428Y-88142857D01*
X101242857Y-87571428D01*
X101014285Y-88142857D01*
X100785714Y-87342857D01*
X100328571Y-88142857D02*
X100328571Y-87342857D01*
X100328571Y-86942857D02*
X100385714Y-87000000D01*
X100328571Y-87057142D01*
X100271428Y-87000000D01*
X100328571Y-86942857D01*
X100328571Y-87057142D01*
X99757142Y-87342857D02*
X99757142Y-88142857D01*
X99757142Y-87457142D02*
X99699999Y-87400000D01*
X99585714Y-87342857D01*
X99414285Y-87342857D01*
X99299999Y-87400000D01*
X99242857Y-87514285D01*
X99242857Y-88142857D01*
X97814285Y-86885714D02*
X98842857Y-88428571D01*
X116357142Y-90142857D02*
X116357142Y-88942857D01*
X115671428Y-90142857D02*
X116185714Y-89457142D01*
X115671428Y-88942857D02*
X116357142Y-89628571D01*
X114642857Y-90142857D02*
X114642857Y-89514285D01*
X114699999Y-89400000D01*
X114814285Y-89342857D01*
X115042857Y-89342857D01*
X115157142Y-89400000D01*
X114642857Y-90085714D02*
X114757142Y-90142857D01*
X115042857Y-90142857D01*
X115157142Y-90085714D01*
X115214285Y-89971428D01*
X115214285Y-89857142D01*
X115157142Y-89742857D01*
X115042857Y-89685714D01*
X114757142Y-89685714D01*
X114642857Y-89628571D01*
X114071428Y-89685714D02*
X113157142Y-89685714D01*
X111899999Y-90142857D02*
X112299999Y-89571428D01*
X112585714Y-90142857D02*
X112585714Y-88942857D01*
X112128571Y-88942857D01*
X112014285Y-89000000D01*
X111957142Y-89057142D01*
X111899999Y-89171428D01*
X111899999Y-89342857D01*
X111957142Y-89457142D01*
X112014285Y-89514285D01*
X112128571Y-89571428D01*
X112585714Y-89571428D01*
X110871428Y-90142857D02*
X110871428Y-89514285D01*
X110928571Y-89400000D01*
X111042857Y-89342857D01*
X111271428Y-89342857D01*
X111385714Y-89400000D01*
X110871428Y-90085714D02*
X110985714Y-90142857D01*
X111271428Y-90142857D01*
X111385714Y-90085714D01*
X111442857Y-89971428D01*
X111442857Y-89857142D01*
X111385714Y-89742857D01*
X111271428Y-89685714D01*
X110985714Y-89685714D01*
X110871428Y-89628571D01*
X109785714Y-90142857D02*
X109785714Y-88942857D01*
X109785714Y-90085714D02*
X109899999Y-90142857D01*
X110128571Y-90142857D01*
X110242857Y-90085714D01*
X110299999Y-90028571D01*
X110357142Y-89914285D01*
X110357142Y-89571428D01*
X110299999Y-89457142D01*
X110242857Y-89400000D01*
X110128571Y-89342857D01*
X109899999Y-89342857D01*
X109785714Y-89400000D01*
X109214285Y-90142857D02*
X109214285Y-89342857D01*
X109214285Y-88942857D02*
X109271428Y-89000000D01*
X109214285Y-89057142D01*
X109157142Y-89000000D01*
X109214285Y-88942857D01*
X109214285Y-89057142D01*
X108471428Y-90142857D02*
X108585714Y-90085714D01*
X108642857Y-90028571D01*
X108699999Y-89914285D01*
X108699999Y-89571428D01*
X108642857Y-89457142D01*
X108585714Y-89400000D01*
X108471428Y-89342857D01*
X108299999Y-89342857D01*
X108185714Y-89400000D01*
X108128571Y-89457142D01*
X108071428Y-89571428D01*
X108071428Y-89914285D01*
X108128571Y-90028571D01*
X108185714Y-90085714D01*
X108299999Y-90142857D01*
X108471428Y-90142857D01*
X107671428Y-88942857D02*
X106928571Y-88942857D01*
X107328571Y-89400000D01*
X107157142Y-89400000D01*
X107042857Y-89457142D01*
X106985714Y-89514285D01*
X106928571Y-89628571D01*
X106928571Y-89914285D01*
X106985714Y-90028571D01*
X107042857Y-90085714D01*
X107157142Y-90142857D01*
X107499999Y-90142857D01*
X107614285Y-90085714D01*
X107671428Y-90028571D01*
X106471428Y-89057142D02*
X106414285Y-89000000D01*
X106299999Y-88942857D01*
X106014285Y-88942857D01*
X105899999Y-89000000D01*
X105842857Y-89057142D01*
X105785714Y-89171428D01*
X105785714Y-89285714D01*
X105842857Y-89457142D01*
X106528571Y-90142857D01*
X105785714Y-90142857D01*
X91214285Y-83697142D02*
X91157142Y-83640000D01*
X91042857Y-83582857D01*
X90757142Y-83582857D01*
X90642857Y-83640000D01*
X90585714Y-83697142D01*
X90528571Y-83811428D01*
X90528571Y-83925714D01*
X90585714Y-84097142D01*
X91271428Y-84782857D01*
X90528571Y-84782857D01*
X90071428Y-83697142D02*
X90014285Y-83640000D01*
X89899999Y-83582857D01*
X89614285Y-83582857D01*
X89499999Y-83640000D01*
X89442857Y-83697142D01*
X89385714Y-83811428D01*
X89385714Y-83925714D01*
X89442857Y-84097142D01*
X90128571Y-84782857D01*
X89385714Y-84782857D01*
D11*
X73251904Y-74760000D02*
X73347142Y-74712380D01*
X73490000Y-74712380D01*
X73632857Y-74760000D01*
X73728095Y-74855238D01*
X73775714Y-74950476D01*
X73823333Y-75140952D01*
X73823333Y-75283809D01*
X73775714Y-75474285D01*
X73728095Y-75569523D01*
X73632857Y-75664761D01*
X73490000Y-75712380D01*
X73394761Y-75712380D01*
X73251904Y-75664761D01*
X73204285Y-75617142D01*
X73204285Y-75283809D01*
X73394761Y-75283809D01*
X72775714Y-75712380D02*
X72775714Y-74712380D01*
X72204285Y-75712380D01*
X72204285Y-74712380D01*
X71728095Y-75712380D02*
X71728095Y-74712380D01*
X71490000Y-74712380D01*
X71347142Y-74760000D01*
X71251904Y-74855238D01*
X71204285Y-74950476D01*
X71156666Y-75140952D01*
X71156666Y-75283809D01*
X71204285Y-75474285D01*
X71251904Y-75569523D01*
X71347142Y-75664761D01*
X71490000Y-75712380D01*
X71728095Y-75712380D01*
X73642095Y-67754666D02*
X73165904Y-67754666D01*
X73737333Y-68040380D02*
X73403999Y-67040380D01*
X73070666Y-68040380D01*
X73332571Y-70056571D02*
X73189714Y-70104190D01*
X73142095Y-70151809D01*
X73094476Y-70247047D01*
X73094476Y-70389904D01*
X73142095Y-70485142D01*
X73189714Y-70532761D01*
X73284952Y-70580380D01*
X73665904Y-70580380D01*
X73665904Y-69580380D01*
X73332571Y-69580380D01*
X73237333Y-69628000D01*
X73189714Y-69675619D01*
X73142095Y-69770857D01*
X73142095Y-69866095D01*
X73189714Y-69961333D01*
X73237333Y-70008952D01*
X73332571Y-70056571D01*
X73665904Y-70056571D01*
X73094476Y-73025142D02*
X73142095Y-73072761D01*
X73284952Y-73120380D01*
X73380190Y-73120380D01*
X73523047Y-73072761D01*
X73618285Y-72977523D01*
X73665904Y-72882285D01*
X73713523Y-72691809D01*
X73713523Y-72548952D01*
X73665904Y-72358476D01*
X73618285Y-72263238D01*
X73523047Y-72168000D01*
X73380190Y-72120380D01*
X73284952Y-72120380D01*
X73142095Y-72168000D01*
X73094476Y-72215619D01*
D10*
X79300000Y-64350000D02*
X79304606Y-57335907D01*
X79300000Y-100850000D02*
X79304606Y-105085907D01*
X79300000Y-82600000D02*
X79300000Y-87850000D01*
X79304606Y-91350000D02*
X79304606Y-97350000D01*
X79304606Y-76100000D02*
X79304606Y-68600000D01*
D11*
X81961904Y-71800000D02*
X82057142Y-71752380D01*
X82200000Y-71752380D01*
X82342857Y-71800000D01*
X82438095Y-71895238D01*
X82485714Y-71990476D01*
X82533333Y-72180952D01*
X82533333Y-72323809D01*
X82485714Y-72514285D01*
X82438095Y-72609523D01*
X82342857Y-72704761D01*
X82200000Y-72752380D01*
X82104761Y-72752380D01*
X81961904Y-72704761D01*
X81914285Y-72657142D01*
X81914285Y-72323809D01*
X82104761Y-72323809D01*
X81485714Y-72752380D02*
X81485714Y-71752380D01*
X80914285Y-72752380D01*
X80914285Y-71752380D01*
X80438095Y-72752380D02*
X80438095Y-71752380D01*
X80200000Y-71752380D01*
X80057142Y-71800000D01*
X79961904Y-71895238D01*
X79914285Y-71990476D01*
X79866666Y-72180952D01*
X79866666Y-72323809D01*
X79914285Y-72514285D01*
X79961904Y-72609523D01*
X80057142Y-72704761D01*
X80200000Y-72752380D01*
X80438095Y-72752380D01*
X144561904Y-87300000D02*
X144657142Y-87252380D01*
X144800000Y-87252380D01*
X144942857Y-87300000D01*
X145038095Y-87395238D01*
X145085714Y-87490476D01*
X145133333Y-87680952D01*
X145133333Y-87823809D01*
X145085714Y-88014285D01*
X145038095Y-88109523D01*
X144942857Y-88204761D01*
X144800000Y-88252380D01*
X144704761Y-88252380D01*
X144561904Y-88204761D01*
X144514285Y-88157142D01*
X144514285Y-87823809D01*
X144704761Y-87823809D01*
X144085714Y-88252380D02*
X144085714Y-87252380D01*
X143514285Y-88252380D01*
X143514285Y-87252380D01*
X143038095Y-88252380D02*
X143038095Y-87252380D01*
X142800000Y-87252380D01*
X142657142Y-87300000D01*
X142561904Y-87395238D01*
X142514285Y-87490476D01*
X142466666Y-87680952D01*
X142466666Y-87823809D01*
X142514285Y-88014285D01*
X142561904Y-88109523D01*
X142657142Y-88204761D01*
X142800000Y-88252380D01*
X143038095Y-88252380D01*
X145038095Y-85171428D02*
X144276190Y-85171428D01*
X144657142Y-85552380D02*
X144657142Y-84790476D01*
X143895238Y-84552380D02*
X143276190Y-84552380D01*
X143609523Y-84933333D01*
X143466666Y-84933333D01*
X143371428Y-84980952D01*
X143323809Y-85028571D01*
X143276190Y-85123809D01*
X143276190Y-85361904D01*
X143323809Y-85457142D01*
X143371428Y-85504761D01*
X143466666Y-85552380D01*
X143752380Y-85552380D01*
X143847619Y-85504761D01*
X143895238Y-85457142D01*
X142942857Y-84885714D02*
X142704761Y-85552380D01*
X142466666Y-84885714D01*
D10*
X91214285Y-81217142D02*
X91157142Y-81160000D01*
X91042857Y-81102857D01*
X90757142Y-81102857D01*
X90642857Y-81160000D01*
X90585714Y-81217142D01*
X90528571Y-81331428D01*
X90528571Y-81445714D01*
X90585714Y-81617142D01*
X91271428Y-82302857D01*
X90528571Y-82302857D01*
X89499999Y-81102857D02*
X89728571Y-81102857D01*
X89842857Y-81160000D01*
X89899999Y-81217142D01*
X90014285Y-81388571D01*
X90071428Y-81617142D01*
X90071428Y-82074285D01*
X90014285Y-82188571D01*
X89957142Y-82245714D01*
X89842857Y-82302857D01*
X89614285Y-82302857D01*
X89499999Y-82245714D01*
X89442857Y-82188571D01*
X89385714Y-82074285D01*
X89385714Y-81788571D01*
X89442857Y-81674285D01*
X89499999Y-81617142D01*
X89614285Y-81560000D01*
X89842857Y-81560000D01*
X89957142Y-81617142D01*
X90014285Y-81674285D01*
X90071428Y-81788571D01*
X91294285Y-78627142D02*
X91237142Y-78570000D01*
X91122857Y-78512857D01*
X90837142Y-78512857D01*
X90722857Y-78570000D01*
X90665714Y-78627142D01*
X90608571Y-78741428D01*
X90608571Y-78855714D01*
X90665714Y-79027142D01*
X91351428Y-79712857D01*
X90608571Y-79712857D01*
X89522857Y-78512857D02*
X90094285Y-78512857D01*
X90151428Y-79084285D01*
X90094285Y-79027142D01*
X89979999Y-78970000D01*
X89694285Y-78970000D01*
X89579999Y-79027142D01*
X89522857Y-79084285D01*
X89465714Y-79198571D01*
X89465714Y-79484285D01*
X89522857Y-79598571D01*
X89579999Y-79655714D01*
X89694285Y-79712857D01*
X89979999Y-79712857D01*
X90094285Y-79655714D01*
X90151428Y-79598571D01*
X82328571Y-91878743D02*
X81719047Y-91878743D01*
X82023809Y-92183505D02*
X82023809Y-91573981D01*
X80957142Y-91383505D02*
X81338095Y-91383505D01*
X81376190Y-91764458D01*
X81338095Y-91726362D01*
X81261904Y-91688267D01*
X81071428Y-91688267D01*
X80995238Y-91726362D01*
X80957142Y-91764458D01*
X80919047Y-91840648D01*
X80919047Y-92031124D01*
X80957142Y-92107315D01*
X80995238Y-92145410D01*
X81071428Y-92183505D01*
X81261904Y-92183505D01*
X81338095Y-92145410D01*
X81376190Y-92107315D01*
X80690476Y-91383505D02*
X80423809Y-92183505D01*
X80157142Y-91383505D01*
X81909523Y-88950000D02*
X81985714Y-88911904D01*
X82100000Y-88911904D01*
X82214285Y-88950000D01*
X82290476Y-89026190D01*
X82328571Y-89102380D01*
X82366666Y-89254761D01*
X82366666Y-89369047D01*
X82328571Y-89521428D01*
X82290476Y-89597619D01*
X82214285Y-89673809D01*
X82100000Y-89711904D01*
X82023809Y-89711904D01*
X81909523Y-89673809D01*
X81871428Y-89635714D01*
X81871428Y-89369047D01*
X82023809Y-89369047D01*
X81528571Y-89711904D02*
X81528571Y-88911904D01*
X81071428Y-89711904D01*
X81071428Y-88911904D01*
X80690476Y-89711904D02*
X80690476Y-88911904D01*
X80500000Y-88911904D01*
X80385714Y-88950000D01*
X80309523Y-89026190D01*
X80271428Y-89102380D01*
X80233333Y-89254761D01*
X80233333Y-89369047D01*
X80271428Y-89521428D01*
X80309523Y-89597619D01*
X80385714Y-89673809D01*
X80500000Y-89711904D01*
X80690476Y-89711904D01*
D11*
X80990476Y-69985142D02*
X81038095Y-70032761D01*
X81180952Y-70080380D01*
X81276190Y-70080380D01*
X81419047Y-70032761D01*
X81514285Y-69937523D01*
X81561904Y-69842285D01*
X81609523Y-69651809D01*
X81609523Y-69508952D01*
X81561904Y-69318476D01*
X81514285Y-69223238D01*
X81419047Y-69128000D01*
X81276190Y-69080380D01*
X81180952Y-69080380D01*
X81038095Y-69128000D01*
X80990476Y-69175619D01*
X81228571Y-67028571D02*
X81085714Y-67076190D01*
X81038095Y-67123809D01*
X80990476Y-67219047D01*
X80990476Y-67361904D01*
X81038095Y-67457142D01*
X81085714Y-67504761D01*
X81180952Y-67552380D01*
X81561904Y-67552380D01*
X81561904Y-66552380D01*
X81228571Y-66552380D01*
X81133333Y-66600000D01*
X81085714Y-66647619D01*
X81038095Y-66742857D01*
X81038095Y-66838095D01*
X81085714Y-66933333D01*
X81133333Y-66980952D01*
X81228571Y-67028571D01*
X81561904Y-67028571D01*
X81538095Y-64766666D02*
X81061904Y-64766666D01*
X81633333Y-65052380D02*
X81299999Y-64052380D01*
X80966666Y-65052380D01*
D10*
X128964285Y-59078571D02*
X129078571Y-59021428D01*
X129307142Y-59021428D01*
X129421428Y-59078571D01*
X129535714Y-59192857D01*
X129592857Y-59307142D01*
X129592857Y-59535714D01*
X129535714Y-59650000D01*
X129421428Y-59764285D01*
X129307142Y-59821428D01*
X129078571Y-59821428D01*
X128964285Y-59764285D01*
X129192857Y-58621428D02*
X129478571Y-58678571D01*
X129764285Y-58850000D01*
X129935714Y-59135714D01*
X129992857Y-59421428D01*
X129935714Y-59707142D01*
X129764285Y-59992857D01*
X129478571Y-60164285D01*
X129192857Y-60221428D01*
X128907142Y-60164285D01*
X128621428Y-59992857D01*
X128450000Y-59707142D01*
X128392857Y-59421428D01*
X128450000Y-59135714D01*
X128621428Y-58850000D01*
X128907142Y-58678571D01*
X129192857Y-58621428D01*
X126735714Y-58792857D02*
X126621428Y-58792857D01*
X126507142Y-58850000D01*
X126450000Y-58907142D01*
X126392857Y-59021428D01*
X126335714Y-59250000D01*
X126335714Y-59535714D01*
X126392857Y-59764285D01*
X126450000Y-59878571D01*
X126507142Y-59935714D01*
X126621428Y-59992857D01*
X126735714Y-59992857D01*
X126850000Y-59935714D01*
X126907142Y-59878571D01*
X126964285Y-59764285D01*
X127021428Y-59535714D01*
X127021428Y-59250000D01*
X126964285Y-59021428D01*
X126907142Y-58907142D01*
X126850000Y-58850000D01*
X126735714Y-58792857D01*
X125878571Y-58907142D02*
X125821428Y-58850000D01*
X125707142Y-58792857D01*
X125421428Y-58792857D01*
X125307142Y-58850000D01*
X125250000Y-58907142D01*
X125192857Y-59021428D01*
X125192857Y-59135714D01*
X125250000Y-59307142D01*
X125935714Y-59992857D01*
X125192857Y-59992857D01*
X124678571Y-59878571D02*
X124621428Y-59935714D01*
X124678571Y-59992857D01*
X124735714Y-59935714D01*
X124678571Y-59878571D01*
X124678571Y-59992857D01*
X124164285Y-58907142D02*
X124107142Y-58850000D01*
X123992857Y-58792857D01*
X123707142Y-58792857D01*
X123592857Y-58850000D01*
X123535714Y-58907142D01*
X123478571Y-59021428D01*
X123478571Y-59135714D01*
X123535714Y-59307142D01*
X124221428Y-59992857D01*
X123478571Y-59992857D01*
X122735714Y-58792857D02*
X122621428Y-58792857D01*
X122507142Y-58850000D01*
X122450000Y-58907142D01*
X122392857Y-59021428D01*
X122335714Y-59250000D01*
X122335714Y-59535714D01*
X122392857Y-59764285D01*
X122450000Y-59878571D01*
X122507142Y-59935714D01*
X122621428Y-59992857D01*
X122735714Y-59992857D01*
X122850000Y-59935714D01*
X122907142Y-59878571D01*
X122964285Y-59764285D01*
X123021428Y-59535714D01*
X123021428Y-59250000D01*
X122964285Y-59021428D01*
X122907142Y-58907142D01*
X122850000Y-58850000D01*
X122735714Y-58792857D01*
X121878571Y-58907142D02*
X121821428Y-58850000D01*
X121707142Y-58792857D01*
X121421428Y-58792857D01*
X121307142Y-58850000D01*
X121250000Y-58907142D01*
X121192857Y-59021428D01*
X121192857Y-59135714D01*
X121250000Y-59307142D01*
X121935714Y-59992857D01*
X121192857Y-59992857D01*
X120050000Y-59992857D02*
X120735714Y-59992857D01*
X120392857Y-59992857D02*
X120392857Y-58792857D01*
X120507142Y-58964285D01*
X120621428Y-59078571D01*
X120735714Y-59135714D01*
X118621428Y-59992857D02*
X118621428Y-58792857D01*
X117935714Y-59992857D01*
X117935714Y-58792857D01*
X117421428Y-59650000D02*
X116850000Y-59650000D01*
X117535714Y-59992857D02*
X117135714Y-58792857D01*
X116735714Y-59992857D01*
X116335714Y-59992857D02*
X116335714Y-58792857D01*
X116050000Y-58792857D01*
X115878571Y-58850000D01*
X115764285Y-58964285D01*
X115707142Y-59078571D01*
X115650000Y-59307142D01*
X115650000Y-59478571D01*
X115707142Y-59707142D01*
X115764285Y-59821428D01*
X115878571Y-59935714D01*
X116050000Y-59992857D01*
X116335714Y-59992857D01*
X115135714Y-59992857D02*
X115135714Y-58792857D01*
X114564285Y-59992857D02*
X114564285Y-58792857D01*
X114164285Y-59650000D01*
X113764285Y-58792857D01*
X113764285Y-59992857D01*
X112450000Y-58792857D02*
X112050000Y-59992857D01*
X111650000Y-58792857D01*
X110678571Y-58792857D02*
X111250000Y-58792857D01*
X111307142Y-59364285D01*
X111250000Y-59307142D01*
X111135714Y-59250000D01*
X110850000Y-59250000D01*
X110735714Y-59307142D01*
X110678571Y-59364285D01*
X110621428Y-59478571D01*
X110621428Y-59764285D01*
X110678571Y-59878571D01*
X110735714Y-59935714D01*
X110850000Y-59992857D01*
X111135714Y-59992857D01*
X111250000Y-59935714D01*
X111307142Y-59878571D01*
X109192857Y-59992857D02*
X109192857Y-58792857D01*
X108507142Y-59992857D02*
X109021428Y-59307142D01*
X108507142Y-58792857D02*
X109192857Y-59478571D01*
X107478571Y-59992857D02*
X107478571Y-59364285D01*
X107535714Y-59250000D01*
X107650000Y-59192857D01*
X107878571Y-59192857D01*
X107992857Y-59250000D01*
X107478571Y-59935714D02*
X107592857Y-59992857D01*
X107878571Y-59992857D01*
X107992857Y-59935714D01*
X108050000Y-59821428D01*
X108050000Y-59707142D01*
X107992857Y-59592857D01*
X107878571Y-59535714D01*
X107592857Y-59535714D01*
X107478571Y-59478571D01*
X106221428Y-59992857D02*
X106621428Y-59421428D01*
X106907142Y-59992857D02*
X106907142Y-58792857D01*
X106450000Y-58792857D01*
X106335714Y-58850000D01*
X106278571Y-58907142D01*
X106221428Y-59021428D01*
X106221428Y-59192857D01*
X106278571Y-59307142D01*
X106335714Y-59364285D01*
X106450000Y-59421428D01*
X106907142Y-59421428D01*
X105192857Y-59992857D02*
X105192857Y-59364285D01*
X105250000Y-59250000D01*
X105364285Y-59192857D01*
X105592857Y-59192857D01*
X105707142Y-59250000D01*
X105192857Y-59935714D02*
X105307142Y-59992857D01*
X105592857Y-59992857D01*
X105707142Y-59935714D01*
X105764285Y-59821428D01*
X105764285Y-59707142D01*
X105707142Y-59592857D01*
X105592857Y-59535714D01*
X105307142Y-59535714D01*
X105192857Y-59478571D01*
X104107142Y-59992857D02*
X104107142Y-58792857D01*
X104107142Y-59935714D02*
X104221428Y-59992857D01*
X104450000Y-59992857D01*
X104564285Y-59935714D01*
X104621428Y-59878571D01*
X104678571Y-59764285D01*
X104678571Y-59421428D01*
X104621428Y-59307142D01*
X104564285Y-59250000D01*
X104450000Y-59192857D01*
X104221428Y-59192857D01*
X104107142Y-59250000D01*
X103535714Y-59992857D02*
X103535714Y-59192857D01*
X103535714Y-58792857D02*
X103592857Y-58850000D01*
X103535714Y-58907142D01*
X103478571Y-58850000D01*
X103535714Y-58792857D01*
X103535714Y-58907142D01*
X102792857Y-59992857D02*
X102907142Y-59935714D01*
X102964285Y-59878571D01*
X103021428Y-59764285D01*
X103021428Y-59421428D01*
X102964285Y-59307142D01*
X102907142Y-59250000D01*
X102792857Y-59192857D01*
X102621428Y-59192857D01*
X102507142Y-59250000D01*
X102450000Y-59307142D01*
X102392857Y-59421428D01*
X102392857Y-59764285D01*
X102450000Y-59878571D01*
X102507142Y-59935714D01*
X102621428Y-59992857D01*
X102792857Y-59992857D01*
X101992857Y-58792857D02*
X101250000Y-58792857D01*
X101650000Y-59250000D01*
X101478571Y-59250000D01*
X101364285Y-59307142D01*
X101307142Y-59364285D01*
X101250000Y-59478571D01*
X101250000Y-59764285D01*
X101307142Y-59878571D01*
X101364285Y-59935714D01*
X101478571Y-59992857D01*
X101821428Y-59992857D01*
X101935714Y-59935714D01*
X101992857Y-59878571D01*
X100792857Y-58907142D02*
X100735714Y-58850000D01*
X100621428Y-58792857D01*
X100335714Y-58792857D01*
X100221428Y-58850000D01*
X100164285Y-58907142D01*
X100107142Y-59021428D01*
X100107142Y-59135714D01*
X100164285Y-59307142D01*
X100850000Y-59992857D01*
X100107142Y-59992857D01*
X128628571Y-72842857D02*
X129314285Y-72842857D01*
X128971428Y-72842857D02*
X128971428Y-71642857D01*
X129085714Y-71814285D01*
X129199999Y-71928571D01*
X129314285Y-71985714D01*
X127599999Y-72042857D02*
X127599999Y-72842857D01*
X127885714Y-71585714D02*
X128171428Y-72442857D01*
X127428571Y-72442857D01*
X127457142Y-84642857D02*
X128142857Y-84642857D01*
X127800000Y-84642857D02*
X127800000Y-83442857D01*
X127914285Y-83614285D01*
X128028571Y-83728571D01*
X128142857Y-83785714D01*
D11*
X141811904Y-74024595D02*
X141907142Y-73976975D01*
X142050000Y-73976975D01*
X142192857Y-74024595D01*
X142288095Y-74119833D01*
X142335714Y-74215071D01*
X142383333Y-74405547D01*
X142383333Y-74548404D01*
X142335714Y-74738880D01*
X142288095Y-74834118D01*
X142192857Y-74929356D01*
X142050000Y-74976975D01*
X141954761Y-74976975D01*
X141811904Y-74929356D01*
X141764285Y-74881737D01*
X141764285Y-74548404D01*
X141954761Y-74548404D01*
X141335714Y-74976975D02*
X141335714Y-73976975D01*
X140764285Y-74976975D01*
X140764285Y-73976975D01*
X140288095Y-74976975D02*
X140288095Y-73976975D01*
X140050000Y-73976975D01*
X139907142Y-74024595D01*
X139811904Y-74119833D01*
X139764285Y-74215071D01*
X139716666Y-74405547D01*
X139716666Y-74548404D01*
X139764285Y-74738880D01*
X139811904Y-74834118D01*
X139907142Y-74929356D01*
X140050000Y-74976975D01*
X140288095Y-74976975D01*
D10*
X138062516Y-69546557D02*
X139033944Y-69546557D01*
X139148230Y-69603700D01*
X139205373Y-69660843D01*
X139262516Y-69775128D01*
X139262516Y-70003700D01*
X139205373Y-70117985D01*
X139148230Y-70175128D01*
X139033944Y-70232271D01*
X138062516Y-70232271D01*
X138919659Y-70746557D02*
X138919659Y-71317985D01*
X139262516Y-70632271D02*
X138062516Y-71032271D01*
X139262516Y-71432271D01*
X139262516Y-72517985D02*
X138691087Y-72117985D01*
X139262516Y-71832271D02*
X138062516Y-71832271D01*
X138062516Y-72289414D01*
X138119658Y-72403700D01*
X138176801Y-72460842D01*
X138291087Y-72517985D01*
X138462516Y-72517985D01*
X138576801Y-72460842D01*
X138633944Y-72403700D01*
X138691087Y-72289414D01*
X138691087Y-71832271D01*
X138062516Y-72860842D02*
X138062516Y-73546557D01*
X139262516Y-73203700D02*
X138062516Y-73203700D01*
X148714285Y-78742857D02*
X148714285Y-79142857D01*
X149342857Y-79314285D02*
X149342857Y-78742857D01*
X148142857Y-78742857D01*
X148142857Y-79314285D01*
X149342857Y-79828571D02*
X148142857Y-79828571D01*
X149342857Y-80514285D01*
X148142857Y-80514285D01*
X149228571Y-81771428D02*
X149285714Y-81714285D01*
X149342857Y-81542857D01*
X149342857Y-81428571D01*
X149285714Y-81257142D01*
X149171428Y-81142857D01*
X149057142Y-81085714D01*
X148828571Y-81028571D01*
X148657142Y-81028571D01*
X148428571Y-81085714D01*
X148314285Y-81142857D01*
X148200000Y-81257142D01*
X148142857Y-81428571D01*
X148142857Y-81542857D01*
X148200000Y-81714285D01*
X148257142Y-81771428D01*
X148142857Y-82514285D02*
X148142857Y-82742857D01*
X148199999Y-82857142D01*
X148314285Y-82971428D01*
X148542857Y-83028571D01*
X148942857Y-83028571D01*
X149171428Y-82971428D01*
X149285714Y-82857142D01*
X149342857Y-82742857D01*
X149342857Y-82514285D01*
X149285714Y-82399999D01*
X149171428Y-82285714D01*
X148942857Y-82228571D01*
X148542857Y-82228571D01*
X148314285Y-82285714D01*
X148200000Y-82399999D01*
X148142857Y-82514285D01*
X149342857Y-83542857D02*
X148142857Y-83542857D01*
X148142857Y-83828571D01*
X148199999Y-83999999D01*
X148314285Y-84114285D01*
X148428571Y-84171428D01*
X148657142Y-84228571D01*
X148828571Y-84228571D01*
X149057142Y-84171428D01*
X149171428Y-84114285D01*
X149285714Y-83999999D01*
X149342857Y-83828571D01*
X149342857Y-83542857D01*
X148714285Y-84742857D02*
X148714285Y-85142857D01*
X149342857Y-85314285D02*
X149342857Y-84742857D01*
X148142857Y-84742857D01*
X148142857Y-85314285D01*
X149342857Y-86514285D02*
X148771428Y-86114285D01*
X149342857Y-85828571D02*
X148142857Y-85828571D01*
X148142857Y-86285714D01*
X148199999Y-86399999D01*
X148257142Y-86457142D01*
X148371428Y-86514285D01*
X148542857Y-86514285D01*
X148657142Y-86457142D01*
X148714285Y-86399999D01*
X148771428Y-86285714D01*
X148771428Y-85828571D01*
D11*
X144538095Y-80266666D02*
X144061904Y-80266666D01*
X144633333Y-80552380D02*
X144299999Y-79552380D01*
X143966666Y-80552380D01*
X144228571Y-77528571D02*
X144085714Y-77576190D01*
X144038095Y-77623809D01*
X143990476Y-77719047D01*
X143990476Y-77861904D01*
X144038095Y-77957142D01*
X144085714Y-78004761D01*
X144180952Y-78052380D01*
X144561904Y-78052380D01*
X144561904Y-77052380D01*
X144228571Y-77052380D01*
X144133333Y-77100000D01*
X144085714Y-77147619D01*
X144038095Y-77242857D01*
X144038095Y-77338095D01*
X144085714Y-77433333D01*
X144133333Y-77480952D01*
X144228571Y-77528571D01*
X144561904Y-77528571D01*
X144633333Y-82528571D02*
X144490476Y-82576190D01*
X144442857Y-82623809D01*
X144395238Y-82719047D01*
X144395238Y-82861904D01*
X144442857Y-82957142D01*
X144490476Y-83004761D01*
X144585714Y-83052380D01*
X144966666Y-83052380D01*
X144966666Y-82052380D01*
X144633333Y-82052380D01*
X144538095Y-82100000D01*
X144490476Y-82147619D01*
X144442857Y-82242857D01*
X144442857Y-82338095D01*
X144490476Y-82433333D01*
X144538095Y-82480952D01*
X144633333Y-82528571D01*
X144966666Y-82528571D01*
X144109523Y-82052380D02*
X143538095Y-82052380D01*
X143823809Y-83052380D02*
X143823809Y-82052380D01*
X143204761Y-83052380D02*
X143204761Y-82052380D01*
X142633333Y-83052380D01*
X142633333Y-82052380D01*
X149357142Y-71928571D02*
X149357142Y-72538095D01*
X149661904Y-72233333D02*
X149052380Y-72233333D01*
X148861904Y-72842857D02*
X148861904Y-73338095D01*
X149166666Y-73071428D01*
X149166666Y-73185714D01*
X149204761Y-73261904D01*
X149242857Y-73300000D01*
X149319047Y-73338095D01*
X149509523Y-73338095D01*
X149585714Y-73300000D01*
X149623809Y-73261904D01*
X149661904Y-73185714D01*
X149661904Y-72957142D01*
X149623809Y-72880952D01*
X149585714Y-72842857D01*
X149128571Y-73604761D02*
X149661904Y-73795238D01*
X149128571Y-73985714D01*
X148861904Y-74214285D02*
X148861904Y-74709523D01*
X149166666Y-74442857D01*
X149166666Y-74557142D01*
X149204761Y-74633333D01*
X149242857Y-74671428D01*
X149319047Y-74709523D01*
X149509523Y-74709523D01*
X149585714Y-74671428D01*
X149623809Y-74633333D01*
X149661904Y-74557142D01*
X149661904Y-74328571D01*
X149623809Y-74252380D01*
X149585714Y-74214285D01*
X148900000Y-69490476D02*
X148861904Y-69414285D01*
X148861904Y-69299999D01*
X148900000Y-69185714D01*
X148976190Y-69109523D01*
X149052380Y-69071428D01*
X149204761Y-69033333D01*
X149319047Y-69033333D01*
X149471428Y-69071428D01*
X149547619Y-69109523D01*
X149623809Y-69185714D01*
X149661904Y-69299999D01*
X149661904Y-69376190D01*
X149623809Y-69490476D01*
X149585714Y-69528571D01*
X149319047Y-69528571D01*
X149319047Y-69376190D01*
X149661904Y-69871428D02*
X148861904Y-69871428D01*
X149661904Y-70328571D01*
X148861904Y-70328571D01*
X149661904Y-70709523D02*
X148861904Y-70709523D01*
X148861904Y-70899999D01*
X148899999Y-71014285D01*
X148976190Y-71090476D01*
X149052380Y-71128571D01*
X149204761Y-71166666D01*
X149319047Y-71166666D01*
X149471428Y-71128571D01*
X149547619Y-71090476D01*
X149623809Y-71014285D01*
X149661904Y-70899999D01*
X149661904Y-70709523D01*
D13*
X128790163Y-104256658D02*
X128866354Y-104218562D01*
X128980640Y-104218562D01*
X129094925Y-104256658D01*
X129171116Y-104332848D01*
X129209211Y-104409038D01*
X129247306Y-104561419D01*
X129247306Y-104675705D01*
X129209211Y-104828086D01*
X129171116Y-104904277D01*
X129094925Y-104980467D01*
X128980640Y-105018562D01*
X128904449Y-105018562D01*
X128790163Y-104980467D01*
X128752068Y-104942372D01*
X128752068Y-104675705D01*
X128904449Y-104675705D01*
X128409211Y-105018562D02*
X128409211Y-104218562D01*
X127952068Y-105018562D01*
X127952068Y-104218562D01*
X127571116Y-105018562D02*
X127571116Y-104218562D01*
X127380640Y-104218562D01*
X127266354Y-104256658D01*
X127190163Y-104332848D01*
X127152068Y-104409038D01*
X127113973Y-104561419D01*
X127113973Y-104675705D01*
X127152068Y-104828086D01*
X127190163Y-104904277D01*
X127266354Y-104980467D01*
X127380640Y-105018562D01*
X127571116Y-105018562D01*
X125733020Y-105018562D02*
X126190163Y-105018562D01*
X125961592Y-105018562D02*
X125961592Y-104218562D01*
X126037782Y-104332848D01*
X126113973Y-104409038D01*
X126190163Y-104447134D01*
X125466354Y-104218562D02*
X124971116Y-104218562D01*
X125237782Y-104523324D01*
X125123497Y-104523324D01*
X125047306Y-104561419D01*
X125009211Y-104599515D01*
X124971116Y-104675705D01*
X124971116Y-104866181D01*
X125009211Y-104942372D01*
X125047306Y-104980467D01*
X125123497Y-105018562D01*
X125352068Y-105018562D01*
X125428259Y-104980467D01*
X125466354Y-104942372D01*
X123209211Y-104294753D02*
X123171116Y-104256658D01*
X123094925Y-104218562D01*
X122904449Y-104218562D01*
X122828259Y-104256658D01*
X122790163Y-104294753D01*
X122752068Y-104370943D01*
X122752068Y-104447134D01*
X122790163Y-104561419D01*
X123247306Y-105018562D01*
X122752068Y-105018562D01*
X120533020Y-105018562D02*
X120990163Y-105018562D01*
X120761592Y-105018562D02*
X120761592Y-104218562D01*
X120837782Y-104332848D01*
X120913973Y-104409038D01*
X120990163Y-104447134D01*
X119847306Y-104485229D02*
X119847306Y-105018562D01*
X120037782Y-104180467D02*
X120228259Y-104751896D01*
X119733020Y-104751896D01*
X118390163Y-104294753D02*
X118352068Y-104256658D01*
X118275878Y-104218562D01*
X118085401Y-104218562D01*
X118009211Y-104256658D01*
X117971116Y-104294753D01*
X117933020Y-104370943D01*
X117933020Y-104447134D01*
X117971116Y-104561419D01*
X118428259Y-105018562D01*
X117933020Y-105018562D01*
X117666354Y-104218562D02*
X117171116Y-104218562D01*
X117437782Y-104523324D01*
X117323497Y-104523324D01*
X117247306Y-104561419D01*
X117209211Y-104599515D01*
X117171116Y-104675705D01*
X117171116Y-104866181D01*
X117209211Y-104942372D01*
X117247306Y-104980467D01*
X117323497Y-105018562D01*
X117552068Y-105018562D01*
X117628259Y-104980467D01*
X117666354Y-104942372D01*
X115533020Y-105018562D02*
X115990163Y-105018562D01*
X115761592Y-105018562D02*
X115761592Y-104218562D01*
X115837782Y-104332848D01*
X115913973Y-104409038D01*
X115990163Y-104447134D01*
X115075878Y-104561419D02*
X115152068Y-104523324D01*
X115190163Y-104485229D01*
X115228259Y-104409038D01*
X115228259Y-104370943D01*
X115190163Y-104294753D01*
X115152068Y-104256658D01*
X115075878Y-104218562D01*
X114923497Y-104218562D01*
X114847306Y-104256658D01*
X114809211Y-104294753D01*
X114771116Y-104370943D01*
X114771116Y-104409038D01*
X114809211Y-104485229D01*
X114847306Y-104523324D01*
X114923497Y-104561419D01*
X115075878Y-104561419D01*
X115152068Y-104599515D01*
X115190163Y-104637610D01*
X115228259Y-104713800D01*
X115228259Y-104866181D01*
X115190163Y-104942372D01*
X115152068Y-104980467D01*
X115075878Y-105018562D01*
X114923497Y-105018562D01*
X114847306Y-104980467D01*
X114809211Y-104942372D01*
X114771116Y-104866181D01*
X114771116Y-104713800D01*
X114809211Y-104637610D01*
X114847306Y-104599515D01*
X114923497Y-104561419D01*
X113294925Y-105018562D02*
X113675878Y-105018562D01*
X113675878Y-104218562D01*
X113028259Y-104599515D02*
X112761592Y-104599515D01*
X112647306Y-105018562D02*
X113028259Y-105018562D01*
X113028259Y-104218562D01*
X112647306Y-104218562D01*
X112304449Y-105018562D02*
X112304449Y-104218562D01*
X112113973Y-104218562D01*
X111999687Y-104256658D01*
X111923497Y-104332848D01*
X111885401Y-104409038D01*
X111847306Y-104561419D01*
X111847306Y-104675705D01*
X111885401Y-104828086D01*
X111923497Y-104904277D01*
X111999687Y-104980467D01*
X112113973Y-105018562D01*
X112304449Y-105018562D01*
D10*
X137157142Y-102985714D02*
X136242857Y-102985714D01*
X136699999Y-103442857D02*
X136699999Y-102528571D01*
X135785714Y-102242857D02*
X135042857Y-102242857D01*
X135442857Y-102700000D01*
X135271428Y-102700000D01*
X135157142Y-102757142D01*
X135099999Y-102814285D01*
X135042857Y-102928571D01*
X135042857Y-103214285D01*
X135099999Y-103328571D01*
X135157142Y-103385714D01*
X135271428Y-103442857D01*
X135614285Y-103442857D01*
X135728571Y-103385714D01*
X135785714Y-103328571D01*
X134642857Y-102642857D02*
X134357142Y-103442857D01*
X134071428Y-102642857D01*
X133728571Y-102242857D02*
X132985714Y-102242857D01*
X133385714Y-102700000D01*
X133214285Y-102700000D01*
X133099999Y-102757142D01*
X133042857Y-102814285D01*
X132985714Y-102928571D01*
X132985714Y-103214285D01*
X133042857Y-103328571D01*
X133099999Y-103385714D01*
X133214285Y-103442857D01*
X133557142Y-103442857D01*
X133671428Y-103385714D01*
X133728571Y-103328571D01*
X135842857Y-99185714D02*
X134928571Y-99185714D01*
X135385714Y-99642857D02*
X135385714Y-98728571D01*
X133785714Y-98442857D02*
X134357142Y-98442857D01*
X134414285Y-99014285D01*
X134357142Y-98957142D01*
X134242857Y-98900000D01*
X133957142Y-98900000D01*
X133842857Y-98957142D01*
X133785714Y-99014285D01*
X133728571Y-99128571D01*
X133728571Y-99414285D01*
X133785714Y-99528571D01*
X133842857Y-99585714D01*
X133957142Y-99642857D01*
X134242857Y-99642857D01*
X134357142Y-99585714D01*
X134414285Y-99528571D01*
X133385714Y-98442857D02*
X132985714Y-99642857D01*
X132585714Y-98442857D01*
D11*
X127830000Y-96170476D02*
X127791904Y-96094285D01*
X127791904Y-95979999D01*
X127830000Y-95865714D01*
X127906190Y-95789523D01*
X127982380Y-95751428D01*
X128134761Y-95713333D01*
X128249047Y-95713333D01*
X128401428Y-95751428D01*
X128477619Y-95789523D01*
X128553809Y-95865714D01*
X128591904Y-95979999D01*
X128591904Y-96056190D01*
X128553809Y-96170476D01*
X128515714Y-96208571D01*
X128249047Y-96208571D01*
X128249047Y-96056190D01*
X128591904Y-96551428D02*
X127791904Y-96551428D01*
X128591904Y-97008571D01*
X127791904Y-97008571D01*
X128591904Y-97389523D02*
X127791904Y-97389523D01*
X127791904Y-97579999D01*
X127829999Y-97694285D01*
X127906190Y-97770476D01*
X127982380Y-97808571D01*
X128134761Y-97846666D01*
X128249047Y-97846666D01*
X128401428Y-97808571D01*
X128477619Y-97770476D01*
X128553809Y-97694285D01*
X128591904Y-97579999D01*
X128591904Y-97389523D01*
D10*
X126275230Y-96682642D02*
X126332373Y-96625500D01*
X126389516Y-96454071D01*
X126389516Y-96339785D01*
X126332373Y-96168357D01*
X126218087Y-96054071D01*
X126103801Y-95996928D01*
X125875230Y-95939785D01*
X125703801Y-95939785D01*
X125475230Y-95996928D01*
X125360944Y-96054071D01*
X125246659Y-96168357D01*
X125189516Y-96339785D01*
X125189516Y-96454071D01*
X125246659Y-96625500D01*
X125303801Y-96682642D01*
X126332373Y-97139785D02*
X126389516Y-97311214D01*
X126389516Y-97596928D01*
X126332373Y-97711214D01*
X126275230Y-97768357D01*
X126160944Y-97825500D01*
X126046658Y-97825500D01*
X125932373Y-97768357D01*
X125875230Y-97711214D01*
X125818087Y-97596928D01*
X125760944Y-97368357D01*
X125703801Y-97254071D01*
X125646658Y-97196928D01*
X125532373Y-97139785D01*
X125418087Y-97139785D01*
X125303801Y-97196928D01*
X125246658Y-97254071D01*
X125189516Y-97368357D01*
X125189516Y-97654071D01*
X125246658Y-97825500D01*
X120303801Y-95996928D02*
X120246659Y-96054071D01*
X120189516Y-96168356D01*
X120189516Y-96454071D01*
X120246659Y-96568356D01*
X120303801Y-96625499D01*
X120418087Y-96682642D01*
X120532373Y-96682642D01*
X120703801Y-96625499D01*
X121389516Y-95939785D01*
X121389516Y-96682642D01*
X120189516Y-97082642D02*
X120189516Y-97825499D01*
X120646658Y-97425499D01*
X120646658Y-97596928D01*
X120703801Y-97711214D01*
X120760944Y-97768356D01*
X120875230Y-97825499D01*
X121160944Y-97825499D01*
X121275230Y-97768356D01*
X121332373Y-97711214D01*
X121389516Y-97596928D01*
X121389516Y-97254071D01*
X121332373Y-97139785D01*
X121275230Y-97082642D01*
X118789516Y-96682642D02*
X118789516Y-95996928D01*
X118789516Y-96339785D02*
X117589516Y-96339785D01*
X117760944Y-96225499D01*
X117875230Y-96111214D01*
X117932373Y-95996928D01*
X118103801Y-97368356D02*
X118046658Y-97254071D01*
X117989516Y-97196928D01*
X117875230Y-97139785D01*
X117818087Y-97139785D01*
X117703801Y-97196928D01*
X117646658Y-97254071D01*
X117589516Y-97368356D01*
X117589516Y-97596928D01*
X117646658Y-97711214D01*
X117703801Y-97768356D01*
X117818087Y-97825499D01*
X117875230Y-97825499D01*
X117989516Y-97768356D01*
X118046658Y-97711214D01*
X118103801Y-97596928D01*
X118103801Y-97368356D01*
X118160944Y-97254071D01*
X118218087Y-97196928D01*
X118332373Y-97139785D01*
X118560944Y-97139785D01*
X118675230Y-97196928D01*
X118732373Y-97254071D01*
X118789516Y-97368356D01*
X118789516Y-97596928D01*
X118732373Y-97711214D01*
X118675230Y-97768356D01*
X118560944Y-97825499D01*
X118332373Y-97825499D01*
X118218087Y-97768356D01*
X118160944Y-97711214D01*
X118103801Y-97596928D01*
X123789516Y-96682642D02*
X123789516Y-95996928D01*
X123789516Y-96339785D02*
X122589516Y-96339785D01*
X122760944Y-96225499D01*
X122875230Y-96111214D01*
X122932373Y-95996928D01*
X123789516Y-97254071D02*
X123789516Y-97482642D01*
X123732373Y-97596928D01*
X123675230Y-97654071D01*
X123503801Y-97768356D01*
X123275230Y-97825499D01*
X122818087Y-97825499D01*
X122703801Y-97768356D01*
X122646658Y-97711214D01*
X122589516Y-97596928D01*
X122589516Y-97368356D01*
X122646658Y-97254071D01*
X122703801Y-97196928D01*
X122818087Y-97139785D01*
X123103801Y-97139785D01*
X123218087Y-97196928D01*
X123275230Y-97254071D01*
X123332373Y-97368356D01*
X123332373Y-97596928D01*
X123275230Y-97711214D01*
X123218087Y-97768356D01*
X123103801Y-97825499D01*
X114989516Y-95939785D02*
X114989516Y-96682642D01*
X115446659Y-96282642D01*
X115446659Y-96454071D01*
X115503801Y-96568356D01*
X115560944Y-96625499D01*
X115675230Y-96682642D01*
X115960944Y-96682642D01*
X116075230Y-96625499D01*
X116132373Y-96568356D01*
X116189516Y-96454071D01*
X116189516Y-96111214D01*
X116132373Y-95996928D01*
X116075230Y-95939785D01*
X115103801Y-97139785D02*
X115046658Y-97196928D01*
X114989516Y-97311214D01*
X114989516Y-97596928D01*
X115046658Y-97711214D01*
X115103801Y-97768356D01*
X115218087Y-97825499D01*
X115332373Y-97825499D01*
X115503801Y-97768356D01*
X116189516Y-97082642D01*
X116189516Y-97825499D01*
X113589516Y-96682642D02*
X113589516Y-95996928D01*
X113589516Y-96339785D02*
X112389516Y-96339785D01*
X112560944Y-96225499D01*
X112675230Y-96111214D01*
X112732373Y-95996928D01*
X112503801Y-97139785D02*
X112446658Y-97196928D01*
X112389516Y-97311214D01*
X112389516Y-97596928D01*
X112446658Y-97711214D01*
X112503801Y-97768356D01*
X112618087Y-97825499D01*
X112732373Y-97825499D01*
X112903801Y-97768356D01*
X113589516Y-97082642D01*
X113589516Y-97825499D01*
X109989516Y-95939785D02*
X109989516Y-96682642D01*
X110446659Y-96282642D01*
X110446659Y-96454071D01*
X110503801Y-96568356D01*
X110560944Y-96625499D01*
X110675230Y-96682642D01*
X110960944Y-96682642D01*
X111075230Y-96625499D01*
X111132373Y-96568356D01*
X111189516Y-96454071D01*
X111189516Y-96111214D01*
X111132373Y-95996928D01*
X111075230Y-95939785D01*
X109989516Y-97082642D02*
X109989516Y-97825499D01*
X110446658Y-97425499D01*
X110446658Y-97596928D01*
X110503801Y-97711214D01*
X110560944Y-97768356D01*
X110675230Y-97825499D01*
X110960944Y-97825499D01*
X111075230Y-97768356D01*
X111132373Y-97711214D01*
X111189516Y-97596928D01*
X111189516Y-97254071D01*
X111132373Y-97139785D01*
X111075230Y-97082642D01*
X107589516Y-95939785D02*
X107589516Y-96682642D01*
X108046659Y-96282642D01*
X108046659Y-96454071D01*
X108103801Y-96568356D01*
X108160944Y-96625499D01*
X108275230Y-96682642D01*
X108560944Y-96682642D01*
X108675230Y-96625499D01*
X108732373Y-96568356D01*
X108789516Y-96454071D01*
X108789516Y-96111214D01*
X108732373Y-95996928D01*
X108675230Y-95939785D01*
X107989516Y-97711214D02*
X108789516Y-97711214D01*
X107532373Y-97425499D02*
X108389516Y-97139785D01*
X108389516Y-97882642D01*
D14*
G04 #@! TO.C,REF\002A\002A*
X63100000Y-102900000D02*
X63100000Y-105300000D01*
X65500000Y-102900000D02*
X63100000Y-102900000D01*
X65500000Y-105300000D02*
X65500000Y-102900000D01*
X63100000Y-105300000D02*
X65500000Y-105300000D01*
X63100000Y-57400000D02*
X63100000Y-59800000D01*
X65500000Y-57400000D02*
X63100000Y-57400000D01*
X65500000Y-59800000D02*
X65500000Y-57400000D01*
X63100000Y-59800000D02*
X65500000Y-59800000D01*
X80600000Y-57400000D02*
X80600000Y-59800000D01*
X83000000Y-57400000D02*
X80600000Y-57400000D01*
X83000000Y-59800000D02*
X83000000Y-57400000D01*
X80600000Y-59800000D02*
X83000000Y-59800000D01*
X75600000Y-57400000D02*
X75600000Y-59800000D01*
X78000000Y-57400000D02*
X75600000Y-57400000D01*
X78000000Y-59800000D02*
X78000000Y-57400000D01*
X75600000Y-59800000D02*
X78000000Y-59800000D01*
X75600000Y-102900000D02*
X75600000Y-105300000D01*
X78000000Y-102900000D02*
X75600000Y-102900000D01*
X78000000Y-105300000D02*
X78000000Y-102900000D01*
X75600000Y-105300000D02*
X78000000Y-105300000D01*
X138600000Y-102900000D02*
X138600000Y-105300000D01*
X141000000Y-102900000D02*
X138600000Y-102900000D01*
X141000000Y-105300000D02*
X141000000Y-102900000D01*
X138600000Y-105300000D02*
X141000000Y-105300000D01*
X80600000Y-102900000D02*
X80600000Y-105300000D01*
X83000000Y-102900000D02*
X80600000Y-102900000D01*
X83000000Y-105300000D02*
X83000000Y-102900000D01*
X80600000Y-105300000D02*
X83000000Y-105300000D01*
D15*
G04 #@! TO.C,LCD1*
X91800000Y-61100000D02*
X91800000Y-95100000D01*
X91800000Y-95100000D02*
X135800000Y-95100000D01*
X135800000Y-95100000D02*
X135800000Y-61100000D01*
X135800000Y-61100000D02*
X91800000Y-61100000D01*
X125700000Y-72900000D02*
X125700000Y-83300000D01*
D16*
G04 #@! TO.C,G\002A\002A\002A*
G36*
X130213042Y-64614143D02*
X130123152Y-64618834D01*
X130054770Y-64628605D01*
X130001742Y-64645052D01*
X129957915Y-64669773D01*
X129917135Y-64704363D01*
X129896132Y-64725683D01*
X129852376Y-64780658D01*
X129822751Y-64842036D01*
X129805115Y-64917396D01*
X129797325Y-65014317D01*
X129796458Y-65078227D01*
X129803023Y-65205209D01*
X129823805Y-65305389D01*
X129861317Y-65383742D01*
X129918072Y-65445246D01*
X129996582Y-65494877D01*
X130010162Y-65501497D01*
X130048286Y-65518405D01*
X130083856Y-65530171D01*
X130124141Y-65537718D01*
X130176409Y-65541968D01*
X130247927Y-65543843D01*
X130345963Y-65544267D01*
X130593733Y-65544267D01*
X130593733Y-64612934D01*
X130330592Y-64612934D01*
X130213042Y-64614143D01*
X130213042Y-64614143D01*
G37*
X130213042Y-64614143D02*
X130123152Y-64618834D01*
X130054770Y-64628605D01*
X130001742Y-64645052D01*
X129957915Y-64669773D01*
X129917135Y-64704363D01*
X129896132Y-64725683D01*
X129852376Y-64780658D01*
X129822751Y-64842036D01*
X129805115Y-64917396D01*
X129797325Y-65014317D01*
X129796458Y-65078227D01*
X129803023Y-65205209D01*
X129823805Y-65305389D01*
X129861317Y-65383742D01*
X129918072Y-65445246D01*
X129996582Y-65494877D01*
X130010162Y-65501497D01*
X130048286Y-65518405D01*
X130083856Y-65530171D01*
X130124141Y-65537718D01*
X130176409Y-65541968D01*
X130247927Y-65543843D01*
X130345963Y-65544267D01*
X130593733Y-65544267D01*
X130593733Y-64612934D01*
X130330592Y-64612934D01*
X130213042Y-64614143D01*
G36*
X132045539Y-64387898D02*
X132043981Y-64392801D01*
X132031609Y-64445702D01*
X132017890Y-64512944D01*
X132004180Y-64586592D01*
X131991839Y-64658712D01*
X131982226Y-64721369D01*
X131976697Y-64766628D01*
X131976579Y-64786500D01*
X131996694Y-64794192D01*
X132038392Y-64798705D01*
X132059466Y-64799200D01*
X132107232Y-64796615D01*
X132129256Y-64786761D01*
X132133597Y-64769567D01*
X132129982Y-64741793D01*
X132120973Y-64688704D01*
X132107963Y-64618166D01*
X132093778Y-64545200D01*
X132076180Y-64461345D01*
X132062773Y-64408704D01*
X132052809Y-64384985D01*
X132045539Y-64387898D01*
X132045539Y-64387898D01*
G37*
X132045539Y-64387898D02*
X132043981Y-64392801D01*
X132031609Y-64445702D01*
X132017890Y-64512944D01*
X132004180Y-64586592D01*
X131991839Y-64658712D01*
X131982226Y-64721369D01*
X131976697Y-64766628D01*
X131976579Y-64786500D01*
X131996694Y-64794192D01*
X132038392Y-64798705D01*
X132059466Y-64799200D01*
X132107232Y-64796615D01*
X132129256Y-64786761D01*
X132133597Y-64769567D01*
X132129982Y-64741793D01*
X132120973Y-64688704D01*
X132107963Y-64618166D01*
X132093778Y-64545200D01*
X132076180Y-64461345D01*
X132062773Y-64408704D01*
X132052809Y-64384985D01*
X132045539Y-64387898D01*
G36*
X132053001Y-64921237D02*
X131941256Y-64926200D01*
X131911736Y-65070134D01*
X131898240Y-65137846D01*
X131887787Y-65193909D01*
X131882040Y-65229248D01*
X131881441Y-65235234D01*
X131891158Y-65245601D01*
X131923823Y-65252246D01*
X131983346Y-65255662D01*
X132050000Y-65256400D01*
X132133205Y-65255112D01*
X132186491Y-65250926D01*
X132213721Y-65243360D01*
X132219368Y-65235234D01*
X132216469Y-65209874D01*
X132208695Y-65160163D01*
X132197476Y-65095025D01*
X132192075Y-65065170D01*
X132164747Y-64916273D01*
X132053001Y-64921237D01*
X132053001Y-64921237D01*
G37*
X132053001Y-64921237D02*
X131941256Y-64926200D01*
X131911736Y-65070134D01*
X131898240Y-65137846D01*
X131887787Y-65193909D01*
X131882040Y-65229248D01*
X131881441Y-65235234D01*
X131891158Y-65245601D01*
X131923823Y-65252246D01*
X131983346Y-65255662D01*
X132050000Y-65256400D01*
X132133205Y-65255112D01*
X132186491Y-65250926D01*
X132213721Y-65243360D01*
X132219368Y-65235234D01*
X132216469Y-65209874D01*
X132208695Y-65160163D01*
X132197476Y-65095025D01*
X132192075Y-65065170D01*
X132164747Y-64916273D01*
X132053001Y-64921237D01*
G36*
X131822393Y-65548501D02*
X131809430Y-65619271D01*
X131797966Y-65678382D01*
X131789710Y-65717172D01*
X131787298Y-65726301D01*
X131792118Y-65734585D01*
X131815506Y-65740546D01*
X131861154Y-65744481D01*
X131932754Y-65746685D01*
X132034001Y-65747457D01*
X132050532Y-65747467D01*
X132141916Y-65747077D01*
X132220101Y-65745999D01*
X132279414Y-65744372D01*
X132314183Y-65742334D01*
X132320934Y-65740871D01*
X132317871Y-65719376D01*
X132309887Y-65674100D01*
X132298786Y-65614451D01*
X132286373Y-65549841D01*
X132274453Y-65489679D01*
X132264830Y-65443375D01*
X132259678Y-65421501D01*
X132252280Y-65408769D01*
X132235165Y-65400262D01*
X132202546Y-65395158D01*
X132148636Y-65392637D01*
X132067648Y-65391880D01*
X132050618Y-65391867D01*
X131850319Y-65391867D01*
X131822393Y-65548501D01*
X131822393Y-65548501D01*
G37*
X131822393Y-65548501D02*
X131809430Y-65619271D01*
X131797966Y-65678382D01*
X131789710Y-65717172D01*
X131787298Y-65726301D01*
X131792118Y-65734585D01*
X131815506Y-65740546D01*
X131861154Y-65744481D01*
X131932754Y-65746685D01*
X132034001Y-65747457D01*
X132050532Y-65747467D01*
X132141916Y-65747077D01*
X132220101Y-65745999D01*
X132279414Y-65744372D01*
X132314183Y-65742334D01*
X132320934Y-65740871D01*
X132317871Y-65719376D01*
X132309887Y-65674100D01*
X132298786Y-65614451D01*
X132286373Y-65549841D01*
X132274453Y-65489679D01*
X132264830Y-65443375D01*
X132259678Y-65421501D01*
X132252280Y-65408769D01*
X132235165Y-65400262D01*
X132202546Y-65395158D01*
X132148636Y-65392637D01*
X132067648Y-65391880D01*
X132050618Y-65391867D01*
X131850319Y-65391867D01*
X131822393Y-65548501D01*
G36*
X131949564Y-65866126D02*
X131872761Y-65866913D01*
X131820127Y-65868972D01*
X131786815Y-65872916D01*
X131767977Y-65879359D01*
X131758762Y-65888913D01*
X131754324Y-65902190D01*
X131753873Y-65904101D01*
X131745809Y-65941973D01*
X131734774Y-65997998D01*
X131722486Y-66062884D01*
X131710662Y-66127340D01*
X131701020Y-66182073D01*
X131695278Y-66217790D01*
X131694403Y-66225834D01*
X131710516Y-66229580D01*
X131755584Y-66232888D01*
X131824696Y-66235585D01*
X131912940Y-66237499D01*
X132015405Y-66238457D01*
X132055196Y-66238534D01*
X132415993Y-66238534D01*
X132381992Y-66052267D01*
X132347991Y-65866001D01*
X132055385Y-65866001D01*
X131949564Y-65866126D01*
X131949564Y-65866126D01*
G37*
X131949564Y-65866126D02*
X131872761Y-65866913D01*
X131820127Y-65868972D01*
X131786815Y-65872916D01*
X131767977Y-65879359D01*
X131758762Y-65888913D01*
X131754324Y-65902190D01*
X131753873Y-65904101D01*
X131745809Y-65941973D01*
X131734774Y-65997998D01*
X131722486Y-66062884D01*
X131710662Y-66127340D01*
X131701020Y-66182073D01*
X131695278Y-66217790D01*
X131694403Y-66225834D01*
X131710516Y-66229580D01*
X131755584Y-66232888D01*
X131824696Y-66235585D01*
X131912940Y-66237499D01*
X132015405Y-66238457D01*
X132055196Y-66238534D01*
X132415993Y-66238534D01*
X132381992Y-66052267D01*
X132347991Y-65866001D01*
X132055385Y-65866001D01*
X131949564Y-65866126D01*
G36*
X131635855Y-66522167D02*
X131621900Y-66594727D01*
X131609469Y-66655714D01*
X131600301Y-66696780D01*
X131597071Y-66708434D01*
X131601507Y-66714980D01*
X131622265Y-66720117D01*
X131662356Y-66723985D01*
X131724791Y-66726725D01*
X131812581Y-66728478D01*
X131928735Y-66729387D01*
X132048188Y-66729601D01*
X132204802Y-66729000D01*
X132328177Y-66727184D01*
X132418920Y-66724127D01*
X132477638Y-66719808D01*
X132504938Y-66714200D01*
X132507200Y-66711699D01*
X132503630Y-66685065D01*
X132494695Y-66640004D01*
X132490849Y-66622799D01*
X132478002Y-66564063D01*
X132463328Y-66492807D01*
X132455782Y-66454434D01*
X132437066Y-66357067D01*
X131666744Y-66357067D01*
X131635855Y-66522167D01*
X131635855Y-66522167D01*
G37*
X131635855Y-66522167D02*
X131621900Y-66594727D01*
X131609469Y-66655714D01*
X131600301Y-66696780D01*
X131597071Y-66708434D01*
X131601507Y-66714980D01*
X131622265Y-66720117D01*
X131662356Y-66723985D01*
X131724791Y-66726725D01*
X131812581Y-66728478D01*
X131928735Y-66729387D01*
X132048188Y-66729601D01*
X132204802Y-66729000D01*
X132328177Y-66727184D01*
X132418920Y-66724127D01*
X132477638Y-66719808D01*
X132504938Y-66714200D01*
X132507200Y-66711699D01*
X132503630Y-66685065D01*
X132494695Y-66640004D01*
X132490849Y-66622799D01*
X132478002Y-66564063D01*
X132463328Y-66492807D01*
X132455782Y-66454434D01*
X132437066Y-66357067D01*
X131666744Y-66357067D01*
X131635855Y-66522167D01*
G36*
X131567899Y-66886234D02*
X131557982Y-66932132D01*
X131545638Y-66992049D01*
X131532677Y-67056799D01*
X131520912Y-67117197D01*
X131512153Y-67164058D01*
X131508212Y-67188197D01*
X131508147Y-67189222D01*
X131510444Y-67195541D01*
X131519569Y-67200546D01*
X131538846Y-67204346D01*
X131571602Y-67207050D01*
X131621160Y-67208766D01*
X131690848Y-67209602D01*
X131783988Y-67209667D01*
X131903907Y-67209069D01*
X132053930Y-67207917D01*
X132075964Y-67207731D01*
X132601462Y-67203262D01*
X132567920Y-67025698D01*
X132534379Y-66848134D01*
X131576512Y-66848134D01*
X131567899Y-66886234D01*
X131567899Y-66886234D01*
G37*
X131567899Y-66886234D02*
X131557982Y-66932132D01*
X131545638Y-66992049D01*
X131532677Y-67056799D01*
X131520912Y-67117197D01*
X131512153Y-67164058D01*
X131508212Y-67188197D01*
X131508147Y-67189222D01*
X131510444Y-67195541D01*
X131519569Y-67200546D01*
X131538846Y-67204346D01*
X131571602Y-67207050D01*
X131621160Y-67208766D01*
X131690848Y-67209602D01*
X131783988Y-67209667D01*
X131903907Y-67209069D01*
X132053930Y-67207917D01*
X132075964Y-67207731D01*
X132601462Y-67203262D01*
X132567920Y-67025698D01*
X132534379Y-66848134D01*
X131576512Y-66848134D01*
X131567899Y-66886234D01*
G36*
X128324667Y-68575334D02*
X135775333Y-68575334D01*
X135775333Y-67800693D01*
X133032133Y-67800693D01*
X133021808Y-67830305D01*
X132996206Y-67869923D01*
X132988295Y-67879768D01*
X132933644Y-67921189D01*
X132869365Y-67933769D01*
X132804490Y-67916925D01*
X132770514Y-67893767D01*
X132751301Y-67872829D01*
X132735329Y-67843704D01*
X132720535Y-67800214D01*
X132704856Y-67736182D01*
X132686231Y-67645430D01*
X132684299Y-67635534D01*
X132667606Y-67550044D01*
X132652625Y-67473862D01*
X132640861Y-67414599D01*
X132633817Y-67379864D01*
X132633274Y-67377301D01*
X132625088Y-67339201D01*
X131478126Y-67339201D01*
X131441437Y-67538167D01*
X131420132Y-67651065D01*
X131402708Y-67735587D01*
X131387668Y-67796795D01*
X131373514Y-67839749D01*
X131358748Y-67869511D01*
X131341873Y-67891141D01*
X131334973Y-67897932D01*
X131280828Y-67927236D01*
X131216696Y-67931530D01*
X131154802Y-67911368D01*
X131124463Y-67888403D01*
X131100471Y-67860928D01*
X131088622Y-67832745D01*
X131086179Y-67792282D01*
X131089401Y-67740236D01*
X131096515Y-67677219D01*
X131108686Y-67594352D01*
X131123877Y-67504899D01*
X131132775Y-67457734D01*
X131148020Y-67379606D01*
X131168332Y-67274600D01*
X131192485Y-67149114D01*
X131219255Y-67009547D01*
X131247417Y-66862298D01*
X131266266Y-66763467D01*
X130898533Y-66763467D01*
X130593733Y-66763467D01*
X130593733Y-65767535D01*
X130497949Y-65761734D01*
X130402164Y-65755934D01*
X130308864Y-65899867D01*
X130220410Y-66037225D01*
X130150076Y-66148553D01*
X130096771Y-66235711D01*
X130059405Y-66300562D01*
X130036888Y-66344967D01*
X130028131Y-66370787D01*
X130028898Y-66377935D01*
X130029483Y-66388168D01*
X130021466Y-66384609D01*
X130000696Y-66388639D01*
X129982672Y-66410598D01*
X129965433Y-66439952D01*
X129934496Y-66490031D01*
X129894636Y-66553178D01*
X129860922Y-66605806D01*
X129759267Y-66763467D01*
X129592300Y-66763467D01*
X129521759Y-66762691D01*
X129465962Y-66760600D01*
X129432128Y-66757551D01*
X129425333Y-66755229D01*
X129434088Y-66739495D01*
X129458948Y-66698572D01*
X129497814Y-66635824D01*
X129548583Y-66554617D01*
X129609153Y-66458316D01*
X129677422Y-66350287D01*
X129731499Y-66265030D01*
X129804119Y-66150309D01*
X129870533Y-66044615D01*
X129928641Y-65951350D01*
X129976345Y-65873915D01*
X130011543Y-65815713D01*
X130032138Y-65780145D01*
X130036743Y-65770417D01*
X130021378Y-65759440D01*
X129988811Y-65751979D01*
X129868083Y-65720979D01*
X129753578Y-65661531D01*
X129651979Y-65579051D01*
X129569971Y-65478954D01*
X129514629Y-65367783D01*
X129496028Y-65288629D01*
X129485366Y-65187760D01*
X129482476Y-65075666D01*
X129487194Y-64962843D01*
X129499354Y-64859782D01*
X129518791Y-64776976D01*
X129524175Y-64762146D01*
X129579575Y-64661030D01*
X129659810Y-64565546D01*
X129756066Y-64485169D01*
X129814800Y-64449704D01*
X129907933Y-64401267D01*
X130403233Y-64395887D01*
X130898533Y-64390506D01*
X130898533Y-66763467D01*
X131266266Y-66763467D01*
X131275746Y-66713766D01*
X131303018Y-66570348D01*
X131328008Y-66438445D01*
X131338576Y-66382467D01*
X131349227Y-66326272D01*
X131365301Y-66241874D01*
X131385831Y-66134330D01*
X131409851Y-66008695D01*
X131436394Y-65870025D01*
X131464493Y-65723376D01*
X131490727Y-65586601D01*
X131518954Y-65439389D01*
X131546110Y-65297532D01*
X131571306Y-65165704D01*
X131593648Y-65048578D01*
X131612245Y-64950830D01*
X131626206Y-64877134D01*
X131634471Y-64833067D01*
X131653324Y-64731675D01*
X131675120Y-64615155D01*
X131698922Y-64488460D01*
X131723790Y-64356544D01*
X131748784Y-64224362D01*
X131749101Y-64222689D01*
X130907798Y-64222689D01*
X130905481Y-64246721D01*
X130882095Y-64273269D01*
X130844979Y-64270468D01*
X130795960Y-64239050D01*
X130736865Y-64179749D01*
X130735909Y-64178649D01*
X130589763Y-63985542D01*
X130474421Y-63778586D01*
X130389503Y-63556959D01*
X130334632Y-63319838D01*
X130331003Y-63296703D01*
X130309583Y-63050018D01*
X130320969Y-62811508D01*
X130365208Y-62581018D01*
X130442348Y-62358390D01*
X130552436Y-62143472D01*
X130695519Y-61936106D01*
X130775150Y-61840101D01*
X130822081Y-61797465D01*
X130861615Y-61786508D01*
X130893824Y-61804064D01*
X130905300Y-61826625D01*
X130897980Y-61857283D01*
X130869597Y-61900850D01*
X130821009Y-61958634D01*
X130685646Y-62135623D01*
X130577487Y-62329682D01*
X130497126Y-62536934D01*
X130445157Y-62753498D01*
X130422174Y-62975498D01*
X130428771Y-63199055D01*
X130465541Y-63420290D01*
X130533079Y-63635326D01*
X130555894Y-63690067D01*
X130613038Y-63803618D01*
X130685867Y-63924037D01*
X130766068Y-64038639D01*
X130845322Y-64134735D01*
X130852223Y-64142147D01*
X130891781Y-64188967D01*
X130907798Y-64222689D01*
X131749101Y-64222689D01*
X131772966Y-64096867D01*
X131794042Y-63986118D01*
X131168827Y-63986118D01*
X131157464Y-64009693D01*
X131126016Y-64019299D01*
X131082723Y-63998975D01*
X131029379Y-63949793D01*
X131000698Y-63916209D01*
X130874334Y-63733982D01*
X130779100Y-63540964D01*
X130715673Y-63339243D01*
X130684733Y-63130906D01*
X130684876Y-62944331D01*
X130714930Y-62735493D01*
X130774347Y-62536054D01*
X130861226Y-62350521D01*
X130973666Y-62183404D01*
X131036177Y-62111034D01*
X131049526Y-62098334D01*
X130949333Y-62098334D01*
X130940867Y-62106800D01*
X130932400Y-62098334D01*
X130940867Y-62089867D01*
X130949333Y-62098334D01*
X131049526Y-62098334D01*
X131087387Y-62062317D01*
X131124081Y-62042346D01*
X131148699Y-62050548D01*
X131162543Y-62081517D01*
X131163532Y-62115107D01*
X131145608Y-62151247D01*
X131115336Y-62188012D01*
X130997906Y-62340387D01*
X130903212Y-62509916D01*
X130835966Y-62687680D01*
X130820907Y-62745307D01*
X130803990Y-62852090D01*
X130796260Y-62978136D01*
X130797745Y-63110102D01*
X130808474Y-63234644D01*
X130819686Y-63301823D01*
X130864408Y-63453233D01*
X130934281Y-63609255D01*
X131024005Y-63759682D01*
X131125940Y-63891668D01*
X131160387Y-63942779D01*
X131168827Y-63986118D01*
X131794042Y-63986118D01*
X131795395Y-63979013D01*
X131815134Y-63875755D01*
X131831242Y-63792046D01*
X131842780Y-63732841D01*
X131847962Y-63707055D01*
X131454976Y-63707055D01*
X131446045Y-63721112D01*
X131413175Y-63732413D01*
X131368402Y-63712318D01*
X131311559Y-63660746D01*
X131302100Y-63650423D01*
X131205948Y-63518401D01*
X131137321Y-63367494D01*
X131096790Y-63199319D01*
X131084800Y-63032787D01*
X131099827Y-62848005D01*
X131144688Y-62678233D01*
X131219054Y-62524398D01*
X131309132Y-62402383D01*
X131361972Y-62351473D01*
X131404591Y-62329419D01*
X131435197Y-62336767D01*
X131448602Y-62359965D01*
X131446402Y-62390231D01*
X131422518Y-62434272D01*
X131384199Y-62484935D01*
X131289010Y-62627034D01*
X131224751Y-62779058D01*
X131191422Y-62937154D01*
X131189023Y-63097467D01*
X131217555Y-63256145D01*
X131277018Y-63409333D01*
X131367412Y-63553179D01*
X131384071Y-63574242D01*
X131430051Y-63635016D01*
X131453019Y-63677705D01*
X131454976Y-63707055D01*
X131847962Y-63707055D01*
X131847973Y-63707001D01*
X131859934Y-63649636D01*
X131870090Y-63600667D01*
X131873380Y-63584685D01*
X131871947Y-63556790D01*
X131849785Y-63533276D01*
X131815404Y-63513528D01*
X131700786Y-63439205D01*
X131614975Y-63347488D01*
X131557469Y-63237529D01*
X131527764Y-63108480D01*
X131523080Y-63020640D01*
X131538616Y-62888145D01*
X131584517Y-62770534D01*
X131661051Y-62667163D01*
X131676765Y-62651311D01*
X131761803Y-62580072D01*
X131847646Y-62534621D01*
X131944651Y-62510887D01*
X132050000Y-62504734D01*
X132128317Y-62506444D01*
X132185991Y-62513304D01*
X132236149Y-62527909D01*
X132290864Y-62552333D01*
X132396926Y-62621919D01*
X132484404Y-62718131D01*
X132540865Y-62812666D01*
X132569978Y-62900138D01*
X132582419Y-63004371D01*
X132578085Y-63112592D01*
X132556876Y-63212025D01*
X132544280Y-63245054D01*
X132496308Y-63328323D01*
X132431562Y-63406911D01*
X132359384Y-63470751D01*
X132304366Y-63503635D01*
X132253976Y-63534143D01*
X132236312Y-63565835D01*
X132236267Y-63567579D01*
X132239338Y-63594322D01*
X132247869Y-63648355D01*
X132260840Y-63723729D01*
X132277227Y-63814492D01*
X132294715Y-63907907D01*
X132309549Y-63985858D01*
X132329832Y-64092459D01*
X132354685Y-64223088D01*
X132383229Y-64373126D01*
X132414585Y-64537952D01*
X132447873Y-64712944D01*
X132482215Y-64893484D01*
X132516732Y-65074949D01*
X132522258Y-65104000D01*
X132562369Y-65314753D01*
X132607166Y-65549907D01*
X132654958Y-65800603D01*
X132704056Y-66057980D01*
X132752768Y-66313178D01*
X132799405Y-66557338D01*
X132842276Y-66781601D01*
X132861743Y-66883359D01*
X132894112Y-67052991D01*
X132924469Y-67213031D01*
X132952226Y-67360313D01*
X132976794Y-67491670D01*
X132997587Y-67603937D01*
X133014015Y-67693947D01*
X133025490Y-67758534D01*
X133031425Y-67794532D01*
X133032133Y-67800693D01*
X135775333Y-67800693D01*
X135775333Y-64477467D01*
X134640800Y-64477467D01*
X134640800Y-66848134D01*
X134336463Y-66848134D01*
X134331998Y-66294462D01*
X134327533Y-65740789D01*
X133912667Y-66293966D01*
X133497800Y-66847144D01*
X133324233Y-66847639D01*
X133252108Y-66846421D01*
X133194664Y-66842739D01*
X133158956Y-66837211D01*
X133150667Y-66832449D01*
X133160682Y-66816097D01*
X133189293Y-66775843D01*
X133234353Y-66714555D01*
X133293713Y-66635101D01*
X133365224Y-66540349D01*
X133446738Y-66433165D01*
X133536105Y-66316418D01*
X133583976Y-66254167D01*
X133676871Y-66133292D01*
X133763354Y-66020256D01*
X133841220Y-65917976D01*
X133908269Y-65829367D01*
X133962297Y-65757346D01*
X134001101Y-65704829D01*
X134022480Y-65674732D01*
X134025940Y-65669018D01*
X134020169Y-65645945D01*
X133997123Y-65604886D01*
X133961388Y-65553721D01*
X133951056Y-65540334D01*
X133896981Y-65471067D01*
X133835897Y-65391978D01*
X133781690Y-65321059D01*
X133741465Y-65270968D01*
X133708368Y-65235162D01*
X133687733Y-65219208D01*
X133684319Y-65219459D01*
X133677146Y-65219063D01*
X133678422Y-65213109D01*
X133670183Y-65194973D01*
X133643950Y-65154405D01*
X133602676Y-65095579D01*
X133549319Y-65022673D01*
X133486834Y-64939860D01*
X133463933Y-64910058D01*
X133394517Y-64820032D01*
X133328575Y-64734319D01*
X133270210Y-64658266D01*
X133223522Y-64597218D01*
X133192612Y-64556520D01*
X133188602Y-64551183D01*
X133133404Y-64477467D01*
X133497800Y-64479987D01*
X133631988Y-64660760D01*
X133679858Y-64725032D01*
X133743575Y-64810260D01*
X133818586Y-64910370D01*
X133900335Y-65019287D01*
X133984268Y-65130937D01*
X134046855Y-65214067D01*
X134327533Y-65586601D01*
X134336463Y-64477467D01*
X134640800Y-64477467D01*
X135775333Y-64477467D01*
X135775333Y-62938744D01*
X133790175Y-62938744D01*
X133788666Y-63105867D01*
X133767578Y-63333380D01*
X133723446Y-63539486D01*
X133655057Y-63728668D01*
X133581692Y-63871480D01*
X133552353Y-63922754D01*
X133531361Y-63961757D01*
X133523202Y-63980152D01*
X133523200Y-63980225D01*
X133512954Y-63998669D01*
X133485941Y-64035573D01*
X133447748Y-64083957D01*
X133403963Y-64136838D01*
X133360173Y-64187236D01*
X133338673Y-64210767D01*
X133291157Y-64252242D01*
X133248769Y-64272885D01*
X133217172Y-64271555D01*
X133202028Y-64247108D01*
X133201467Y-64238466D01*
X133212125Y-64208971D01*
X133240295Y-64163774D01*
X133280274Y-64111828D01*
X133287642Y-64103192D01*
X133421775Y-63924986D01*
X133530226Y-63728770D01*
X133614688Y-63511238D01*
X133646186Y-63402201D01*
X133664590Y-63305359D01*
X133676836Y-63186449D01*
X133682674Y-63056749D01*
X133682502Y-63029667D01*
X133412590Y-63029667D01*
X133412101Y-63135346D01*
X133409566Y-63215390D01*
X133404162Y-63278008D01*
X133395067Y-63331411D01*
X133381458Y-63383807D01*
X133374962Y-63405065D01*
X133302541Y-63595840D01*
X133212220Y-63767216D01*
X133107007Y-63913778D01*
X133068130Y-63957255D01*
X133019978Y-64000392D01*
X132983184Y-64014169D01*
X132953761Y-63999417D01*
X132941789Y-63983574D01*
X132936479Y-63963014D01*
X132947027Y-63935471D01*
X132976744Y-63894338D01*
X133001165Y-63865041D01*
X133122452Y-63699575D01*
X133215676Y-63521736D01*
X133279750Y-63335438D01*
X133313585Y-63144598D01*
X133314110Y-63104560D01*
X133021157Y-63104560D01*
X132994554Y-63274085D01*
X132940676Y-63435970D01*
X132860242Y-63584686D01*
X132790713Y-63675505D01*
X132746427Y-63714976D01*
X132705688Y-63732737D01*
X132674797Y-63728014D01*
X132660056Y-63700029D01*
X132659600Y-63691669D01*
X132670147Y-63656156D01*
X132697202Y-63608997D01*
X132720205Y-63578399D01*
X132812623Y-63442512D01*
X132875641Y-63294218D01*
X132909243Y-63137946D01*
X132913413Y-62978131D01*
X132888132Y-62819204D01*
X132833385Y-62665597D01*
X132749155Y-62521741D01*
X132724317Y-62488864D01*
X132681301Y-62424846D01*
X132664559Y-62375636D01*
X132674346Y-62343209D01*
X132704013Y-62330272D01*
X132736757Y-62341098D01*
X132779240Y-62377782D01*
X132827324Y-62435286D01*
X132876872Y-62508575D01*
X132923745Y-62592611D01*
X132930107Y-62605459D01*
X132989654Y-62764716D01*
X133019764Y-62932927D01*
X133021157Y-63104560D01*
X133314110Y-63104560D01*
X133316096Y-62953131D01*
X133295437Y-62805047D01*
X133246024Y-62627222D01*
X133176122Y-62459444D01*
X133089472Y-62309410D01*
X132998719Y-62194250D01*
X132953697Y-62141082D01*
X132934286Y-62103481D01*
X132939328Y-62076265D01*
X132967478Y-62054353D01*
X132986808Y-62047638D01*
X133007170Y-62051472D01*
X133032823Y-62069338D01*
X133068023Y-62104719D01*
X133117029Y-62161099D01*
X133157857Y-62210118D01*
X133194044Y-62262529D01*
X133236748Y-62337509D01*
X133281352Y-62425646D01*
X133323237Y-62517526D01*
X133357785Y-62603735D01*
X133373022Y-62648667D01*
X133389011Y-62705620D01*
X133400074Y-62760096D01*
X133407084Y-62820511D01*
X133410917Y-62895283D01*
X133412446Y-62992829D01*
X133412590Y-63029667D01*
X133682502Y-63029667D01*
X133681852Y-62927538D01*
X133674119Y-62810095D01*
X133661276Y-62724867D01*
X133595785Y-62493596D01*
X133501985Y-62277177D01*
X133381564Y-62078991D01*
X133268652Y-61937467D01*
X133224776Y-61879271D01*
X133206658Y-61832766D01*
X133214845Y-61800927D01*
X133241077Y-61787941D01*
X133276672Y-61797063D01*
X133323240Y-61832565D01*
X133377706Y-61890009D01*
X133436996Y-61964959D01*
X133498033Y-62052979D01*
X133557742Y-62149633D01*
X133613047Y-62250485D01*
X133660874Y-62351099D01*
X133698147Y-62447037D01*
X133698280Y-62447435D01*
X133747179Y-62614645D01*
X133777200Y-62773964D01*
X133790175Y-62938744D01*
X135775333Y-62938744D01*
X135775333Y-61141601D01*
X128324667Y-61141601D01*
X128324667Y-68575334D01*
X128324667Y-68575334D01*
G37*
X128324667Y-68575334D02*
X135775333Y-68575334D01*
X135775333Y-67800693D01*
X133032133Y-67800693D01*
X133021808Y-67830305D01*
X132996206Y-67869923D01*
X132988295Y-67879768D01*
X132933644Y-67921189D01*
X132869365Y-67933769D01*
X132804490Y-67916925D01*
X132770514Y-67893767D01*
X132751301Y-67872829D01*
X132735329Y-67843704D01*
X132720535Y-67800214D01*
X132704856Y-67736182D01*
X132686231Y-67645430D01*
X132684299Y-67635534D01*
X132667606Y-67550044D01*
X132652625Y-67473862D01*
X132640861Y-67414599D01*
X132633817Y-67379864D01*
X132633274Y-67377301D01*
X132625088Y-67339201D01*
X131478126Y-67339201D01*
X131441437Y-67538167D01*
X131420132Y-67651065D01*
X131402708Y-67735587D01*
X131387668Y-67796795D01*
X131373514Y-67839749D01*
X131358748Y-67869511D01*
X131341873Y-67891141D01*
X131334973Y-67897932D01*
X131280828Y-67927236D01*
X131216696Y-67931530D01*
X131154802Y-67911368D01*
X131124463Y-67888403D01*
X131100471Y-67860928D01*
X131088622Y-67832745D01*
X131086179Y-67792282D01*
X131089401Y-67740236D01*
X131096515Y-67677219D01*
X131108686Y-67594352D01*
X131123877Y-67504899D01*
X131132775Y-67457734D01*
X131148020Y-67379606D01*
X131168332Y-67274600D01*
X131192485Y-67149114D01*
X131219255Y-67009547D01*
X131247417Y-66862298D01*
X131266266Y-66763467D01*
X130898533Y-66763467D01*
X130593733Y-66763467D01*
X130593733Y-65767535D01*
X130497949Y-65761734D01*
X130402164Y-65755934D01*
X130308864Y-65899867D01*
X130220410Y-66037225D01*
X130150076Y-66148553D01*
X130096771Y-66235711D01*
X130059405Y-66300562D01*
X130036888Y-66344967D01*
X130028131Y-66370787D01*
X130028898Y-66377935D01*
X130029483Y-66388168D01*
X130021466Y-66384609D01*
X130000696Y-66388639D01*
X129982672Y-66410598D01*
X129965433Y-66439952D01*
X129934496Y-66490031D01*
X129894636Y-66553178D01*
X129860922Y-66605806D01*
X129759267Y-66763467D01*
X129592300Y-66763467D01*
X129521759Y-66762691D01*
X129465962Y-66760600D01*
X129432128Y-66757551D01*
X129425333Y-66755229D01*
X129434088Y-66739495D01*
X129458948Y-66698572D01*
X129497814Y-66635824D01*
X129548583Y-66554617D01*
X129609153Y-66458316D01*
X129677422Y-66350287D01*
X129731499Y-66265030D01*
X129804119Y-66150309D01*
X129870533Y-66044615D01*
X129928641Y-65951350D01*
X129976345Y-65873915D01*
X130011543Y-65815713D01*
X130032138Y-65780145D01*
X130036743Y-65770417D01*
X130021378Y-65759440D01*
X129988811Y-65751979D01*
X129868083Y-65720979D01*
X129753578Y-65661531D01*
X129651979Y-65579051D01*
X129569971Y-65478954D01*
X129514629Y-65367783D01*
X129496028Y-65288629D01*
X129485366Y-65187760D01*
X129482476Y-65075666D01*
X129487194Y-64962843D01*
X129499354Y-64859782D01*
X129518791Y-64776976D01*
X129524175Y-64762146D01*
X129579575Y-64661030D01*
X129659810Y-64565546D01*
X129756066Y-64485169D01*
X129814800Y-64449704D01*
X129907933Y-64401267D01*
X130403233Y-64395887D01*
X130898533Y-64390506D01*
X130898533Y-66763467D01*
X131266266Y-66763467D01*
X131275746Y-66713766D01*
X131303018Y-66570348D01*
X131328008Y-66438445D01*
X131338576Y-66382467D01*
X131349227Y-66326272D01*
X131365301Y-66241874D01*
X131385831Y-66134330D01*
X131409851Y-66008695D01*
X131436394Y-65870025D01*
X131464493Y-65723376D01*
X131490727Y-65586601D01*
X131518954Y-65439389D01*
X131546110Y-65297532D01*
X131571306Y-65165704D01*
X131593648Y-65048578D01*
X131612245Y-64950830D01*
X131626206Y-64877134D01*
X131634471Y-64833067D01*
X131653324Y-64731675D01*
X131675120Y-64615155D01*
X131698922Y-64488460D01*
X131723790Y-64356544D01*
X131748784Y-64224362D01*
X131749101Y-64222689D01*
X130907798Y-64222689D01*
X130905481Y-64246721D01*
X130882095Y-64273269D01*
X130844979Y-64270468D01*
X130795960Y-64239050D01*
X130736865Y-64179749D01*
X130735909Y-64178649D01*
X130589763Y-63985542D01*
X130474421Y-63778586D01*
X130389503Y-63556959D01*
X130334632Y-63319838D01*
X130331003Y-63296703D01*
X130309583Y-63050018D01*
X130320969Y-62811508D01*
X130365208Y-62581018D01*
X130442348Y-62358390D01*
X130552436Y-62143472D01*
X130695519Y-61936106D01*
X130775150Y-61840101D01*
X130822081Y-61797465D01*
X130861615Y-61786508D01*
X130893824Y-61804064D01*
X130905300Y-61826625D01*
X130897980Y-61857283D01*
X130869597Y-61900850D01*
X130821009Y-61958634D01*
X130685646Y-62135623D01*
X130577487Y-62329682D01*
X130497126Y-62536934D01*
X130445157Y-62753498D01*
X130422174Y-62975498D01*
X130428771Y-63199055D01*
X130465541Y-63420290D01*
X130533079Y-63635326D01*
X130555894Y-63690067D01*
X130613038Y-63803618D01*
X130685867Y-63924037D01*
X130766068Y-64038639D01*
X130845322Y-64134735D01*
X130852223Y-64142147D01*
X130891781Y-64188967D01*
X130907798Y-64222689D01*
X131749101Y-64222689D01*
X131772966Y-64096867D01*
X131794042Y-63986118D01*
X131168827Y-63986118D01*
X131157464Y-64009693D01*
X131126016Y-64019299D01*
X131082723Y-63998975D01*
X131029379Y-63949793D01*
X131000698Y-63916209D01*
X130874334Y-63733982D01*
X130779100Y-63540964D01*
X130715673Y-63339243D01*
X130684733Y-63130906D01*
X130684876Y-62944331D01*
X130714930Y-62735493D01*
X130774347Y-62536054D01*
X130861226Y-62350521D01*
X130973666Y-62183404D01*
X131036177Y-62111034D01*
X131049526Y-62098334D01*
X130949333Y-62098334D01*
X130940867Y-62106800D01*
X130932400Y-62098334D01*
X130940867Y-62089867D01*
X130949333Y-62098334D01*
X131049526Y-62098334D01*
X131087387Y-62062317D01*
X131124081Y-62042346D01*
X131148699Y-62050548D01*
X131162543Y-62081517D01*
X131163532Y-62115107D01*
X131145608Y-62151247D01*
X131115336Y-62188012D01*
X130997906Y-62340387D01*
X130903212Y-62509916D01*
X130835966Y-62687680D01*
X130820907Y-62745307D01*
X130803990Y-62852090D01*
X130796260Y-62978136D01*
X130797745Y-63110102D01*
X130808474Y-63234644D01*
X130819686Y-63301823D01*
X130864408Y-63453233D01*
X130934281Y-63609255D01*
X131024005Y-63759682D01*
X131125940Y-63891668D01*
X131160387Y-63942779D01*
X131168827Y-63986118D01*
X131794042Y-63986118D01*
X131795395Y-63979013D01*
X131815134Y-63875755D01*
X131831242Y-63792046D01*
X131842780Y-63732841D01*
X131847962Y-63707055D01*
X131454976Y-63707055D01*
X131446045Y-63721112D01*
X131413175Y-63732413D01*
X131368402Y-63712318D01*
X131311559Y-63660746D01*
X131302100Y-63650423D01*
X131205948Y-63518401D01*
X131137321Y-63367494D01*
X131096790Y-63199319D01*
X131084800Y-63032787D01*
X131099827Y-62848005D01*
X131144688Y-62678233D01*
X131219054Y-62524398D01*
X131309132Y-62402383D01*
X131361972Y-62351473D01*
X131404591Y-62329419D01*
X131435197Y-62336767D01*
X131448602Y-62359965D01*
X131446402Y-62390231D01*
X131422518Y-62434272D01*
X131384199Y-62484935D01*
X131289010Y-62627034D01*
X131224751Y-62779058D01*
X131191422Y-62937154D01*
X131189023Y-63097467D01*
X131217555Y-63256145D01*
X131277018Y-63409333D01*
X131367412Y-63553179D01*
X131384071Y-63574242D01*
X131430051Y-63635016D01*
X131453019Y-63677705D01*
X131454976Y-63707055D01*
X131847962Y-63707055D01*
X131847973Y-63707001D01*
X131859934Y-63649636D01*
X131870090Y-63600667D01*
X131873380Y-63584685D01*
X131871947Y-63556790D01*
X131849785Y-63533276D01*
X131815404Y-63513528D01*
X131700786Y-63439205D01*
X131614975Y-63347488D01*
X131557469Y-63237529D01*
X131527764Y-63108480D01*
X131523080Y-63020640D01*
X131538616Y-62888145D01*
X131584517Y-62770534D01*
X131661051Y-62667163D01*
X131676765Y-62651311D01*
X131761803Y-62580072D01*
X131847646Y-62534621D01*
X131944651Y-62510887D01*
X132050000Y-62504734D01*
X132128317Y-62506444D01*
X132185991Y-62513304D01*
X132236149Y-62527909D01*
X132290864Y-62552333D01*
X132396926Y-62621919D01*
X132484404Y-62718131D01*
X132540865Y-62812666D01*
X132569978Y-62900138D01*
X132582419Y-63004371D01*
X132578085Y-63112592D01*
X132556876Y-63212025D01*
X132544280Y-63245054D01*
X132496308Y-63328323D01*
X132431562Y-63406911D01*
X132359384Y-63470751D01*
X132304366Y-63503635D01*
X132253976Y-63534143D01*
X132236312Y-63565835D01*
X132236267Y-63567579D01*
X132239338Y-63594322D01*
X132247869Y-63648355D01*
X132260840Y-63723729D01*
X132277227Y-63814492D01*
X132294715Y-63907907D01*
X132309549Y-63985858D01*
X132329832Y-64092459D01*
X132354685Y-64223088D01*
X132383229Y-64373126D01*
X132414585Y-64537952D01*
X132447873Y-64712944D01*
X132482215Y-64893484D01*
X132516732Y-65074949D01*
X132522258Y-65104000D01*
X132562369Y-65314753D01*
X132607166Y-65549907D01*
X132654958Y-65800603D01*
X132704056Y-66057980D01*
X132752768Y-66313178D01*
X132799405Y-66557338D01*
X132842276Y-66781601D01*
X132861743Y-66883359D01*
X132894112Y-67052991D01*
X132924469Y-67213031D01*
X132952226Y-67360313D01*
X132976794Y-67491670D01*
X132997587Y-67603937D01*
X133014015Y-67693947D01*
X133025490Y-67758534D01*
X133031425Y-67794532D01*
X133032133Y-67800693D01*
X135775333Y-67800693D01*
X135775333Y-64477467D01*
X134640800Y-64477467D01*
X134640800Y-66848134D01*
X134336463Y-66848134D01*
X134331998Y-66294462D01*
X134327533Y-65740789D01*
X133912667Y-66293966D01*
X133497800Y-66847144D01*
X133324233Y-66847639D01*
X133252108Y-66846421D01*
X133194664Y-66842739D01*
X133158956Y-66837211D01*
X133150667Y-66832449D01*
X133160682Y-66816097D01*
X133189293Y-66775843D01*
X133234353Y-66714555D01*
X133293713Y-66635101D01*
X133365224Y-66540349D01*
X133446738Y-66433165D01*
X133536105Y-66316418D01*
X133583976Y-66254167D01*
X133676871Y-66133292D01*
X133763354Y-66020256D01*
X133841220Y-65917976D01*
X133908269Y-65829367D01*
X133962297Y-65757346D01*
X134001101Y-65704829D01*
X134022480Y-65674732D01*
X134025940Y-65669018D01*
X134020169Y-65645945D01*
X133997123Y-65604886D01*
X133961388Y-65553721D01*
X133951056Y-65540334D01*
X133896981Y-65471067D01*
X133835897Y-65391978D01*
X133781690Y-65321059D01*
X133741465Y-65270968D01*
X133708368Y-65235162D01*
X133687733Y-65219208D01*
X133684319Y-65219459D01*
X133677146Y-65219063D01*
X133678422Y-65213109D01*
X133670183Y-65194973D01*
X133643950Y-65154405D01*
X133602676Y-65095579D01*
X133549319Y-65022673D01*
X133486834Y-64939860D01*
X133463933Y-64910058D01*
X133394517Y-64820032D01*
X133328575Y-64734319D01*
X133270210Y-64658266D01*
X133223522Y-64597218D01*
X133192612Y-64556520D01*
X133188602Y-64551183D01*
X133133404Y-64477467D01*
X133497800Y-64479987D01*
X133631988Y-64660760D01*
X133679858Y-64725032D01*
X133743575Y-64810260D01*
X133818586Y-64910370D01*
X133900335Y-65019287D01*
X133984268Y-65130937D01*
X134046855Y-65214067D01*
X134327533Y-65586601D01*
X134336463Y-64477467D01*
X134640800Y-64477467D01*
X135775333Y-64477467D01*
X135775333Y-62938744D01*
X133790175Y-62938744D01*
X133788666Y-63105867D01*
X133767578Y-63333380D01*
X133723446Y-63539486D01*
X133655057Y-63728668D01*
X133581692Y-63871480D01*
X133552353Y-63922754D01*
X133531361Y-63961757D01*
X133523202Y-63980152D01*
X133523200Y-63980225D01*
X133512954Y-63998669D01*
X133485941Y-64035573D01*
X133447748Y-64083957D01*
X133403963Y-64136838D01*
X133360173Y-64187236D01*
X133338673Y-64210767D01*
X133291157Y-64252242D01*
X133248769Y-64272885D01*
X133217172Y-64271555D01*
X133202028Y-64247108D01*
X133201467Y-64238466D01*
X133212125Y-64208971D01*
X133240295Y-64163774D01*
X133280274Y-64111828D01*
X133287642Y-64103192D01*
X133421775Y-63924986D01*
X133530226Y-63728770D01*
X133614688Y-63511238D01*
X133646186Y-63402201D01*
X133664590Y-63305359D01*
X133676836Y-63186449D01*
X133682674Y-63056749D01*
X133682502Y-63029667D01*
X133412590Y-63029667D01*
X133412101Y-63135346D01*
X133409566Y-63215390D01*
X133404162Y-63278008D01*
X133395067Y-63331411D01*
X133381458Y-63383807D01*
X133374962Y-63405065D01*
X133302541Y-63595840D01*
X133212220Y-63767216D01*
X133107007Y-63913778D01*
X133068130Y-63957255D01*
X133019978Y-64000392D01*
X132983184Y-64014169D01*
X132953761Y-63999417D01*
X132941789Y-63983574D01*
X132936479Y-63963014D01*
X132947027Y-63935471D01*
X132976744Y-63894338D01*
X133001165Y-63865041D01*
X133122452Y-63699575D01*
X133215676Y-63521736D01*
X133279750Y-63335438D01*
X133313585Y-63144598D01*
X133314110Y-63104560D01*
X133021157Y-63104560D01*
X132994554Y-63274085D01*
X132940676Y-63435970D01*
X132860242Y-63584686D01*
X132790713Y-63675505D01*
X132746427Y-63714976D01*
X132705688Y-63732737D01*
X132674797Y-63728014D01*
X132660056Y-63700029D01*
X132659600Y-63691669D01*
X132670147Y-63656156D01*
X132697202Y-63608997D01*
X132720205Y-63578399D01*
X132812623Y-63442512D01*
X132875641Y-63294218D01*
X132909243Y-63137946D01*
X132913413Y-62978131D01*
X132888132Y-62819204D01*
X132833385Y-62665597D01*
X132749155Y-62521741D01*
X132724317Y-62488864D01*
X132681301Y-62424846D01*
X132664559Y-62375636D01*
X132674346Y-62343209D01*
X132704013Y-62330272D01*
X132736757Y-62341098D01*
X132779240Y-62377782D01*
X132827324Y-62435286D01*
X132876872Y-62508575D01*
X132923745Y-62592611D01*
X132930107Y-62605459D01*
X132989654Y-62764716D01*
X133019764Y-62932927D01*
X133021157Y-63104560D01*
X133314110Y-63104560D01*
X133316096Y-62953131D01*
X133295437Y-62805047D01*
X133246024Y-62627222D01*
X133176122Y-62459444D01*
X133089472Y-62309410D01*
X132998719Y-62194250D01*
X132953697Y-62141082D01*
X132934286Y-62103481D01*
X132939328Y-62076265D01*
X132967478Y-62054353D01*
X132986808Y-62047638D01*
X133007170Y-62051472D01*
X133032823Y-62069338D01*
X133068023Y-62104719D01*
X133117029Y-62161099D01*
X133157857Y-62210118D01*
X133194044Y-62262529D01*
X133236748Y-62337509D01*
X133281352Y-62425646D01*
X133323237Y-62517526D01*
X133357785Y-62603735D01*
X133373022Y-62648667D01*
X133389011Y-62705620D01*
X133400074Y-62760096D01*
X133407084Y-62820511D01*
X133410917Y-62895283D01*
X133412446Y-62992829D01*
X133412590Y-63029667D01*
X133682502Y-63029667D01*
X133681852Y-62927538D01*
X133674119Y-62810095D01*
X133661276Y-62724867D01*
X133595785Y-62493596D01*
X133501985Y-62277177D01*
X133381564Y-62078991D01*
X133268652Y-61937467D01*
X133224776Y-61879271D01*
X133206658Y-61832766D01*
X133214845Y-61800927D01*
X133241077Y-61787941D01*
X133276672Y-61797063D01*
X133323240Y-61832565D01*
X133377706Y-61890009D01*
X133436996Y-61964959D01*
X133498033Y-62052979D01*
X133557742Y-62149633D01*
X133613047Y-62250485D01*
X133660874Y-62351099D01*
X133698147Y-62447037D01*
X133698280Y-62447435D01*
X133747179Y-62614645D01*
X133777200Y-62773964D01*
X133790175Y-62938744D01*
X135775333Y-62938744D01*
X135775333Y-61141601D01*
X128324667Y-61141601D01*
X128324667Y-68575334D01*
D14*
G04 #@! TO.C,SW3*
X64050000Y-70100000D02*
X64050000Y-68600000D01*
X65300000Y-66100000D02*
X69800000Y-66100000D01*
X71050000Y-68600000D02*
X71050000Y-70100000D01*
X69800000Y-72600000D02*
X65300000Y-72600000D01*
G04 #@! TO.C,SW4*
X64050000Y-82100000D02*
X64050000Y-80600000D01*
X65300000Y-78100000D02*
X69800000Y-78100000D01*
X71050000Y-80600000D02*
X71050000Y-82100000D01*
X69800000Y-84600000D02*
X65300000Y-84600000D01*
G04 #@! TO.C,SW5*
X64050000Y-94100000D02*
X64050000Y-92600000D01*
X65300000Y-90100000D02*
X69800000Y-90100000D01*
X71050000Y-92600000D02*
X71050000Y-94100000D01*
X69800000Y-96600000D02*
X65300000Y-96600000D01*
G04 #@! TD*
M02*
